M48
; DRILL file {KiCad 8.0.1-rc1} date 2024-05-12T14:14:25-0400
; FORMAT={-:-/ absolute / metric / decimal}
; #@! TF.CreationDate,2024-05-12T14:14:25-04:00
; #@! TF.GenerationSoftware,Kicad,Pcbnew,8.0.1-rc1
; #@! TF.FileFunction,Plated,1,4,PTH
FMAT,2
METRIC
; #@! TA.AperFunction,Plated,PTH,ViaDrill
T1C0.300
; #@! TA.AperFunction,Plated,PTH,ViaDrill
T2C0.500
; #@! TA.AperFunction,Plated,PTH,ComponentDrill
T3C0.550
; #@! TA.AperFunction,Plated,PTH,ComponentDrill
T4C0.700
; #@! TA.AperFunction,Plated,PTH,ComponentDrill
T5C0.850
; #@! TA.AperFunction,Plated,PTH,ComponentDrill
T6C1.000
; #@! TA.AperFunction,Plated,PTH,ComponentDrill
T7C1.100
; #@! TA.AperFunction,Plated,PTH,ComponentDrill
T8C1.190
; #@! TA.AperFunction,Plated,PTH,ComponentDrill
T9C6.100
%
G90
G05
T1
X111.5Y-116.5
X117.5Y-103.8
X118.0Y-78.3
X118.5Y-81.8
X121.0Y-70.8
X122.5Y-66.8
X122.5Y-113.5
X123.0Y-103.8
X123.5Y-81.3
X124.0Y-71.3
X125.5Y-100.3
X126.8Y-95.5
X128.0Y-90.3
X131.4Y-91.9
X133.0Y-88.5
X133.0Y-94.19
X135.5Y-95.3
X139.0Y-98.8
X140.2Y-106.4
X141.5Y-95.3
X149.5Y-111.0
X150.0Y-103.5
X150.0Y-104.5
X150.0Y-106.5
X150.5Y-108.5
X151.0Y-102.0
X152.0Y-110.5
X152.5Y-107.5
X152.5Y-109.0
X152.5Y-113.5
X155.7Y-65.1
X156.0Y-77.5
X156.0Y-104.0
X156.0Y-117.5
X157.0Y-103.0
X157.0Y-105.0
X157.8Y-84.5
X158.0Y-83.5
X158.0Y-85.7
X158.5Y-102.0
X158.937Y-94.3
X159.25Y-76.5
X159.4Y-84.1
X159.9Y-92.2
X159.9Y-94.2
X160.4Y-75.4
X160.6Y-93.1
X161.0Y-76.5
X161.0Y-78.5
X161.0Y-109.0
X161.559Y-109.809
X162.15Y-78.25
X162.5Y-101.5
X162.5Y-111.5
X162.7Y-86.75
X163.5Y-86.25
X163.5Y-97.5
X164.0Y-94.5
X164.8Y-69.0
X165.0Y-85.75
X165.4Y-72.3
X165.5Y-120.8
X165.7Y-77.5
X166.0Y-86.5
X166.25Y-87.5
X166.25Y-88.75
X166.5Y-104.0
X168.0Y-95.0
X168.0Y-96.5
X169.0Y-93.5
X170.5Y-93.5
X176.5Y-53.5
X178.9Y-62.3
X179.0Y-93.5
X180.0Y-56.5
X181.0Y-99.0
X181.4Y-73.3
X181.5Y-94.5
X181.5Y-100.0
X182.0Y-55.5
X182.5Y-95.0
X182.5Y-100.5
X183.0Y-101.5
X183.45Y-55.5
X183.5Y-95.0
T2
X104.3Y-96.0
X108.9Y-83.7
X112.0Y-61.5
X112.0Y-96.5
X112.0Y-105.6
X114.5Y-123.0
X116.6Y-94.8
X120.5Y-118.5
X122.0Y-63.0
X124.2Y-121.2
X130.5Y-129.0
X133.9Y-100.7
X134.5Y-127.0
X135.6Y-88.2
X136.75Y-57.75
X140.0Y-114.0
X141.5Y-105.0
X142.6Y-61.1
X143.9Y-82.0
X146.0Y-119.5
X148.0Y-91.0
X149.0Y-129.0
X151.9Y-61.3
X154.0Y-125.5
X154.5Y-115.0
X154.8Y-61.3
X166.5Y-118.0
T4
X168.0Y-122.46
X168.0Y-125.0
T6
X97.34Y-50.0
X99.88Y-50.0
X102.42Y-50.0
X104.96Y-50.0
X107.5Y-50.0
X110.04Y-50.0
X112.58Y-50.0
X115.12Y-50.0
X117.66Y-50.0
X120.2Y-50.0
X122.74Y-50.0
X125.28Y-50.0
X127.82Y-50.0
X130.0Y-67.46
X130.0Y-70.0
X130.0Y-72.54
X130.36Y-50.0
X132.9Y-50.0
X135.44Y-50.0
X137.98Y-50.0
X140.0Y-67.46
X140.0Y-70.0
X140.0Y-72.54
X140.52Y-50.0
X143.06Y-50.0
X145.6Y-50.0
X148.14Y-50.0
X150.0Y-67.46
X150.0Y-70.0
X150.0Y-72.54
X150.68Y-50.0
X153.22Y-50.0
X155.76Y-50.0
X157.0Y-122.46
X157.0Y-125.0
X158.3Y-50.0
X160.0Y-67.46
X160.0Y-70.0
X160.0Y-72.54
X160.84Y-50.0
X163.0Y-122.46
X163.0Y-125.0
X163.38Y-50.0
X165.92Y-50.0
X168.46Y-50.0
X171.0Y-50.0
T7
X173.25Y-82.2
X173.25Y-86.7
X179.75Y-82.2
X179.75Y-86.7
T8
X174.5Y-94.06
X174.5Y-96.6
T9
X93.0Y-62.5
X93.0Y-78.0
X93.0Y-95.0
X93.0Y-110.0
T3
X176.87Y-106.33G85X177.52Y-106.33
G05
X176.87Y-114.08G85X177.52Y-114.08
G05
T5
X173.12Y-106.48G85X173.67Y-106.48
G05
X173.12Y-113.93G85X173.67Y-113.93
G05
M30
