G04 #@! TF.GenerationSoftware,KiCad,Pcbnew,8.0.1-rc1*
G04 #@! TF.CreationDate,2024-05-12T14:13:22-04:00*
G04 #@! TF.ProjectId,STM32_Play_Board,53544d33-325f-4506-9c61-795f426f6172,rev?*
G04 #@! TF.SameCoordinates,Original*
G04 #@! TF.FileFunction,Paste,Top*
G04 #@! TF.FilePolarity,Positive*
%FSLAX46Y46*%
G04 Gerber Fmt 4.6, Leading zero omitted, Abs format (unit mm)*
G04 Created by KiCad (PCBNEW 8.0.1-rc1) date 2024-05-12 14:13:22*
%MOMM*%
%LPD*%
G01*
G04 APERTURE LIST*
G04 Aperture macros list*
%AMRoundRect*
0 Rectangle with rounded corners*
0 $1 Rounding radius*
0 $2 $3 $4 $5 $6 $7 $8 $9 X,Y pos of 4 corners*
0 Add a 4 corners polygon primitive as box body*
4,1,4,$2,$3,$4,$5,$6,$7,$8,$9,$2,$3,0*
0 Add four circle primitives for the rounded corners*
1,1,$1+$1,$2,$3*
1,1,$1+$1,$4,$5*
1,1,$1+$1,$6,$7*
1,1,$1+$1,$8,$9*
0 Add four rect primitives between the rounded corners*
20,1,$1+$1,$2,$3,$4,$5,0*
20,1,$1+$1,$4,$5,$6,$7,0*
20,1,$1+$1,$6,$7,$8,$9,0*
20,1,$1+$1,$8,$9,$2,$3,0*%
G04 Aperture macros list end*
%ADD10RoundRect,0.250000X-0.450000X0.262500X-0.450000X-0.262500X0.450000X-0.262500X0.450000X0.262500X0*%
%ADD11RoundRect,0.150000X-0.825000X-0.150000X0.825000X-0.150000X0.825000X0.150000X-0.825000X0.150000X0*%
%ADD12RoundRect,0.250000X-0.250000X-0.475000X0.250000X-0.475000X0.250000X0.475000X-0.250000X0.475000X0*%
%ADD13RoundRect,0.250000X0.450000X-0.262500X0.450000X0.262500X-0.450000X0.262500X-0.450000X-0.262500X0*%
%ADD14RoundRect,0.250000X0.475000X-0.250000X0.475000X0.250000X-0.475000X0.250000X-0.475000X-0.250000X0*%
%ADD15RoundRect,0.243750X0.456250X-0.243750X0.456250X0.243750X-0.456250X0.243750X-0.456250X-0.243750X0*%
%ADD16RoundRect,0.150000X0.512500X0.150000X-0.512500X0.150000X-0.512500X-0.150000X0.512500X-0.150000X0*%
%ADD17R,1.200000X0.400000*%
%ADD18RoundRect,0.250000X-0.475000X0.250000X-0.475000X-0.250000X0.475000X-0.250000X0.475000X0.250000X0*%
%ADD19RoundRect,0.250000X0.250000X0.475000X-0.250000X0.475000X-0.250000X-0.475000X0.250000X-0.475000X0*%
%ADD20R,1.100000X0.850000*%
%ADD21R,1.100000X0.750000*%
%ADD22R,1.000000X1.200000*%
%ADD23R,1.350000X1.550000*%
%ADD24R,1.350000X1.900000*%
%ADD25R,1.800000X1.170000*%
%ADD26RoundRect,0.250000X-0.262500X-0.450000X0.262500X-0.450000X0.262500X0.450000X-0.262500X0.450000X0*%
%ADD27R,1.300000X0.450000*%
%ADD28RoundRect,0.150000X0.150000X-0.512500X0.150000X0.512500X-0.150000X0.512500X-0.150000X-0.512500X0*%
%ADD29RoundRect,0.250000X0.262500X0.450000X-0.262500X0.450000X-0.262500X-0.450000X0.262500X-0.450000X0*%
%ADD30RoundRect,0.100000X-0.712500X-0.100000X0.712500X-0.100000X0.712500X0.100000X-0.712500X0.100000X0*%
%ADD31RoundRect,0.375000X0.375000X-0.625000X0.375000X0.625000X-0.375000X0.625000X-0.375000X-0.625000X0*%
%ADD32RoundRect,0.500000X1.400000X-0.500000X1.400000X0.500000X-1.400000X0.500000X-1.400000X-0.500000X0*%
%ADD33RoundRect,0.218750X-0.381250X0.218750X-0.381250X-0.218750X0.381250X-0.218750X0.381250X0.218750X0*%
%ADD34RoundRect,0.075000X-0.662500X-0.075000X0.662500X-0.075000X0.662500X0.075000X-0.662500X0.075000X0*%
%ADD35RoundRect,0.075000X-0.075000X-0.662500X0.075000X-0.662500X0.075000X0.662500X-0.075000X0.662500X0*%
%ADD36R,1.650000X1.950000*%
G04 APERTURE END LIST*
D10*
G04 #@! TO.C,R8*
X150000000Y-61287500D03*
X150000000Y-63112500D03*
G04 #@! TD*
D11*
G04 #@! TO.C,U8*
X102525000Y-100095000D03*
X102525000Y-101365000D03*
X102525000Y-102635000D03*
X102525000Y-103905000D03*
X107475000Y-103905000D03*
X107475000Y-102635000D03*
X107475000Y-101365000D03*
X107475000Y-100095000D03*
G04 #@! TD*
D12*
G04 #@! TO.C,C23*
X106775000Y-62500000D03*
X108675000Y-62500000D03*
G04 #@! TD*
G04 #@! TO.C,C32*
X118000000Y-97800000D03*
X119900000Y-97800000D03*
G04 #@! TD*
D13*
G04 #@! TO.C,R4*
X111000000Y-124912500D03*
X111000000Y-123087500D03*
G04 #@! TD*
D10*
G04 #@! TO.C,R19*
X106400000Y-69087500D03*
X106400000Y-70912500D03*
G04 #@! TD*
G04 #@! TO.C,R5*
X140000000Y-61087500D03*
X140000000Y-62912500D03*
G04 #@! TD*
D14*
G04 #@! TO.C,C35*
X112000000Y-103950000D03*
X112000000Y-102050000D03*
G04 #@! TD*
D15*
G04 #@! TO.C,D1*
X106000000Y-120875000D03*
X106000000Y-119000000D03*
G04 #@! TD*
D16*
G04 #@! TO.C,U3*
X141000000Y-85450000D03*
X141000000Y-84500000D03*
X141000000Y-83550000D03*
X138725000Y-83550000D03*
X138725000Y-84500000D03*
X138725000Y-85450000D03*
G04 #@! TD*
D14*
G04 #@! TO.C,C9*
X152900000Y-94600000D03*
X152900000Y-92700000D03*
G04 #@! TD*
D17*
G04 #@! TO.C,U1*
X154200000Y-107842500D03*
X154200000Y-108477500D03*
X154200000Y-109112500D03*
X154200000Y-109747500D03*
X154200000Y-110382500D03*
X154200000Y-111017500D03*
X154200000Y-111652500D03*
X154200000Y-112287500D03*
X159400000Y-112287500D03*
X159400000Y-111652500D03*
X159400000Y-111017500D03*
X159400000Y-110382500D03*
X159400000Y-109747500D03*
X159400000Y-109112500D03*
X159400000Y-108477500D03*
X159400000Y-107842500D03*
G04 #@! TD*
D18*
G04 #@! TO.C,C18*
X120500000Y-120050000D03*
X120500000Y-121950000D03*
G04 #@! TD*
D19*
G04 #@! TO.C,C2*
X158450000Y-115000000D03*
X156550000Y-115000000D03*
G04 #@! TD*
D20*
G04 #@! TO.C,J2*
X179450000Y-67895000D03*
X179450000Y-68995000D03*
X179450000Y-70095000D03*
X179450000Y-71195000D03*
X179450000Y-72295000D03*
X179450000Y-73395000D03*
X179450000Y-74495000D03*
D21*
X179450000Y-75545000D03*
D22*
X173300000Y-65260000D03*
X169600000Y-65260000D03*
D23*
X179325000Y-65435000D03*
D24*
X168625000Y-68760000D03*
X168625000Y-74730000D03*
D25*
X179100000Y-76755000D03*
G04 #@! TD*
D12*
G04 #@! TO.C,C19*
X126050000Y-80000000D03*
X127950000Y-80000000D03*
G04 #@! TD*
D14*
G04 #@! TO.C,C10*
X143862500Y-85450000D03*
X143862500Y-83550000D03*
G04 #@! TD*
D13*
G04 #@! TO.C,R21*
X138500000Y-102412500D03*
X138500000Y-100587500D03*
G04 #@! TD*
D12*
G04 #@! TO.C,C24*
X102050000Y-75000000D03*
X103950000Y-75000000D03*
G04 #@! TD*
D14*
G04 #@! TO.C,C8*
X135862500Y-85450000D03*
X135862500Y-83550000D03*
G04 #@! TD*
D26*
G04 #@! TO.C,R11*
X101812500Y-65500000D03*
X103637500Y-65500000D03*
G04 #@! TD*
D12*
G04 #@! TO.C,C33*
X106000000Y-96000000D03*
X107900000Y-96000000D03*
G04 #@! TD*
D11*
G04 #@! TO.C,U7*
X120525000Y-124095000D03*
X120525000Y-125365000D03*
X120525000Y-126635000D03*
X120525000Y-127905000D03*
X125475000Y-127905000D03*
X125475000Y-126635000D03*
X125475000Y-125365000D03*
X125475000Y-124095000D03*
G04 #@! TD*
D13*
G04 #@! TO.C,R26*
X119000000Y-106800000D03*
X119000000Y-104975000D03*
G04 #@! TD*
D27*
G04 #@! TO.C,J1*
X173345000Y-111505000D03*
X173345000Y-110855000D03*
X173345000Y-110205000D03*
X173345000Y-109555000D03*
X173345000Y-108905000D03*
G04 #@! TD*
D12*
G04 #@! TO.C,C31*
X118000000Y-94790000D03*
X119900000Y-94790000D03*
G04 #@! TD*
D26*
G04 #@! TO.C,R14*
X126087500Y-84000000D03*
X127912500Y-84000000D03*
G04 #@! TD*
D19*
G04 #@! TO.C,C26*
X119900000Y-66000000D03*
X118000000Y-66000000D03*
G04 #@! TD*
D14*
G04 #@! TO.C,C3*
X166500000Y-106950000D03*
X166500000Y-105050000D03*
G04 #@! TD*
D10*
G04 #@! TO.C,R24*
X137000000Y-90175000D03*
X137000000Y-92000000D03*
G04 #@! TD*
G04 #@! TO.C,R10*
X114500000Y-125175000D03*
X114500000Y-127000000D03*
G04 #@! TD*
D28*
G04 #@! TO.C,U2*
X130050000Y-119137500D03*
X131000000Y-119137500D03*
X131950000Y-119137500D03*
X131950000Y-116862500D03*
X131000000Y-116862500D03*
X130050000Y-116862500D03*
G04 #@! TD*
D29*
G04 #@! TO.C,R2*
X166500000Y-112000000D03*
X164675000Y-112000000D03*
G04 #@! TD*
D10*
G04 #@! TO.C,R17*
X108900000Y-80387500D03*
X108900000Y-82212500D03*
G04 #@! TD*
D30*
G04 #@! TO.C,U10*
X113887500Y-69025000D03*
X113887500Y-69675000D03*
X113887500Y-70325000D03*
X113887500Y-70975000D03*
X118112500Y-70975000D03*
X118112500Y-70325000D03*
X118112500Y-69675000D03*
X118112500Y-69025000D03*
G04 #@! TD*
D31*
G04 #@! TO.C,U6*
X136700000Y-124150000D03*
X139000000Y-124150000D03*
D32*
X139000000Y-117850000D03*
D31*
X141300000Y-124150000D03*
G04 #@! TD*
D14*
G04 #@! TO.C,C29*
X132500000Y-98450000D03*
X132500000Y-96550000D03*
G04 #@! TD*
D18*
G04 #@! TO.C,C4*
X166500000Y-114150000D03*
X166500000Y-116050000D03*
G04 #@! TD*
D12*
G04 #@! TO.C,C27*
X118050000Y-76000000D03*
X119950000Y-76000000D03*
G04 #@! TD*
G04 #@! TO.C,C34*
X106050000Y-93000000D03*
X107950000Y-93000000D03*
G04 #@! TD*
D19*
G04 #@! TO.C,C6*
X138950000Y-127000000D03*
X137050000Y-127000000D03*
G04 #@! TD*
D18*
G04 #@! TO.C,C37*
X147000000Y-127050000D03*
X147000000Y-128950000D03*
G04 #@! TD*
D19*
G04 #@! TO.C,C15*
X130950000Y-114000000D03*
X129050000Y-114000000D03*
G04 #@! TD*
D13*
G04 #@! TO.C,R3*
X106090000Y-124912500D03*
X106090000Y-123087500D03*
G04 #@! TD*
D18*
G04 #@! TO.C,C1*
X169000000Y-114150000D03*
X169000000Y-116050000D03*
G04 #@! TD*
D29*
G04 #@! TO.C,R1*
X166500000Y-109500000D03*
X164675000Y-109500000D03*
G04 #@! TD*
D12*
G04 #@! TO.C,C5*
X175037500Y-62300000D03*
X176937500Y-62300000D03*
G04 #@! TD*
D18*
G04 #@! TO.C,C13*
X150100000Y-89100000D03*
X150100000Y-91000000D03*
G04 #@! TD*
D14*
G04 #@! TO.C,C7*
X146000000Y-122950000D03*
X146000000Y-121050000D03*
G04 #@! TD*
D13*
G04 #@! TO.C,R22*
X138500000Y-106412500D03*
X138500000Y-104587500D03*
G04 #@! TD*
G04 #@! TO.C,R25*
X119000000Y-102300000D03*
X119000000Y-100475000D03*
G04 #@! TD*
D10*
G04 #@! TO.C,R6*
X130000000Y-61087500D03*
X130000000Y-62912500D03*
G04 #@! TD*
D15*
G04 #@! TO.C,D2*
X111000000Y-120875000D03*
X111000000Y-119000000D03*
G04 #@! TD*
D16*
G04 #@! TO.C,U11*
X152137500Y-125950000D03*
X152137500Y-125000000D03*
X152137500Y-124050000D03*
X149862500Y-124050000D03*
X149862500Y-125000000D03*
X149862500Y-125950000D03*
G04 #@! TD*
D11*
G04 #@! TO.C,U12*
X123300000Y-94190000D03*
X123300000Y-95460000D03*
X123300000Y-96730000D03*
X123300000Y-98000000D03*
X123300000Y-99270000D03*
X123300000Y-100540000D03*
X123300000Y-101810000D03*
X128700000Y-101810000D03*
X128700000Y-100540000D03*
X128700000Y-99270000D03*
X128700000Y-98000000D03*
X128700000Y-96730000D03*
X128700000Y-95460000D03*
X128700000Y-94190000D03*
G04 #@! TD*
D33*
G04 #@! TO.C,FB1*
X162500000Y-112937500D03*
X162500000Y-115062500D03*
G04 #@! TD*
D34*
G04 #@! TO.C,U4*
X157337500Y-92250000D03*
X157337500Y-92750000D03*
X157337500Y-93250000D03*
X157337500Y-93750000D03*
X157337500Y-94250000D03*
X157337500Y-94750000D03*
X157337500Y-95250000D03*
X157337500Y-95750000D03*
X157337500Y-96250000D03*
X157337500Y-96750000D03*
X157337500Y-97250000D03*
X157337500Y-97750000D03*
D35*
X158750000Y-99162500D03*
X159250000Y-99162500D03*
X159750000Y-99162500D03*
X160250000Y-99162500D03*
X160750000Y-99162500D03*
X161250000Y-99162500D03*
X161750000Y-99162500D03*
X162250000Y-99162500D03*
X162750000Y-99162500D03*
X163250000Y-99162500D03*
X163750000Y-99162500D03*
X164250000Y-99162500D03*
D34*
X165662500Y-97750000D03*
X165662500Y-97250000D03*
X165662500Y-96750000D03*
X165662500Y-96250000D03*
X165662500Y-95750000D03*
X165662500Y-95250000D03*
X165662500Y-94750000D03*
X165662500Y-94250000D03*
X165662500Y-93750000D03*
X165662500Y-93250000D03*
X165662500Y-92750000D03*
X165662500Y-92250000D03*
D35*
X164250000Y-90837500D03*
X163750000Y-90837500D03*
X163250000Y-90837500D03*
X162750000Y-90837500D03*
X162250000Y-90837500D03*
X161750000Y-90837500D03*
X161250000Y-90837500D03*
X160750000Y-90837500D03*
X160250000Y-90837500D03*
X159750000Y-90837500D03*
X159250000Y-90837500D03*
X158750000Y-90837500D03*
G04 #@! TD*
D26*
G04 #@! TO.C,R12*
X106900000Y-65500000D03*
X108725000Y-65500000D03*
G04 #@! TD*
D10*
G04 #@! TO.C,R18*
X112000000Y-63000000D03*
X112000000Y-64825000D03*
G04 #@! TD*
D14*
G04 #@! TO.C,C20*
X128000000Y-88950000D03*
X128000000Y-87050000D03*
G04 #@! TD*
D18*
G04 #@! TO.C,C38*
X144000000Y-127050000D03*
X144000000Y-128950000D03*
G04 #@! TD*
D36*
G04 #@! TO.C,Y2*
X147800000Y-94375000D03*
X147800000Y-97125000D03*
X150000000Y-97125000D03*
X150000000Y-94375000D03*
G04 #@! TD*
D26*
G04 #@! TO.C,R15*
X102087500Y-78000000D03*
X103912500Y-78000000D03*
G04 #@! TD*
D14*
G04 #@! TO.C,C30*
X135500000Y-98450000D03*
X135500000Y-96550000D03*
G04 #@! TD*
D18*
G04 #@! TO.C,C12*
X168900000Y-82900000D03*
X168900000Y-84800000D03*
G04 #@! TD*
D12*
G04 #@! TO.C,C28*
X118050000Y-73500000D03*
X119950000Y-73500000D03*
G04 #@! TD*
G04 #@! TO.C,C21*
X101775000Y-62500000D03*
X103675000Y-62500000D03*
G04 #@! TD*
D13*
G04 #@! TO.C,R23*
X133000000Y-92000000D03*
X133000000Y-90175000D03*
G04 #@! TD*
D12*
G04 #@! TO.C,C16*
X128550000Y-126500000D03*
X130450000Y-126500000D03*
G04 #@! TD*
D19*
G04 #@! TO.C,C17*
X131950000Y-122000000D03*
X130050000Y-122000000D03*
G04 #@! TD*
D26*
G04 #@! TO.C,R13*
X120087500Y-84000000D03*
X121912500Y-84000000D03*
G04 #@! TD*
D29*
G04 #@! TO.C,R20*
X151912500Y-120000000D03*
X150087500Y-120000000D03*
G04 #@! TD*
D10*
G04 #@! TO.C,R7*
X160000000Y-61087500D03*
X160000000Y-62912500D03*
G04 #@! TD*
D26*
G04 #@! TO.C,R16*
X107087500Y-78000000D03*
X108912500Y-78000000D03*
G04 #@! TD*
D18*
G04 #@! TO.C,C11*
X152900000Y-96700000D03*
X152900000Y-98600000D03*
G04 #@! TD*
D19*
G04 #@! TO.C,C22*
X120000000Y-63000000D03*
X118100000Y-63000000D03*
G04 #@! TD*
D13*
G04 #@! TO.C,R9*
X117500000Y-126912500D03*
X117500000Y-125087500D03*
G04 #@! TD*
D18*
G04 #@! TO.C,C14*
X153100000Y-89100000D03*
X153100000Y-91000000D03*
G04 #@! TD*
D12*
G04 #@! TO.C,C25*
X107050000Y-75000000D03*
X108950000Y-75000000D03*
G04 #@! TD*
D18*
G04 #@! TO.C,C36*
X112000000Y-98050000D03*
X112000000Y-99950000D03*
G04 #@! TD*
M02*
