%TF.GenerationSoftware,KiCad,Pcbnew,8.0.1-rc1*%
%TF.CreationDate,2024-05-12T14:15:15-04:00*%
%TF.ProjectId,STM32_Play_Board,53544d33-325f-4506-9c61-795f426f6172,rev?*%
%TF.SameCoordinates,Original*%
%TF.FileFunction,Drillmap*%
%TF.FilePolarity,Positive*%
%FSLAX45Y45*%
G04 Gerber Fmt 4.5, Leading zero omitted, Abs format (unit mm)*
G04 Created by KiCad (PCBNEW 8.0.1-rc1) date 2024-05-12 14:15:15*
%MOMM*%
%LPD*%
G01*
G04 APERTURE LIST*
%ADD10C,0.050000*%
%ADD11C,0.200000*%
%ADD12C,0.100000*%
%ADD13C,0.320000*%
G04 APERTURE END LIST*
D10*
X8500000Y-4500000D02*
X8500000Y-13030000D01*
X18850000Y-10200000D02*
X18850000Y-4300000D01*
X18850000Y-10200000D02*
G75*
G02*
X18625193Y-10398456I-200000J0D01*
G01*
X18400000Y-13030000D02*
X18400000Y-10600000D01*
X18600000Y-10400000D02*
X18625193Y-10398456D01*
X13050000Y-4300000D02*
G75*
G02*
X13250000Y-4100000I200000J0D01*
G01*
X8700000Y-13230000D02*
G75*
G02*
X8500000Y-13030000I0J200000D01*
G01*
X18650000Y-4100000D02*
G75*
G02*
X18850000Y-4300000I0J-200000D01*
G01*
X18400000Y-13030000D02*
G75*
G02*
X18200000Y-13230000I-200000J0D01*
G01*
X13050000Y-4300000D02*
X8700000Y-4300000D01*
X8500000Y-4500000D02*
G75*
G02*
X8700000Y-4300000I200000J0D01*
G01*
X8700000Y-13230000D02*
X18200000Y-13230000D01*
X18650000Y-4100000D02*
X13250000Y-4100000D01*
X18400000Y-10600000D02*
G75*
G02*
X18600000Y-10400000I200000J0D01*
G01*
D11*
D12*
X17404500Y-10730500D02*
X17484500Y-10810500D01*
X17484500Y-10730500D02*
X17404500Y-10810500D01*
X17404500Y-11230500D02*
X17484500Y-11310500D01*
X17484500Y-11230500D02*
X17404500Y-11310500D01*
D13*
X9160000Y-4830000D02*
G75*
G02*
X8840000Y-4830000I-160000J0D01*
G01*
X8840000Y-4830000D02*
G75*
G02*
X9160000Y-4830000I160000J0D01*
G01*
X9260000Y-12330000D02*
G75*
G02*
X8940000Y-12330000I-160000J0D01*
G01*
X8940000Y-12330000D02*
G75*
G02*
X9260000Y-12330000I160000J0D01*
G01*
X17660000Y-12300000D02*
G75*
G02*
X17340000Y-12300000I-160000J0D01*
G01*
X17340000Y-12300000D02*
G75*
G02*
X17660000Y-12300000I160000J0D01*
G01*
X18060000Y-5000000D02*
G75*
G02*
X17740000Y-5000000I-160000J0D01*
G01*
X17740000Y-5000000D02*
G75*
G02*
X18060000Y-5000000I160000J0D01*
G01*
D11*
X8758277Y-13543984D02*
X8758277Y-13343984D01*
X8758277Y-13343984D02*
X8805896Y-13343984D01*
X8805896Y-13343984D02*
X8834467Y-13353508D01*
X8834467Y-13353508D02*
X8853515Y-13372555D01*
X8853515Y-13372555D02*
X8863039Y-13391603D01*
X8863039Y-13391603D02*
X8872563Y-13429698D01*
X8872563Y-13429698D02*
X8872563Y-13458269D01*
X8872563Y-13458269D02*
X8863039Y-13496365D01*
X8863039Y-13496365D02*
X8853515Y-13515412D01*
X8853515Y-13515412D02*
X8834467Y-13534460D01*
X8834467Y-13534460D02*
X8805896Y-13543984D01*
X8805896Y-13543984D02*
X8758277Y-13543984D01*
X8958277Y-13543984D02*
X8958277Y-13410650D01*
X8958277Y-13448746D02*
X8967801Y-13429698D01*
X8967801Y-13429698D02*
X8977324Y-13420174D01*
X8977324Y-13420174D02*
X8996372Y-13410650D01*
X8996372Y-13410650D02*
X9015420Y-13410650D01*
X9082086Y-13543984D02*
X9082086Y-13410650D01*
X9082086Y-13343984D02*
X9072563Y-13353508D01*
X9072563Y-13353508D02*
X9082086Y-13363031D01*
X9082086Y-13363031D02*
X9091610Y-13353508D01*
X9091610Y-13353508D02*
X9082086Y-13343984D01*
X9082086Y-13343984D02*
X9082086Y-13363031D01*
X9205896Y-13543984D02*
X9186848Y-13534460D01*
X9186848Y-13534460D02*
X9177324Y-13515412D01*
X9177324Y-13515412D02*
X9177324Y-13343984D01*
X9310658Y-13543984D02*
X9291610Y-13534460D01*
X9291610Y-13534460D02*
X9282086Y-13515412D01*
X9282086Y-13515412D02*
X9282086Y-13343984D01*
X9539229Y-13543984D02*
X9539229Y-13343984D01*
X9539229Y-13343984D02*
X9605896Y-13486841D01*
X9605896Y-13486841D02*
X9672563Y-13343984D01*
X9672563Y-13343984D02*
X9672563Y-13543984D01*
X9853515Y-13543984D02*
X9853515Y-13439222D01*
X9853515Y-13439222D02*
X9843991Y-13420174D01*
X9843991Y-13420174D02*
X9824944Y-13410650D01*
X9824944Y-13410650D02*
X9786848Y-13410650D01*
X9786848Y-13410650D02*
X9767801Y-13420174D01*
X9853515Y-13534460D02*
X9834467Y-13543984D01*
X9834467Y-13543984D02*
X9786848Y-13543984D01*
X9786848Y-13543984D02*
X9767801Y-13534460D01*
X9767801Y-13534460D02*
X9758277Y-13515412D01*
X9758277Y-13515412D02*
X9758277Y-13496365D01*
X9758277Y-13496365D02*
X9767801Y-13477317D01*
X9767801Y-13477317D02*
X9786848Y-13467793D01*
X9786848Y-13467793D02*
X9834467Y-13467793D01*
X9834467Y-13467793D02*
X9853515Y-13458269D01*
X9948753Y-13410650D02*
X9948753Y-13610650D01*
X9948753Y-13420174D02*
X9967801Y-13410650D01*
X9967801Y-13410650D02*
X10005896Y-13410650D01*
X10005896Y-13410650D02*
X10024944Y-13420174D01*
X10024944Y-13420174D02*
X10034467Y-13429698D01*
X10034467Y-13429698D02*
X10043991Y-13448746D01*
X10043991Y-13448746D02*
X10043991Y-13505888D01*
X10043991Y-13505888D02*
X10034467Y-13524936D01*
X10034467Y-13524936D02*
X10024944Y-13534460D01*
X10024944Y-13534460D02*
X10005896Y-13543984D01*
X10005896Y-13543984D02*
X9967801Y-13543984D01*
X9967801Y-13543984D02*
X9948753Y-13534460D01*
X10129705Y-13524936D02*
X10139229Y-13534460D01*
X10139229Y-13534460D02*
X10129705Y-13543984D01*
X10129705Y-13543984D02*
X10120182Y-13534460D01*
X10120182Y-13534460D02*
X10129705Y-13524936D01*
X10129705Y-13524936D02*
X10129705Y-13543984D01*
X10129705Y-13420174D02*
X10139229Y-13429698D01*
X10139229Y-13429698D02*
X10129705Y-13439222D01*
X10129705Y-13439222D02*
X10120182Y-13429698D01*
X10120182Y-13429698D02*
X10129705Y-13420174D01*
X10129705Y-13420174D02*
X10129705Y-13439222D01*
D12*
X8417500Y-13832500D02*
X8497500Y-13912500D01*
X8497500Y-13832500D02*
X8417500Y-13912500D01*
D11*
X8796372Y-13763984D02*
X8815420Y-13763984D01*
X8815420Y-13763984D02*
X8834467Y-13773508D01*
X8834467Y-13773508D02*
X8843991Y-13783031D01*
X8843991Y-13783031D02*
X8853515Y-13802079D01*
X8853515Y-13802079D02*
X8863039Y-13840174D01*
X8863039Y-13840174D02*
X8863039Y-13887793D01*
X8863039Y-13887793D02*
X8853515Y-13925888D01*
X8853515Y-13925888D02*
X8843991Y-13944936D01*
X8843991Y-13944936D02*
X8834467Y-13954460D01*
X8834467Y-13954460D02*
X8815420Y-13963984D01*
X8815420Y-13963984D02*
X8796372Y-13963984D01*
X8796372Y-13963984D02*
X8777324Y-13954460D01*
X8777324Y-13954460D02*
X8767801Y-13944936D01*
X8767801Y-13944936D02*
X8758277Y-13925888D01*
X8758277Y-13925888D02*
X8748753Y-13887793D01*
X8748753Y-13887793D02*
X8748753Y-13840174D01*
X8748753Y-13840174D02*
X8758277Y-13802079D01*
X8758277Y-13802079D02*
X8767801Y-13783031D01*
X8767801Y-13783031D02*
X8777324Y-13773508D01*
X8777324Y-13773508D02*
X8796372Y-13763984D01*
X8948753Y-13944936D02*
X8958277Y-13954460D01*
X8958277Y-13954460D02*
X8948753Y-13963984D01*
X8948753Y-13963984D02*
X8939229Y-13954460D01*
X8939229Y-13954460D02*
X8948753Y-13944936D01*
X8948753Y-13944936D02*
X8948753Y-13963984D01*
X9072563Y-13849698D02*
X9053515Y-13840174D01*
X9053515Y-13840174D02*
X9043991Y-13830650D01*
X9043991Y-13830650D02*
X9034467Y-13811603D01*
X9034467Y-13811603D02*
X9034467Y-13802079D01*
X9034467Y-13802079D02*
X9043991Y-13783031D01*
X9043991Y-13783031D02*
X9053515Y-13773508D01*
X9053515Y-13773508D02*
X9072563Y-13763984D01*
X9072563Y-13763984D02*
X9110658Y-13763984D01*
X9110658Y-13763984D02*
X9129705Y-13773508D01*
X9129705Y-13773508D02*
X9139229Y-13783031D01*
X9139229Y-13783031D02*
X9148753Y-13802079D01*
X9148753Y-13802079D02*
X9148753Y-13811603D01*
X9148753Y-13811603D02*
X9139229Y-13830650D01*
X9139229Y-13830650D02*
X9129705Y-13840174D01*
X9129705Y-13840174D02*
X9110658Y-13849698D01*
X9110658Y-13849698D02*
X9072563Y-13849698D01*
X9072563Y-13849698D02*
X9053515Y-13859222D01*
X9053515Y-13859222D02*
X9043991Y-13868746D01*
X9043991Y-13868746D02*
X9034467Y-13887793D01*
X9034467Y-13887793D02*
X9034467Y-13925888D01*
X9034467Y-13925888D02*
X9043991Y-13944936D01*
X9043991Y-13944936D02*
X9053515Y-13954460D01*
X9053515Y-13954460D02*
X9072563Y-13963984D01*
X9072563Y-13963984D02*
X9110658Y-13963984D01*
X9110658Y-13963984D02*
X9129705Y-13954460D01*
X9129705Y-13954460D02*
X9139229Y-13944936D01*
X9139229Y-13944936D02*
X9148753Y-13925888D01*
X9148753Y-13925888D02*
X9148753Y-13887793D01*
X9148753Y-13887793D02*
X9139229Y-13868746D01*
X9139229Y-13868746D02*
X9129705Y-13859222D01*
X9129705Y-13859222D02*
X9110658Y-13849698D01*
X9272563Y-13763984D02*
X9291610Y-13763984D01*
X9291610Y-13763984D02*
X9310658Y-13773508D01*
X9310658Y-13773508D02*
X9320182Y-13783031D01*
X9320182Y-13783031D02*
X9329705Y-13802079D01*
X9329705Y-13802079D02*
X9339229Y-13840174D01*
X9339229Y-13840174D02*
X9339229Y-13887793D01*
X9339229Y-13887793D02*
X9329705Y-13925888D01*
X9329705Y-13925888D02*
X9320182Y-13944936D01*
X9320182Y-13944936D02*
X9310658Y-13954460D01*
X9310658Y-13954460D02*
X9291610Y-13963984D01*
X9291610Y-13963984D02*
X9272563Y-13963984D01*
X9272563Y-13963984D02*
X9253515Y-13954460D01*
X9253515Y-13954460D02*
X9243991Y-13944936D01*
X9243991Y-13944936D02*
X9234467Y-13925888D01*
X9234467Y-13925888D02*
X9224944Y-13887793D01*
X9224944Y-13887793D02*
X9224944Y-13840174D01*
X9224944Y-13840174D02*
X9234467Y-13802079D01*
X9234467Y-13802079D02*
X9243991Y-13783031D01*
X9243991Y-13783031D02*
X9253515Y-13773508D01*
X9253515Y-13773508D02*
X9272563Y-13763984D01*
X9463039Y-13763984D02*
X9482086Y-13763984D01*
X9482086Y-13763984D02*
X9501134Y-13773508D01*
X9501134Y-13773508D02*
X9510658Y-13783031D01*
X9510658Y-13783031D02*
X9520182Y-13802079D01*
X9520182Y-13802079D02*
X9529705Y-13840174D01*
X9529705Y-13840174D02*
X9529705Y-13887793D01*
X9529705Y-13887793D02*
X9520182Y-13925888D01*
X9520182Y-13925888D02*
X9510658Y-13944936D01*
X9510658Y-13944936D02*
X9501134Y-13954460D01*
X9501134Y-13954460D02*
X9482086Y-13963984D01*
X9482086Y-13963984D02*
X9463039Y-13963984D01*
X9463039Y-13963984D02*
X9443991Y-13954460D01*
X9443991Y-13954460D02*
X9434467Y-13944936D01*
X9434467Y-13944936D02*
X9424944Y-13925888D01*
X9424944Y-13925888D02*
X9415420Y-13887793D01*
X9415420Y-13887793D02*
X9415420Y-13840174D01*
X9415420Y-13840174D02*
X9424944Y-13802079D01*
X9424944Y-13802079D02*
X9434467Y-13783031D01*
X9434467Y-13783031D02*
X9443991Y-13773508D01*
X9443991Y-13773508D02*
X9463039Y-13763984D01*
X9615420Y-13963984D02*
X9615420Y-13830650D01*
X9615420Y-13849698D02*
X9624944Y-13840174D01*
X9624944Y-13840174D02*
X9643991Y-13830650D01*
X9643991Y-13830650D02*
X9672563Y-13830650D01*
X9672563Y-13830650D02*
X9691610Y-13840174D01*
X9691610Y-13840174D02*
X9701134Y-13859222D01*
X9701134Y-13859222D02*
X9701134Y-13963984D01*
X9701134Y-13859222D02*
X9710658Y-13840174D01*
X9710658Y-13840174D02*
X9729705Y-13830650D01*
X9729705Y-13830650D02*
X9758277Y-13830650D01*
X9758277Y-13830650D02*
X9777325Y-13840174D01*
X9777325Y-13840174D02*
X9786848Y-13859222D01*
X9786848Y-13859222D02*
X9786848Y-13963984D01*
X9882086Y-13963984D02*
X9882086Y-13830650D01*
X9882086Y-13849698D02*
X9891610Y-13840174D01*
X9891610Y-13840174D02*
X9910658Y-13830650D01*
X9910658Y-13830650D02*
X9939229Y-13830650D01*
X9939229Y-13830650D02*
X9958277Y-13840174D01*
X9958277Y-13840174D02*
X9967801Y-13859222D01*
X9967801Y-13859222D02*
X9967801Y-13963984D01*
X9967801Y-13859222D02*
X9977325Y-13840174D01*
X9977325Y-13840174D02*
X9996372Y-13830650D01*
X9996372Y-13830650D02*
X10024944Y-13830650D01*
X10024944Y-13830650D02*
X10043991Y-13840174D01*
X10043991Y-13840174D02*
X10053515Y-13859222D01*
X10053515Y-13859222D02*
X10053515Y-13963984D01*
X10443991Y-13754460D02*
X10272563Y-14011603D01*
X10701134Y-13763984D02*
X10720182Y-13763984D01*
X10720182Y-13763984D02*
X10739229Y-13773508D01*
X10739229Y-13773508D02*
X10748753Y-13783031D01*
X10748753Y-13783031D02*
X10758277Y-13802079D01*
X10758277Y-13802079D02*
X10767801Y-13840174D01*
X10767801Y-13840174D02*
X10767801Y-13887793D01*
X10767801Y-13887793D02*
X10758277Y-13925888D01*
X10758277Y-13925888D02*
X10748753Y-13944936D01*
X10748753Y-13944936D02*
X10739229Y-13954460D01*
X10739229Y-13954460D02*
X10720182Y-13963984D01*
X10720182Y-13963984D02*
X10701134Y-13963984D01*
X10701134Y-13963984D02*
X10682087Y-13954460D01*
X10682087Y-13954460D02*
X10672563Y-13944936D01*
X10672563Y-13944936D02*
X10663039Y-13925888D01*
X10663039Y-13925888D02*
X10653515Y-13887793D01*
X10653515Y-13887793D02*
X10653515Y-13840174D01*
X10653515Y-13840174D02*
X10663039Y-13802079D01*
X10663039Y-13802079D02*
X10672563Y-13783031D01*
X10672563Y-13783031D02*
X10682087Y-13773508D01*
X10682087Y-13773508D02*
X10701134Y-13763984D01*
X10853515Y-13944936D02*
X10863039Y-13954460D01*
X10863039Y-13954460D02*
X10853515Y-13963984D01*
X10853515Y-13963984D02*
X10843991Y-13954460D01*
X10843991Y-13954460D02*
X10853515Y-13944936D01*
X10853515Y-13944936D02*
X10853515Y-13963984D01*
X10986848Y-13763984D02*
X11005896Y-13763984D01*
X11005896Y-13763984D02*
X11024944Y-13773508D01*
X11024944Y-13773508D02*
X11034468Y-13783031D01*
X11034468Y-13783031D02*
X11043991Y-13802079D01*
X11043991Y-13802079D02*
X11053515Y-13840174D01*
X11053515Y-13840174D02*
X11053515Y-13887793D01*
X11053515Y-13887793D02*
X11043991Y-13925888D01*
X11043991Y-13925888D02*
X11034468Y-13944936D01*
X11034468Y-13944936D02*
X11024944Y-13954460D01*
X11024944Y-13954460D02*
X11005896Y-13963984D01*
X11005896Y-13963984D02*
X10986848Y-13963984D01*
X10986848Y-13963984D02*
X10967801Y-13954460D01*
X10967801Y-13954460D02*
X10958277Y-13944936D01*
X10958277Y-13944936D02*
X10948753Y-13925888D01*
X10948753Y-13925888D02*
X10939229Y-13887793D01*
X10939229Y-13887793D02*
X10939229Y-13840174D01*
X10939229Y-13840174D02*
X10948753Y-13802079D01*
X10948753Y-13802079D02*
X10958277Y-13783031D01*
X10958277Y-13783031D02*
X10967801Y-13773508D01*
X10967801Y-13773508D02*
X10986848Y-13763984D01*
X11120182Y-13763984D02*
X11243991Y-13763984D01*
X11243991Y-13763984D02*
X11177325Y-13840174D01*
X11177325Y-13840174D02*
X11205896Y-13840174D01*
X11205896Y-13840174D02*
X11224944Y-13849698D01*
X11224944Y-13849698D02*
X11234467Y-13859222D01*
X11234467Y-13859222D02*
X11243991Y-13878269D01*
X11243991Y-13878269D02*
X11243991Y-13925888D01*
X11243991Y-13925888D02*
X11234467Y-13944936D01*
X11234467Y-13944936D02*
X11224944Y-13954460D01*
X11224944Y-13954460D02*
X11205896Y-13963984D01*
X11205896Y-13963984D02*
X11148753Y-13963984D01*
X11148753Y-13963984D02*
X11129706Y-13954460D01*
X11129706Y-13954460D02*
X11120182Y-13944936D01*
X11434467Y-13963984D02*
X11320182Y-13963984D01*
X11377325Y-13963984D02*
X11377325Y-13763984D01*
X11377325Y-13763984D02*
X11358277Y-13792555D01*
X11358277Y-13792555D02*
X11339229Y-13811603D01*
X11339229Y-13811603D02*
X11320182Y-13821127D01*
X11615420Y-13763984D02*
X11520182Y-13763984D01*
X11520182Y-13763984D02*
X11510658Y-13859222D01*
X11510658Y-13859222D02*
X11520182Y-13849698D01*
X11520182Y-13849698D02*
X11539229Y-13840174D01*
X11539229Y-13840174D02*
X11586848Y-13840174D01*
X11586848Y-13840174D02*
X11605896Y-13849698D01*
X11605896Y-13849698D02*
X11615420Y-13859222D01*
X11615420Y-13859222D02*
X11624944Y-13878269D01*
X11624944Y-13878269D02*
X11624944Y-13925888D01*
X11624944Y-13925888D02*
X11615420Y-13944936D01*
X11615420Y-13944936D02*
X11605896Y-13954460D01*
X11605896Y-13954460D02*
X11586848Y-13963984D01*
X11586848Y-13963984D02*
X11539229Y-13963984D01*
X11539229Y-13963984D02*
X11520182Y-13954460D01*
X11520182Y-13954460D02*
X11510658Y-13944936D01*
X11701134Y-13763984D02*
X11701134Y-13802079D01*
X11777325Y-13763984D02*
X11777325Y-13802079D01*
X12072563Y-14040174D02*
X12063039Y-14030650D01*
X12063039Y-14030650D02*
X12043991Y-14002079D01*
X12043991Y-14002079D02*
X12034468Y-13983031D01*
X12034468Y-13983031D02*
X12024944Y-13954460D01*
X12024944Y-13954460D02*
X12015420Y-13906841D01*
X12015420Y-13906841D02*
X12015420Y-13868746D01*
X12015420Y-13868746D02*
X12024944Y-13821127D01*
X12024944Y-13821127D02*
X12034468Y-13792555D01*
X12034468Y-13792555D02*
X12043991Y-13773508D01*
X12043991Y-13773508D02*
X12063039Y-13744936D01*
X12063039Y-13744936D02*
X12072563Y-13735412D01*
X12139229Y-13783031D02*
X12148753Y-13773508D01*
X12148753Y-13773508D02*
X12167801Y-13763984D01*
X12167801Y-13763984D02*
X12215420Y-13763984D01*
X12215420Y-13763984D02*
X12234468Y-13773508D01*
X12234468Y-13773508D02*
X12243991Y-13783031D01*
X12243991Y-13783031D02*
X12253515Y-13802079D01*
X12253515Y-13802079D02*
X12253515Y-13821127D01*
X12253515Y-13821127D02*
X12243991Y-13849698D01*
X12243991Y-13849698D02*
X12129706Y-13963984D01*
X12129706Y-13963984D02*
X12253515Y-13963984D01*
X12491610Y-13963984D02*
X12491610Y-13763984D01*
X12577325Y-13963984D02*
X12577325Y-13859222D01*
X12577325Y-13859222D02*
X12567801Y-13840174D01*
X12567801Y-13840174D02*
X12548753Y-13830650D01*
X12548753Y-13830650D02*
X12520182Y-13830650D01*
X12520182Y-13830650D02*
X12501134Y-13840174D01*
X12501134Y-13840174D02*
X12491610Y-13849698D01*
X12701134Y-13963984D02*
X12682087Y-13954460D01*
X12682087Y-13954460D02*
X12672563Y-13944936D01*
X12672563Y-13944936D02*
X12663039Y-13925888D01*
X12663039Y-13925888D02*
X12663039Y-13868746D01*
X12663039Y-13868746D02*
X12672563Y-13849698D01*
X12672563Y-13849698D02*
X12682087Y-13840174D01*
X12682087Y-13840174D02*
X12701134Y-13830650D01*
X12701134Y-13830650D02*
X12729706Y-13830650D01*
X12729706Y-13830650D02*
X12748753Y-13840174D01*
X12748753Y-13840174D02*
X12758277Y-13849698D01*
X12758277Y-13849698D02*
X12767801Y-13868746D01*
X12767801Y-13868746D02*
X12767801Y-13925888D01*
X12767801Y-13925888D02*
X12758277Y-13944936D01*
X12758277Y-13944936D02*
X12748753Y-13954460D01*
X12748753Y-13954460D02*
X12729706Y-13963984D01*
X12729706Y-13963984D02*
X12701134Y-13963984D01*
X12882087Y-13963984D02*
X12863039Y-13954460D01*
X12863039Y-13954460D02*
X12853515Y-13935412D01*
X12853515Y-13935412D02*
X12853515Y-13763984D01*
X13034468Y-13954460D02*
X13015420Y-13963984D01*
X13015420Y-13963984D02*
X12977325Y-13963984D01*
X12977325Y-13963984D02*
X12958277Y-13954460D01*
X12958277Y-13954460D02*
X12948753Y-13935412D01*
X12948753Y-13935412D02*
X12948753Y-13859222D01*
X12948753Y-13859222D02*
X12958277Y-13840174D01*
X12958277Y-13840174D02*
X12977325Y-13830650D01*
X12977325Y-13830650D02*
X13015420Y-13830650D01*
X13015420Y-13830650D02*
X13034468Y-13840174D01*
X13034468Y-13840174D02*
X13043991Y-13859222D01*
X13043991Y-13859222D02*
X13043991Y-13878269D01*
X13043991Y-13878269D02*
X12948753Y-13897317D01*
X13120182Y-13954460D02*
X13139230Y-13963984D01*
X13139230Y-13963984D02*
X13177325Y-13963984D01*
X13177325Y-13963984D02*
X13196372Y-13954460D01*
X13196372Y-13954460D02*
X13205896Y-13935412D01*
X13205896Y-13935412D02*
X13205896Y-13925888D01*
X13205896Y-13925888D02*
X13196372Y-13906841D01*
X13196372Y-13906841D02*
X13177325Y-13897317D01*
X13177325Y-13897317D02*
X13148753Y-13897317D01*
X13148753Y-13897317D02*
X13129706Y-13887793D01*
X13129706Y-13887793D02*
X13120182Y-13868746D01*
X13120182Y-13868746D02*
X13120182Y-13859222D01*
X13120182Y-13859222D02*
X13129706Y-13840174D01*
X13129706Y-13840174D02*
X13148753Y-13830650D01*
X13148753Y-13830650D02*
X13177325Y-13830650D01*
X13177325Y-13830650D02*
X13196372Y-13840174D01*
X13272563Y-14040174D02*
X13282087Y-14030650D01*
X13282087Y-14030650D02*
X13301134Y-14002079D01*
X13301134Y-14002079D02*
X13310658Y-13983031D01*
X13310658Y-13983031D02*
X13320182Y-13954460D01*
X13320182Y-13954460D02*
X13329706Y-13906841D01*
X13329706Y-13906841D02*
X13329706Y-13868746D01*
X13329706Y-13868746D02*
X13320182Y-13821127D01*
X13320182Y-13821127D02*
X13310658Y-13792555D01*
X13310658Y-13792555D02*
X13301134Y-13773508D01*
X13301134Y-13773508D02*
X13282087Y-13744936D01*
X13282087Y-13744936D02*
X13272563Y-13735412D01*
X13634468Y-14040174D02*
X13624944Y-14030650D01*
X13624944Y-14030650D02*
X13605896Y-14002079D01*
X13605896Y-14002079D02*
X13596372Y-13983031D01*
X13596372Y-13983031D02*
X13586849Y-13954460D01*
X13586849Y-13954460D02*
X13577325Y-13906841D01*
X13577325Y-13906841D02*
X13577325Y-13868746D01*
X13577325Y-13868746D02*
X13586849Y-13821127D01*
X13586849Y-13821127D02*
X13596372Y-13792555D01*
X13596372Y-13792555D02*
X13605896Y-13773508D01*
X13605896Y-13773508D02*
X13624944Y-13744936D01*
X13624944Y-13744936D02*
X13634468Y-13735412D01*
X13710658Y-13830650D02*
X13710658Y-13963984D01*
X13710658Y-13849698D02*
X13720182Y-13840174D01*
X13720182Y-13840174D02*
X13739230Y-13830650D01*
X13739230Y-13830650D02*
X13767801Y-13830650D01*
X13767801Y-13830650D02*
X13786849Y-13840174D01*
X13786849Y-13840174D02*
X13796372Y-13859222D01*
X13796372Y-13859222D02*
X13796372Y-13963984D01*
X13920182Y-13963984D02*
X13901134Y-13954460D01*
X13901134Y-13954460D02*
X13891611Y-13944936D01*
X13891611Y-13944936D02*
X13882087Y-13925888D01*
X13882087Y-13925888D02*
X13882087Y-13868746D01*
X13882087Y-13868746D02*
X13891611Y-13849698D01*
X13891611Y-13849698D02*
X13901134Y-13840174D01*
X13901134Y-13840174D02*
X13920182Y-13830650D01*
X13920182Y-13830650D02*
X13948753Y-13830650D01*
X13948753Y-13830650D02*
X13967801Y-13840174D01*
X13967801Y-13840174D02*
X13977325Y-13849698D01*
X13977325Y-13849698D02*
X13986849Y-13868746D01*
X13986849Y-13868746D02*
X13986849Y-13925888D01*
X13986849Y-13925888D02*
X13977325Y-13944936D01*
X13977325Y-13944936D02*
X13967801Y-13954460D01*
X13967801Y-13954460D02*
X13948753Y-13963984D01*
X13948753Y-13963984D02*
X13920182Y-13963984D01*
X14043992Y-13830650D02*
X14120182Y-13830650D01*
X14072563Y-13763984D02*
X14072563Y-13935412D01*
X14072563Y-13935412D02*
X14082087Y-13954460D01*
X14082087Y-13954460D02*
X14101134Y-13963984D01*
X14101134Y-13963984D02*
X14120182Y-13963984D01*
X14339230Y-13830650D02*
X14339230Y-14030650D01*
X14339230Y-13840174D02*
X14358277Y-13830650D01*
X14358277Y-13830650D02*
X14396373Y-13830650D01*
X14396373Y-13830650D02*
X14415420Y-13840174D01*
X14415420Y-13840174D02*
X14424944Y-13849698D01*
X14424944Y-13849698D02*
X14434468Y-13868746D01*
X14434468Y-13868746D02*
X14434468Y-13925888D01*
X14434468Y-13925888D02*
X14424944Y-13944936D01*
X14424944Y-13944936D02*
X14415420Y-13954460D01*
X14415420Y-13954460D02*
X14396373Y-13963984D01*
X14396373Y-13963984D02*
X14358277Y-13963984D01*
X14358277Y-13963984D02*
X14339230Y-13954460D01*
X14548753Y-13963984D02*
X14529706Y-13954460D01*
X14529706Y-13954460D02*
X14520182Y-13935412D01*
X14520182Y-13935412D02*
X14520182Y-13763984D01*
X14710658Y-13963984D02*
X14710658Y-13859222D01*
X14710658Y-13859222D02*
X14701134Y-13840174D01*
X14701134Y-13840174D02*
X14682087Y-13830650D01*
X14682087Y-13830650D02*
X14643992Y-13830650D01*
X14643992Y-13830650D02*
X14624944Y-13840174D01*
X14710658Y-13954460D02*
X14691611Y-13963984D01*
X14691611Y-13963984D02*
X14643992Y-13963984D01*
X14643992Y-13963984D02*
X14624944Y-13954460D01*
X14624944Y-13954460D02*
X14615420Y-13935412D01*
X14615420Y-13935412D02*
X14615420Y-13916365D01*
X14615420Y-13916365D02*
X14624944Y-13897317D01*
X14624944Y-13897317D02*
X14643992Y-13887793D01*
X14643992Y-13887793D02*
X14691611Y-13887793D01*
X14691611Y-13887793D02*
X14710658Y-13878269D01*
X14777325Y-13830650D02*
X14853515Y-13830650D01*
X14805896Y-13763984D02*
X14805896Y-13935412D01*
X14805896Y-13935412D02*
X14815420Y-13954460D01*
X14815420Y-13954460D02*
X14834468Y-13963984D01*
X14834468Y-13963984D02*
X14853515Y-13963984D01*
X14996373Y-13954460D02*
X14977325Y-13963984D01*
X14977325Y-13963984D02*
X14939230Y-13963984D01*
X14939230Y-13963984D02*
X14920182Y-13954460D01*
X14920182Y-13954460D02*
X14910658Y-13935412D01*
X14910658Y-13935412D02*
X14910658Y-13859222D01*
X14910658Y-13859222D02*
X14920182Y-13840174D01*
X14920182Y-13840174D02*
X14939230Y-13830650D01*
X14939230Y-13830650D02*
X14977325Y-13830650D01*
X14977325Y-13830650D02*
X14996373Y-13840174D01*
X14996373Y-13840174D02*
X15005896Y-13859222D01*
X15005896Y-13859222D02*
X15005896Y-13878269D01*
X15005896Y-13878269D02*
X14910658Y-13897317D01*
X15177325Y-13963984D02*
X15177325Y-13763984D01*
X15177325Y-13954460D02*
X15158277Y-13963984D01*
X15158277Y-13963984D02*
X15120182Y-13963984D01*
X15120182Y-13963984D02*
X15101134Y-13954460D01*
X15101134Y-13954460D02*
X15091611Y-13944936D01*
X15091611Y-13944936D02*
X15082087Y-13925888D01*
X15082087Y-13925888D02*
X15082087Y-13868746D01*
X15082087Y-13868746D02*
X15091611Y-13849698D01*
X15091611Y-13849698D02*
X15101134Y-13840174D01*
X15101134Y-13840174D02*
X15120182Y-13830650D01*
X15120182Y-13830650D02*
X15158277Y-13830650D01*
X15158277Y-13830650D02*
X15177325Y-13840174D01*
X15253515Y-14040174D02*
X15263039Y-14030650D01*
X15263039Y-14030650D02*
X15282087Y-14002079D01*
X15282087Y-14002079D02*
X15291611Y-13983031D01*
X15291611Y-13983031D02*
X15301134Y-13954460D01*
X15301134Y-13954460D02*
X15310658Y-13906841D01*
X15310658Y-13906841D02*
X15310658Y-13868746D01*
X15310658Y-13868746D02*
X15301134Y-13821127D01*
X15301134Y-13821127D02*
X15291611Y-13792555D01*
X15291611Y-13792555D02*
X15282087Y-13773508D01*
X15282087Y-13773508D02*
X15263039Y-13744936D01*
X15263039Y-13744936D02*
X15253515Y-13735412D01*
X8497500Y-14136500D02*
G75*
G02*
X8297500Y-14136500I-100000J0D01*
G01*
X8297500Y-14136500D02*
G75*
G02*
X8497500Y-14136500I100000J0D01*
G01*
X8739229Y-14027984D02*
X8863039Y-14027984D01*
X8863039Y-14027984D02*
X8796372Y-14104174D01*
X8796372Y-14104174D02*
X8824944Y-14104174D01*
X8824944Y-14104174D02*
X8843991Y-14113698D01*
X8843991Y-14113698D02*
X8853515Y-14123222D01*
X8853515Y-14123222D02*
X8863039Y-14142269D01*
X8863039Y-14142269D02*
X8863039Y-14189888D01*
X8863039Y-14189888D02*
X8853515Y-14208936D01*
X8853515Y-14208936D02*
X8843991Y-14218460D01*
X8843991Y-14218460D02*
X8824944Y-14227984D01*
X8824944Y-14227984D02*
X8767801Y-14227984D01*
X8767801Y-14227984D02*
X8748753Y-14218460D01*
X8748753Y-14218460D02*
X8739229Y-14208936D01*
X8948753Y-14208936D02*
X8958277Y-14218460D01*
X8958277Y-14218460D02*
X8948753Y-14227984D01*
X8948753Y-14227984D02*
X8939229Y-14218460D01*
X8939229Y-14218460D02*
X8948753Y-14208936D01*
X8948753Y-14208936D02*
X8948753Y-14227984D01*
X9034467Y-14047031D02*
X9043991Y-14037508D01*
X9043991Y-14037508D02*
X9063039Y-14027984D01*
X9063039Y-14027984D02*
X9110658Y-14027984D01*
X9110658Y-14027984D02*
X9129705Y-14037508D01*
X9129705Y-14037508D02*
X9139229Y-14047031D01*
X9139229Y-14047031D02*
X9148753Y-14066079D01*
X9148753Y-14066079D02*
X9148753Y-14085127D01*
X9148753Y-14085127D02*
X9139229Y-14113698D01*
X9139229Y-14113698D02*
X9024944Y-14227984D01*
X9024944Y-14227984D02*
X9148753Y-14227984D01*
X9272563Y-14027984D02*
X9291610Y-14027984D01*
X9291610Y-14027984D02*
X9310658Y-14037508D01*
X9310658Y-14037508D02*
X9320182Y-14047031D01*
X9320182Y-14047031D02*
X9329705Y-14066079D01*
X9329705Y-14066079D02*
X9339229Y-14104174D01*
X9339229Y-14104174D02*
X9339229Y-14151793D01*
X9339229Y-14151793D02*
X9329705Y-14189888D01*
X9329705Y-14189888D02*
X9320182Y-14208936D01*
X9320182Y-14208936D02*
X9310658Y-14218460D01*
X9310658Y-14218460D02*
X9291610Y-14227984D01*
X9291610Y-14227984D02*
X9272563Y-14227984D01*
X9272563Y-14227984D02*
X9253515Y-14218460D01*
X9253515Y-14218460D02*
X9243991Y-14208936D01*
X9243991Y-14208936D02*
X9234467Y-14189888D01*
X9234467Y-14189888D02*
X9224944Y-14151793D01*
X9224944Y-14151793D02*
X9224944Y-14104174D01*
X9224944Y-14104174D02*
X9234467Y-14066079D01*
X9234467Y-14066079D02*
X9243991Y-14047031D01*
X9243991Y-14047031D02*
X9253515Y-14037508D01*
X9253515Y-14037508D02*
X9272563Y-14027984D01*
X9463039Y-14027984D02*
X9482086Y-14027984D01*
X9482086Y-14027984D02*
X9501134Y-14037508D01*
X9501134Y-14037508D02*
X9510658Y-14047031D01*
X9510658Y-14047031D02*
X9520182Y-14066079D01*
X9520182Y-14066079D02*
X9529705Y-14104174D01*
X9529705Y-14104174D02*
X9529705Y-14151793D01*
X9529705Y-14151793D02*
X9520182Y-14189888D01*
X9520182Y-14189888D02*
X9510658Y-14208936D01*
X9510658Y-14208936D02*
X9501134Y-14218460D01*
X9501134Y-14218460D02*
X9482086Y-14227984D01*
X9482086Y-14227984D02*
X9463039Y-14227984D01*
X9463039Y-14227984D02*
X9443991Y-14218460D01*
X9443991Y-14218460D02*
X9434467Y-14208936D01*
X9434467Y-14208936D02*
X9424944Y-14189888D01*
X9424944Y-14189888D02*
X9415420Y-14151793D01*
X9415420Y-14151793D02*
X9415420Y-14104174D01*
X9415420Y-14104174D02*
X9424944Y-14066079D01*
X9424944Y-14066079D02*
X9434467Y-14047031D01*
X9434467Y-14047031D02*
X9443991Y-14037508D01*
X9443991Y-14037508D02*
X9463039Y-14027984D01*
X9615420Y-14227984D02*
X9615420Y-14094650D01*
X9615420Y-14113698D02*
X9624944Y-14104174D01*
X9624944Y-14104174D02*
X9643991Y-14094650D01*
X9643991Y-14094650D02*
X9672563Y-14094650D01*
X9672563Y-14094650D02*
X9691610Y-14104174D01*
X9691610Y-14104174D02*
X9701134Y-14123222D01*
X9701134Y-14123222D02*
X9701134Y-14227984D01*
X9701134Y-14123222D02*
X9710658Y-14104174D01*
X9710658Y-14104174D02*
X9729705Y-14094650D01*
X9729705Y-14094650D02*
X9758277Y-14094650D01*
X9758277Y-14094650D02*
X9777325Y-14104174D01*
X9777325Y-14104174D02*
X9786848Y-14123222D01*
X9786848Y-14123222D02*
X9786848Y-14227984D01*
X9882086Y-14227984D02*
X9882086Y-14094650D01*
X9882086Y-14113698D02*
X9891610Y-14104174D01*
X9891610Y-14104174D02*
X9910658Y-14094650D01*
X9910658Y-14094650D02*
X9939229Y-14094650D01*
X9939229Y-14094650D02*
X9958277Y-14104174D01*
X9958277Y-14104174D02*
X9967801Y-14123222D01*
X9967801Y-14123222D02*
X9967801Y-14227984D01*
X9967801Y-14123222D02*
X9977325Y-14104174D01*
X9977325Y-14104174D02*
X9996372Y-14094650D01*
X9996372Y-14094650D02*
X10024944Y-14094650D01*
X10024944Y-14094650D02*
X10043991Y-14104174D01*
X10043991Y-14104174D02*
X10053515Y-14123222D01*
X10053515Y-14123222D02*
X10053515Y-14227984D01*
X10443991Y-14018460D02*
X10272563Y-14275603D01*
X10701134Y-14027984D02*
X10720182Y-14027984D01*
X10720182Y-14027984D02*
X10739229Y-14037508D01*
X10739229Y-14037508D02*
X10748753Y-14047031D01*
X10748753Y-14047031D02*
X10758277Y-14066079D01*
X10758277Y-14066079D02*
X10767801Y-14104174D01*
X10767801Y-14104174D02*
X10767801Y-14151793D01*
X10767801Y-14151793D02*
X10758277Y-14189888D01*
X10758277Y-14189888D02*
X10748753Y-14208936D01*
X10748753Y-14208936D02*
X10739229Y-14218460D01*
X10739229Y-14218460D02*
X10720182Y-14227984D01*
X10720182Y-14227984D02*
X10701134Y-14227984D01*
X10701134Y-14227984D02*
X10682087Y-14218460D01*
X10682087Y-14218460D02*
X10672563Y-14208936D01*
X10672563Y-14208936D02*
X10663039Y-14189888D01*
X10663039Y-14189888D02*
X10653515Y-14151793D01*
X10653515Y-14151793D02*
X10653515Y-14104174D01*
X10653515Y-14104174D02*
X10663039Y-14066079D01*
X10663039Y-14066079D02*
X10672563Y-14047031D01*
X10672563Y-14047031D02*
X10682087Y-14037508D01*
X10682087Y-14037508D02*
X10701134Y-14027984D01*
X10853515Y-14208936D02*
X10863039Y-14218460D01*
X10863039Y-14218460D02*
X10853515Y-14227984D01*
X10853515Y-14227984D02*
X10843991Y-14218460D01*
X10843991Y-14218460D02*
X10853515Y-14208936D01*
X10853515Y-14208936D02*
X10853515Y-14227984D01*
X11053515Y-14227984D02*
X10939229Y-14227984D01*
X10996372Y-14227984D02*
X10996372Y-14027984D01*
X10996372Y-14027984D02*
X10977325Y-14056555D01*
X10977325Y-14056555D02*
X10958277Y-14075603D01*
X10958277Y-14075603D02*
X10939229Y-14085127D01*
X11129706Y-14047031D02*
X11139229Y-14037508D01*
X11139229Y-14037508D02*
X11158277Y-14027984D01*
X11158277Y-14027984D02*
X11205896Y-14027984D01*
X11205896Y-14027984D02*
X11224944Y-14037508D01*
X11224944Y-14037508D02*
X11234467Y-14047031D01*
X11234467Y-14047031D02*
X11243991Y-14066079D01*
X11243991Y-14066079D02*
X11243991Y-14085127D01*
X11243991Y-14085127D02*
X11234467Y-14113698D01*
X11234467Y-14113698D02*
X11120182Y-14227984D01*
X11120182Y-14227984D02*
X11243991Y-14227984D01*
X11415420Y-14027984D02*
X11377325Y-14027984D01*
X11377325Y-14027984D02*
X11358277Y-14037508D01*
X11358277Y-14037508D02*
X11348753Y-14047031D01*
X11348753Y-14047031D02*
X11329706Y-14075603D01*
X11329706Y-14075603D02*
X11320182Y-14113698D01*
X11320182Y-14113698D02*
X11320182Y-14189888D01*
X11320182Y-14189888D02*
X11329706Y-14208936D01*
X11329706Y-14208936D02*
X11339229Y-14218460D01*
X11339229Y-14218460D02*
X11358277Y-14227984D01*
X11358277Y-14227984D02*
X11396372Y-14227984D01*
X11396372Y-14227984D02*
X11415420Y-14218460D01*
X11415420Y-14218460D02*
X11424944Y-14208936D01*
X11424944Y-14208936D02*
X11434467Y-14189888D01*
X11434467Y-14189888D02*
X11434467Y-14142269D01*
X11434467Y-14142269D02*
X11424944Y-14123222D01*
X11424944Y-14123222D02*
X11415420Y-14113698D01*
X11415420Y-14113698D02*
X11396372Y-14104174D01*
X11396372Y-14104174D02*
X11358277Y-14104174D01*
X11358277Y-14104174D02*
X11339229Y-14113698D01*
X11339229Y-14113698D02*
X11329706Y-14123222D01*
X11329706Y-14123222D02*
X11320182Y-14142269D01*
X11558277Y-14027984D02*
X11577325Y-14027984D01*
X11577325Y-14027984D02*
X11596372Y-14037508D01*
X11596372Y-14037508D02*
X11605896Y-14047031D01*
X11605896Y-14047031D02*
X11615420Y-14066079D01*
X11615420Y-14066079D02*
X11624944Y-14104174D01*
X11624944Y-14104174D02*
X11624944Y-14151793D01*
X11624944Y-14151793D02*
X11615420Y-14189888D01*
X11615420Y-14189888D02*
X11605896Y-14208936D01*
X11605896Y-14208936D02*
X11596372Y-14218460D01*
X11596372Y-14218460D02*
X11577325Y-14227984D01*
X11577325Y-14227984D02*
X11558277Y-14227984D01*
X11558277Y-14227984D02*
X11539229Y-14218460D01*
X11539229Y-14218460D02*
X11529706Y-14208936D01*
X11529706Y-14208936D02*
X11520182Y-14189888D01*
X11520182Y-14189888D02*
X11510658Y-14151793D01*
X11510658Y-14151793D02*
X11510658Y-14104174D01*
X11510658Y-14104174D02*
X11520182Y-14066079D01*
X11520182Y-14066079D02*
X11529706Y-14047031D01*
X11529706Y-14047031D02*
X11539229Y-14037508D01*
X11539229Y-14037508D02*
X11558277Y-14027984D01*
X11701134Y-14027984D02*
X11701134Y-14066079D01*
X11777325Y-14027984D02*
X11777325Y-14066079D01*
X12072563Y-14304174D02*
X12063039Y-14294650D01*
X12063039Y-14294650D02*
X12043991Y-14266079D01*
X12043991Y-14266079D02*
X12034468Y-14247031D01*
X12034468Y-14247031D02*
X12024944Y-14218460D01*
X12024944Y-14218460D02*
X12015420Y-14170841D01*
X12015420Y-14170841D02*
X12015420Y-14132746D01*
X12015420Y-14132746D02*
X12024944Y-14085127D01*
X12024944Y-14085127D02*
X12034468Y-14056555D01*
X12034468Y-14056555D02*
X12043991Y-14037508D01*
X12043991Y-14037508D02*
X12063039Y-14008936D01*
X12063039Y-14008936D02*
X12072563Y-13999412D01*
X12234468Y-14094650D02*
X12234468Y-14227984D01*
X12186848Y-14018460D02*
X12139229Y-14161317D01*
X12139229Y-14161317D02*
X12263039Y-14161317D01*
X12491610Y-14227984D02*
X12491610Y-14027984D01*
X12577325Y-14227984D02*
X12577325Y-14123222D01*
X12577325Y-14123222D02*
X12567801Y-14104174D01*
X12567801Y-14104174D02*
X12548753Y-14094650D01*
X12548753Y-14094650D02*
X12520182Y-14094650D01*
X12520182Y-14094650D02*
X12501134Y-14104174D01*
X12501134Y-14104174D02*
X12491610Y-14113698D01*
X12701134Y-14227984D02*
X12682087Y-14218460D01*
X12682087Y-14218460D02*
X12672563Y-14208936D01*
X12672563Y-14208936D02*
X12663039Y-14189888D01*
X12663039Y-14189888D02*
X12663039Y-14132746D01*
X12663039Y-14132746D02*
X12672563Y-14113698D01*
X12672563Y-14113698D02*
X12682087Y-14104174D01*
X12682087Y-14104174D02*
X12701134Y-14094650D01*
X12701134Y-14094650D02*
X12729706Y-14094650D01*
X12729706Y-14094650D02*
X12748753Y-14104174D01*
X12748753Y-14104174D02*
X12758277Y-14113698D01*
X12758277Y-14113698D02*
X12767801Y-14132746D01*
X12767801Y-14132746D02*
X12767801Y-14189888D01*
X12767801Y-14189888D02*
X12758277Y-14208936D01*
X12758277Y-14208936D02*
X12748753Y-14218460D01*
X12748753Y-14218460D02*
X12729706Y-14227984D01*
X12729706Y-14227984D02*
X12701134Y-14227984D01*
X12882087Y-14227984D02*
X12863039Y-14218460D01*
X12863039Y-14218460D02*
X12853515Y-14199412D01*
X12853515Y-14199412D02*
X12853515Y-14027984D01*
X13034468Y-14218460D02*
X13015420Y-14227984D01*
X13015420Y-14227984D02*
X12977325Y-14227984D01*
X12977325Y-14227984D02*
X12958277Y-14218460D01*
X12958277Y-14218460D02*
X12948753Y-14199412D01*
X12948753Y-14199412D02*
X12948753Y-14123222D01*
X12948753Y-14123222D02*
X12958277Y-14104174D01*
X12958277Y-14104174D02*
X12977325Y-14094650D01*
X12977325Y-14094650D02*
X13015420Y-14094650D01*
X13015420Y-14094650D02*
X13034468Y-14104174D01*
X13034468Y-14104174D02*
X13043991Y-14123222D01*
X13043991Y-14123222D02*
X13043991Y-14142269D01*
X13043991Y-14142269D02*
X12948753Y-14161317D01*
X13120182Y-14218460D02*
X13139230Y-14227984D01*
X13139230Y-14227984D02*
X13177325Y-14227984D01*
X13177325Y-14227984D02*
X13196372Y-14218460D01*
X13196372Y-14218460D02*
X13205896Y-14199412D01*
X13205896Y-14199412D02*
X13205896Y-14189888D01*
X13205896Y-14189888D02*
X13196372Y-14170841D01*
X13196372Y-14170841D02*
X13177325Y-14161317D01*
X13177325Y-14161317D02*
X13148753Y-14161317D01*
X13148753Y-14161317D02*
X13129706Y-14151793D01*
X13129706Y-14151793D02*
X13120182Y-14132746D01*
X13120182Y-14132746D02*
X13120182Y-14123222D01*
X13120182Y-14123222D02*
X13129706Y-14104174D01*
X13129706Y-14104174D02*
X13148753Y-14094650D01*
X13148753Y-14094650D02*
X13177325Y-14094650D01*
X13177325Y-14094650D02*
X13196372Y-14104174D01*
X13272563Y-14304174D02*
X13282087Y-14294650D01*
X13282087Y-14294650D02*
X13301134Y-14266079D01*
X13301134Y-14266079D02*
X13310658Y-14247031D01*
X13310658Y-14247031D02*
X13320182Y-14218460D01*
X13320182Y-14218460D02*
X13329706Y-14170841D01*
X13329706Y-14170841D02*
X13329706Y-14132746D01*
X13329706Y-14132746D02*
X13320182Y-14085127D01*
X13320182Y-14085127D02*
X13310658Y-14056555D01*
X13310658Y-14056555D02*
X13301134Y-14037508D01*
X13301134Y-14037508D02*
X13282087Y-14008936D01*
X13282087Y-14008936D02*
X13272563Y-13999412D01*
X13634468Y-14304174D02*
X13624944Y-14294650D01*
X13624944Y-14294650D02*
X13605896Y-14266079D01*
X13605896Y-14266079D02*
X13596372Y-14247031D01*
X13596372Y-14247031D02*
X13586849Y-14218460D01*
X13586849Y-14218460D02*
X13577325Y-14170841D01*
X13577325Y-14170841D02*
X13577325Y-14132746D01*
X13577325Y-14132746D02*
X13586849Y-14085127D01*
X13586849Y-14085127D02*
X13596372Y-14056555D01*
X13596372Y-14056555D02*
X13605896Y-14037508D01*
X13605896Y-14037508D02*
X13624944Y-14008936D01*
X13624944Y-14008936D02*
X13634468Y-13999412D01*
X13710658Y-14094650D02*
X13710658Y-14227984D01*
X13710658Y-14113698D02*
X13720182Y-14104174D01*
X13720182Y-14104174D02*
X13739230Y-14094650D01*
X13739230Y-14094650D02*
X13767801Y-14094650D01*
X13767801Y-14094650D02*
X13786849Y-14104174D01*
X13786849Y-14104174D02*
X13796372Y-14123222D01*
X13796372Y-14123222D02*
X13796372Y-14227984D01*
X13920182Y-14227984D02*
X13901134Y-14218460D01*
X13901134Y-14218460D02*
X13891611Y-14208936D01*
X13891611Y-14208936D02*
X13882087Y-14189888D01*
X13882087Y-14189888D02*
X13882087Y-14132746D01*
X13882087Y-14132746D02*
X13891611Y-14113698D01*
X13891611Y-14113698D02*
X13901134Y-14104174D01*
X13901134Y-14104174D02*
X13920182Y-14094650D01*
X13920182Y-14094650D02*
X13948753Y-14094650D01*
X13948753Y-14094650D02*
X13967801Y-14104174D01*
X13967801Y-14104174D02*
X13977325Y-14113698D01*
X13977325Y-14113698D02*
X13986849Y-14132746D01*
X13986849Y-14132746D02*
X13986849Y-14189888D01*
X13986849Y-14189888D02*
X13977325Y-14208936D01*
X13977325Y-14208936D02*
X13967801Y-14218460D01*
X13967801Y-14218460D02*
X13948753Y-14227984D01*
X13948753Y-14227984D02*
X13920182Y-14227984D01*
X14043992Y-14094650D02*
X14120182Y-14094650D01*
X14072563Y-14027984D02*
X14072563Y-14199412D01*
X14072563Y-14199412D02*
X14082087Y-14218460D01*
X14082087Y-14218460D02*
X14101134Y-14227984D01*
X14101134Y-14227984D02*
X14120182Y-14227984D01*
X14339230Y-14094650D02*
X14339230Y-14294650D01*
X14339230Y-14104174D02*
X14358277Y-14094650D01*
X14358277Y-14094650D02*
X14396373Y-14094650D01*
X14396373Y-14094650D02*
X14415420Y-14104174D01*
X14415420Y-14104174D02*
X14424944Y-14113698D01*
X14424944Y-14113698D02*
X14434468Y-14132746D01*
X14434468Y-14132746D02*
X14434468Y-14189888D01*
X14434468Y-14189888D02*
X14424944Y-14208936D01*
X14424944Y-14208936D02*
X14415420Y-14218460D01*
X14415420Y-14218460D02*
X14396373Y-14227984D01*
X14396373Y-14227984D02*
X14358277Y-14227984D01*
X14358277Y-14227984D02*
X14339230Y-14218460D01*
X14548753Y-14227984D02*
X14529706Y-14218460D01*
X14529706Y-14218460D02*
X14520182Y-14199412D01*
X14520182Y-14199412D02*
X14520182Y-14027984D01*
X14710658Y-14227984D02*
X14710658Y-14123222D01*
X14710658Y-14123222D02*
X14701134Y-14104174D01*
X14701134Y-14104174D02*
X14682087Y-14094650D01*
X14682087Y-14094650D02*
X14643992Y-14094650D01*
X14643992Y-14094650D02*
X14624944Y-14104174D01*
X14710658Y-14218460D02*
X14691611Y-14227984D01*
X14691611Y-14227984D02*
X14643992Y-14227984D01*
X14643992Y-14227984D02*
X14624944Y-14218460D01*
X14624944Y-14218460D02*
X14615420Y-14199412D01*
X14615420Y-14199412D02*
X14615420Y-14180365D01*
X14615420Y-14180365D02*
X14624944Y-14161317D01*
X14624944Y-14161317D02*
X14643992Y-14151793D01*
X14643992Y-14151793D02*
X14691611Y-14151793D01*
X14691611Y-14151793D02*
X14710658Y-14142269D01*
X14777325Y-14094650D02*
X14853515Y-14094650D01*
X14805896Y-14027984D02*
X14805896Y-14199412D01*
X14805896Y-14199412D02*
X14815420Y-14218460D01*
X14815420Y-14218460D02*
X14834468Y-14227984D01*
X14834468Y-14227984D02*
X14853515Y-14227984D01*
X14996373Y-14218460D02*
X14977325Y-14227984D01*
X14977325Y-14227984D02*
X14939230Y-14227984D01*
X14939230Y-14227984D02*
X14920182Y-14218460D01*
X14920182Y-14218460D02*
X14910658Y-14199412D01*
X14910658Y-14199412D02*
X14910658Y-14123222D01*
X14910658Y-14123222D02*
X14920182Y-14104174D01*
X14920182Y-14104174D02*
X14939230Y-14094650D01*
X14939230Y-14094650D02*
X14977325Y-14094650D01*
X14977325Y-14094650D02*
X14996373Y-14104174D01*
X14996373Y-14104174D02*
X15005896Y-14123222D01*
X15005896Y-14123222D02*
X15005896Y-14142269D01*
X15005896Y-14142269D02*
X14910658Y-14161317D01*
X15177325Y-14227984D02*
X15177325Y-14027984D01*
X15177325Y-14218460D02*
X15158277Y-14227984D01*
X15158277Y-14227984D02*
X15120182Y-14227984D01*
X15120182Y-14227984D02*
X15101134Y-14218460D01*
X15101134Y-14218460D02*
X15091611Y-14208936D01*
X15091611Y-14208936D02*
X15082087Y-14189888D01*
X15082087Y-14189888D02*
X15082087Y-14132746D01*
X15082087Y-14132746D02*
X15091611Y-14113698D01*
X15091611Y-14113698D02*
X15101134Y-14104174D01*
X15101134Y-14104174D02*
X15120182Y-14094650D01*
X15120182Y-14094650D02*
X15158277Y-14094650D01*
X15158277Y-14094650D02*
X15177325Y-14104174D01*
X15253515Y-14304174D02*
X15263039Y-14294650D01*
X15263039Y-14294650D02*
X15282087Y-14266079D01*
X15282087Y-14266079D02*
X15291611Y-14247031D01*
X15291611Y-14247031D02*
X15301134Y-14218460D01*
X15301134Y-14218460D02*
X15310658Y-14170841D01*
X15310658Y-14170841D02*
X15310658Y-14132746D01*
X15310658Y-14132746D02*
X15301134Y-14085127D01*
X15301134Y-14085127D02*
X15291611Y-14056555D01*
X15291611Y-14056555D02*
X15282087Y-14037508D01*
X15282087Y-14037508D02*
X15263039Y-14008936D01*
X15263039Y-14008936D02*
X15253515Y-13999412D01*
M02*
