G04 #@! TF.GenerationSoftware,KiCad,Pcbnew,8.0.1-rc1*
G04 #@! TF.CreationDate,2024-05-12T14:13:22-04:00*
G04 #@! TF.ProjectId,STM32_Play_Board,53544d33-325f-4506-9c61-795f426f6172,rev?*
G04 #@! TF.SameCoordinates,Original*
G04 #@! TF.FileFunction,Soldermask,Bot*
G04 #@! TF.FilePolarity,Negative*
%FSLAX46Y46*%
G04 Gerber Fmt 4.6, Leading zero omitted, Abs format (unit mm)*
G04 Created by KiCad (PCBNEW 8.0.1-rc1) date 2024-05-12 14:13:22*
%MOMM*%
%LPD*%
G01*
G04 APERTURE LIST*
G04 Aperture macros list*
%AMRoundRect*
0 Rectangle with rounded corners*
0 $1 Rounding radius*
0 $2 $3 $4 $5 $6 $7 $8 $9 X,Y pos of 4 corners*
0 Add a 4 corners polygon primitive as box body*
4,1,4,$2,$3,$4,$5,$6,$7,$8,$9,$2,$3,0*
0 Add four circle primitives for the rounded corners*
1,1,$1+$1,$2,$3*
1,1,$1+$1,$4,$5*
1,1,$1+$1,$6,$7*
1,1,$1+$1,$8,$9*
0 Add four rect primitives between the rounded corners*
20,1,$1+$1,$2,$3,$4,$5,0*
20,1,$1+$1,$4,$5,$6,$7,0*
20,1,$1+$1,$6,$7,$8,$9,0*
20,1,$1+$1,$8,$9,$2,$3,0*%
G04 Aperture macros list end*
%ADD10R,1.700000X1.700000*%
%ADD11O,1.700000X1.700000*%
%ADD12O,0.800000X0.800000*%
%ADD13O,1.800000X1.150000*%
%ADD14O,2.000000X1.450000*%
%ADD15C,1.500000*%
%ADD16RoundRect,0.250000X0.845000X-0.620000X0.845000X0.620000X-0.845000X0.620000X-0.845000X-0.620000X0*%
%ADD17O,2.190000X1.740000*%
%ADD18C,3.200000*%
%ADD19C,2.000000*%
%ADD20C,10.160000*%
%ADD21R,1.500000X1.500000*%
%ADD22RoundRect,0.250000X-0.475000X0.250000X-0.475000X-0.250000X0.475000X-0.250000X0.475000X0.250000X0*%
G04 APERTURE END LIST*
D10*
G04 #@! TO.C,J12*
X130000000Y-67460000D03*
D11*
X130000000Y-70000000D03*
X130000000Y-72540000D03*
G04 #@! TD*
D12*
G04 #@! TO.C,J1*
X174445000Y-112705000D03*
X174445000Y-107705000D03*
D13*
X177195000Y-114080000D03*
D14*
X173395000Y-113930000D03*
X173395000Y-106480000D03*
D13*
X177195000Y-106330000D03*
G04 #@! TD*
D15*
G04 #@! TO.C,J5*
X168000000Y-125000000D03*
G04 #@! TD*
D10*
G04 #@! TO.C,J13*
X150000000Y-67460000D03*
D11*
X150000000Y-70000000D03*
X150000000Y-72540000D03*
G04 #@! TD*
D16*
G04 #@! TO.C,J3*
X174500000Y-96600000D03*
D17*
X174500000Y-94060000D03*
G04 #@! TD*
D18*
G04 #@! TO.C,H1*
X90000000Y-48300000D03*
G04 #@! TD*
D10*
G04 #@! TO.C,J14*
X140000000Y-67460000D03*
D11*
X140000000Y-70000000D03*
X140000000Y-72540000D03*
G04 #@! TD*
D10*
G04 #@! TO.C,J11*
X160000000Y-67460000D03*
D11*
X160000000Y-70000000D03*
X160000000Y-72540000D03*
G04 #@! TD*
D19*
G04 #@! TO.C,SW2*
X173250000Y-82200000D03*
X179750000Y-82200000D03*
X173250000Y-86700000D03*
X179750000Y-86700000D03*
G04 #@! TD*
D10*
G04 #@! TO.C,J10*
X171000000Y-50000000D03*
D11*
X168460000Y-50000000D03*
X165920000Y-50000000D03*
X163380000Y-50000000D03*
X160840000Y-50000000D03*
X158300000Y-50000000D03*
X155760000Y-50000000D03*
X153220000Y-50000000D03*
X150680000Y-50000000D03*
X148140000Y-50000000D03*
X145600000Y-50000000D03*
X143060000Y-50000000D03*
X140520000Y-50000000D03*
X137980000Y-50000000D03*
X135440000Y-50000000D03*
X132900000Y-50000000D03*
X130360000Y-50000000D03*
X127820000Y-50000000D03*
X125280000Y-50000000D03*
X122740000Y-50000000D03*
X120200000Y-50000000D03*
X117660000Y-50000000D03*
X115120000Y-50000000D03*
X112580000Y-50000000D03*
X110040000Y-50000000D03*
X107500000Y-50000000D03*
X104960000Y-50000000D03*
X102420000Y-50000000D03*
X99880000Y-50000000D03*
X97340000Y-50000000D03*
G04 #@! TD*
D10*
G04 #@! TO.C,JP1*
X157000000Y-122460000D03*
D11*
X157000000Y-125000000D03*
G04 #@! TD*
D18*
G04 #@! TO.C,H4*
X91000000Y-123300000D03*
G04 #@! TD*
D20*
G04 #@! TO.C,J4*
X93000000Y-62500000D03*
G04 #@! TD*
G04 #@! TO.C,J8*
X93000000Y-110000000D03*
G04 #@! TD*
D18*
G04 #@! TO.C,H3*
X175000000Y-123000000D03*
G04 #@! TD*
D20*
G04 #@! TO.C,J7*
X93000000Y-78000000D03*
G04 #@! TD*
D10*
G04 #@! TO.C,JP2*
X163000000Y-122460000D03*
D11*
X163000000Y-125000000D03*
G04 #@! TD*
D18*
G04 #@! TO.C,H2*
X179000000Y-50000000D03*
G04 #@! TD*
D21*
G04 #@! TO.C,J6*
X168000000Y-122460000D03*
G04 #@! TD*
D20*
G04 #@! TO.C,J9*
X93000000Y-95000000D03*
G04 #@! TD*
D22*
G04 #@! TO.C,C39*
X162490000Y-113350000D03*
X162490000Y-115250000D03*
G04 #@! TD*
G04 #@! TO.C,C40*
X165500000Y-113300000D03*
X165500000Y-115200000D03*
G04 #@! TD*
M02*
