G04 #@! TF.GenerationSoftware,KiCad,Pcbnew,8.0.1-rc1*
G04 #@! TF.CreationDate,2024-05-12T14:13:22-04:00*
G04 #@! TF.ProjectId,STM32_Play_Board,53544d33-325f-4506-9c61-795f426f6172,rev?*
G04 #@! TF.SameCoordinates,Original*
G04 #@! TF.FileFunction,Copper,L1,Top*
G04 #@! TF.FilePolarity,Positive*
%FSLAX46Y46*%
G04 Gerber Fmt 4.6, Leading zero omitted, Abs format (unit mm)*
G04 Created by KiCad (PCBNEW 8.0.1-rc1) date 2024-05-12 14:13:22*
%MOMM*%
%LPD*%
G01*
G04 APERTURE LIST*
G04 Aperture macros list*
%AMRoundRect*
0 Rectangle with rounded corners*
0 $1 Rounding radius*
0 $2 $3 $4 $5 $6 $7 $8 $9 X,Y pos of 4 corners*
0 Add a 4 corners polygon primitive as box body*
4,1,4,$2,$3,$4,$5,$6,$7,$8,$9,$2,$3,0*
0 Add four circle primitives for the rounded corners*
1,1,$1+$1,$2,$3*
1,1,$1+$1,$4,$5*
1,1,$1+$1,$6,$7*
1,1,$1+$1,$8,$9*
0 Add four rect primitives between the rounded corners*
20,1,$1+$1,$2,$3,$4,$5,0*
20,1,$1+$1,$4,$5,$6,$7,0*
20,1,$1+$1,$6,$7,$8,$9,0*
20,1,$1+$1,$8,$9,$2,$3,0*%
G04 Aperture macros list end*
G04 #@! TA.AperFunction,Conductor*
%ADD10C,0.200000*%
G04 #@! TD*
G04 #@! TA.AperFunction,ComponentPad*
%ADD11R,1.700000X1.700000*%
G04 #@! TD*
G04 #@! TA.AperFunction,ComponentPad*
%ADD12O,1.700000X1.700000*%
G04 #@! TD*
G04 #@! TA.AperFunction,SMDPad,CuDef*
%ADD13RoundRect,0.250000X-0.450000X0.262500X-0.450000X-0.262500X0.450000X-0.262500X0.450000X0.262500X0*%
G04 #@! TD*
G04 #@! TA.AperFunction,SMDPad,CuDef*
%ADD14RoundRect,0.150000X-0.825000X-0.150000X0.825000X-0.150000X0.825000X0.150000X-0.825000X0.150000X0*%
G04 #@! TD*
G04 #@! TA.AperFunction,SMDPad,CuDef*
%ADD15R,2.000000X2.000000*%
G04 #@! TD*
G04 #@! TA.AperFunction,SMDPad,CuDef*
%ADD16RoundRect,0.250000X-0.250000X-0.475000X0.250000X-0.475000X0.250000X0.475000X-0.250000X0.475000X0*%
G04 #@! TD*
G04 #@! TA.AperFunction,SMDPad,CuDef*
%ADD17RoundRect,0.250000X0.450000X-0.262500X0.450000X0.262500X-0.450000X0.262500X-0.450000X-0.262500X0*%
G04 #@! TD*
G04 #@! TA.AperFunction,SMDPad,CuDef*
%ADD18RoundRect,0.250000X0.475000X-0.250000X0.475000X0.250000X-0.475000X0.250000X-0.475000X-0.250000X0*%
G04 #@! TD*
G04 #@! TA.AperFunction,SMDPad,CuDef*
%ADD19RoundRect,0.243750X0.456250X-0.243750X0.456250X0.243750X-0.456250X0.243750X-0.456250X-0.243750X0*%
G04 #@! TD*
G04 #@! TA.AperFunction,SMDPad,CuDef*
%ADD20RoundRect,0.150000X0.512500X0.150000X-0.512500X0.150000X-0.512500X-0.150000X0.512500X-0.150000X0*%
G04 #@! TD*
G04 #@! TA.AperFunction,SMDPad,CuDef*
%ADD21R,1.200000X0.400000*%
G04 #@! TD*
G04 #@! TA.AperFunction,SMDPad,CuDef*
%ADD22RoundRect,0.250000X-0.475000X0.250000X-0.475000X-0.250000X0.475000X-0.250000X0.475000X0.250000X0*%
G04 #@! TD*
G04 #@! TA.AperFunction,SMDPad,CuDef*
%ADD23RoundRect,0.250000X0.250000X0.475000X-0.250000X0.475000X-0.250000X-0.475000X0.250000X-0.475000X0*%
G04 #@! TD*
G04 #@! TA.AperFunction,SMDPad,CuDef*
%ADD24R,1.100000X0.850000*%
G04 #@! TD*
G04 #@! TA.AperFunction,SMDPad,CuDef*
%ADD25R,1.100000X0.750000*%
G04 #@! TD*
G04 #@! TA.AperFunction,SMDPad,CuDef*
%ADD26R,1.000000X1.200000*%
G04 #@! TD*
G04 #@! TA.AperFunction,SMDPad,CuDef*
%ADD27R,1.350000X1.550000*%
G04 #@! TD*
G04 #@! TA.AperFunction,SMDPad,CuDef*
%ADD28R,1.350000X1.900000*%
G04 #@! TD*
G04 #@! TA.AperFunction,SMDPad,CuDef*
%ADD29R,1.800000X1.170000*%
G04 #@! TD*
G04 #@! TA.AperFunction,SMDPad,CuDef*
%ADD30RoundRect,0.250000X-0.262500X-0.450000X0.262500X-0.450000X0.262500X0.450000X-0.262500X0.450000X0*%
G04 #@! TD*
G04 #@! TA.AperFunction,SMDPad,CuDef*
%ADD31R,1.300000X0.450000*%
G04 #@! TD*
G04 #@! TA.AperFunction,ComponentPad*
%ADD32O,1.800000X1.150000*%
G04 #@! TD*
G04 #@! TA.AperFunction,ComponentPad*
%ADD33O,2.000000X1.450000*%
G04 #@! TD*
G04 #@! TA.AperFunction,ComponentPad*
%ADD34C,1.500000*%
G04 #@! TD*
G04 #@! TA.AperFunction,SMDPad,CuDef*
%ADD35RoundRect,0.150000X0.150000X-0.512500X0.150000X0.512500X-0.150000X0.512500X-0.150000X-0.512500X0*%
G04 #@! TD*
G04 #@! TA.AperFunction,ComponentPad*
%ADD36RoundRect,0.250000X0.845000X-0.620000X0.845000X0.620000X-0.845000X0.620000X-0.845000X-0.620000X0*%
G04 #@! TD*
G04 #@! TA.AperFunction,ComponentPad*
%ADD37O,2.190000X1.740000*%
G04 #@! TD*
G04 #@! TA.AperFunction,SMDPad,CuDef*
%ADD38RoundRect,0.250000X0.262500X0.450000X-0.262500X0.450000X-0.262500X-0.450000X0.262500X-0.450000X0*%
G04 #@! TD*
G04 #@! TA.AperFunction,SMDPad,CuDef*
%ADD39RoundRect,0.100000X-0.712500X-0.100000X0.712500X-0.100000X0.712500X0.100000X-0.712500X0.100000X0*%
G04 #@! TD*
G04 #@! TA.AperFunction,SMDPad,CuDef*
%ADD40RoundRect,0.375000X0.375000X-0.625000X0.375000X0.625000X-0.375000X0.625000X-0.375000X-0.625000X0*%
G04 #@! TD*
G04 #@! TA.AperFunction,SMDPad,CuDef*
%ADD41RoundRect,0.500000X1.400000X-0.500000X1.400000X0.500000X-1.400000X0.500000X-1.400000X-0.500000X0*%
G04 #@! TD*
G04 #@! TA.AperFunction,ComponentPad*
%ADD42C,2.000000*%
G04 #@! TD*
G04 #@! TA.AperFunction,SMDPad,CuDef*
%ADD43RoundRect,0.218750X-0.381250X0.218750X-0.381250X-0.218750X0.381250X-0.218750X0.381250X0.218750X0*%
G04 #@! TD*
G04 #@! TA.AperFunction,SMDPad,CuDef*
%ADD44RoundRect,0.075000X-0.662500X-0.075000X0.662500X-0.075000X0.662500X0.075000X-0.662500X0.075000X0*%
G04 #@! TD*
G04 #@! TA.AperFunction,SMDPad,CuDef*
%ADD45RoundRect,0.075000X-0.075000X-0.662500X0.075000X-0.662500X0.075000X0.662500X-0.075000X0.662500X0*%
G04 #@! TD*
G04 #@! TA.AperFunction,SMDPad,CuDef*
%ADD46R,1.650000X1.950000*%
G04 #@! TD*
G04 #@! TA.AperFunction,ComponentPad*
%ADD47C,10.160000*%
G04 #@! TD*
G04 #@! TA.AperFunction,ComponentPad*
%ADD48R,1.500000X1.500000*%
G04 #@! TD*
G04 #@! TA.AperFunction,ViaPad*
%ADD49C,1.000000*%
G04 #@! TD*
G04 #@! TA.AperFunction,ViaPad*
%ADD50C,0.500000*%
G04 #@! TD*
G04 #@! TA.AperFunction,ViaPad*
%ADD51C,0.600000*%
G04 #@! TD*
G04 #@! TA.AperFunction,Conductor*
%ADD52C,0.500000*%
G04 #@! TD*
G04 #@! TA.AperFunction,Conductor*
%ADD53C,0.300000*%
G04 #@! TD*
G04 #@! TA.AperFunction,Conductor*
%ADD54C,1.000000*%
G04 #@! TD*
G04 #@! TA.AperFunction,Conductor*
%ADD55C,0.750000*%
G04 #@! TD*
G04 APERTURE END LIST*
D10*
G04 #@! TO.N,Net-(U2-VOUT)*
X126500000Y-127000000D02*
X119500000Y-127000000D01*
X119500000Y-125000000D01*
X126500000Y-125000000D01*
X126500000Y-127000000D01*
G04 #@! TA.AperFunction,Conductor*
G36*
X126500000Y-127000000D02*
G01*
X119500000Y-127000000D01*
X119500000Y-125000000D01*
X126500000Y-125000000D01*
X126500000Y-127000000D01*
G37*
G04 #@! TD.AperFunction*
G04 #@! TO.N,+3.3V*
X142000000Y-119000000D02*
X141000000Y-120000000D01*
X140500000Y-121000000D01*
X140000000Y-123000000D01*
X140000000Y-129000000D01*
X138000000Y-129000000D01*
X138000000Y-119500000D01*
X136500000Y-119500000D01*
X136500000Y-116000000D01*
X142000000Y-116000000D01*
X142000000Y-119000000D01*
G04 #@! TA.AperFunction,Conductor*
G36*
X142000000Y-119000000D02*
G01*
X141000000Y-120000000D01*
X140500000Y-121000000D01*
X140000000Y-123000000D01*
X140000000Y-129000000D01*
X138000000Y-129000000D01*
X138000000Y-119500000D01*
X136500000Y-119500000D01*
X136500000Y-116000000D01*
X142000000Y-116000000D01*
X142000000Y-119000000D01*
G37*
G04 #@! TD.AperFunction*
G04 #@! TD*
D11*
G04 #@! TO.P,J12,1,Pin_1*
G04 #@! TO.N,/Micrcontroller STM32C0/SPI_Mosi*
X130000000Y-67460000D03*
D12*
G04 #@! TO.P,J12,2,Pin_2*
G04 #@! TO.N,/SD_CARD/SPI_Mosi_SD*
X130000000Y-70000000D03*
G04 #@! TO.P,J12,3,Pin_3*
G04 #@! TO.N,/SD_CARD/SPI_Mosi_Break*
X130000000Y-72540000D03*
G04 #@! TD*
D13*
G04 #@! TO.P,R8,1*
G04 #@! TO.N,+3.3V*
X150000000Y-61287500D03*
G04 #@! TO.P,R8,2*
G04 #@! TO.N,/SD_CARD/SPI_Clk_SD*
X150000000Y-63112500D03*
G04 #@! TD*
D14*
G04 #@! TO.P,U8,1,IP+*
G04 #@! TO.N,Net-(J9-Pin_1)*
X102525000Y-100095000D03*
G04 #@! TO.P,U8,2,IP+*
X102525000Y-101365000D03*
G04 #@! TO.P,U8,3,IP-*
G04 #@! TO.N,Net-(J8-Pin_1)*
X102525000Y-102635000D03*
G04 #@! TO.P,U8,4,IP-*
X102525000Y-103905000D03*
G04 #@! TO.P,U8,5,GND*
G04 #@! TO.N,Earth*
X107475000Y-103905000D03*
G04 #@! TO.P,U8,6,FILTER*
G04 #@! TO.N,Net-(U8-FILTER)*
X107475000Y-102635000D03*
G04 #@! TO.P,U8,7,VIOUT*
G04 #@! TO.N,/Micrcontroller STM32C0/Curr_meas*
X107475000Y-101365000D03*
G04 #@! TO.P,U8,8,VCC*
G04 #@! TO.N,+3.3V*
X107475000Y-100095000D03*
G04 #@! TD*
D15*
G04 #@! TO.P,TP2,1,1*
G04 #@! TO.N,Net-(U1-~{CTS})*
X147000000Y-115650000D03*
G04 #@! TD*
D16*
G04 #@! TO.P,C23,1*
G04 #@! TO.N,Net-(C21-Pad2)*
X106775000Y-62500000D03*
G04 #@! TO.P,C23,2*
G04 #@! TO.N,Net-(U10--)*
X108675000Y-62500000D03*
G04 #@! TD*
G04 #@! TO.P,C32,1*
G04 #@! TO.N,Earth*
X118000000Y-97800000D03*
G04 #@! TO.P,C32,2*
G04 #@! TO.N,+3.3V*
X119900000Y-97800000D03*
G04 #@! TD*
D17*
G04 #@! TO.P,R4,1*
G04 #@! TO.N,Net-(D2-K)*
X111000000Y-124912500D03*
G04 #@! TO.P,R4,2*
G04 #@! TO.N,Net-(U1-CBUS2)*
X111000000Y-123087500D03*
G04 #@! TD*
D13*
G04 #@! TO.P,R19,1*
G04 #@! TO.N,Net-(R19-Pad1)*
X106400000Y-69087500D03*
G04 #@! TO.P,R19,2*
G04 #@! TO.N,Net-(R19-Pad2)*
X106400000Y-70912500D03*
G04 #@! TD*
G04 #@! TO.P,R5,1*
G04 #@! TO.N,+3.3V*
X140000000Y-61087500D03*
G04 #@! TO.P,R5,2*
G04 #@! TO.N,/SD_CARD/SPI_Miso_SD*
X140000000Y-62912500D03*
G04 #@! TD*
D18*
G04 #@! TO.P,C35,1*
G04 #@! TO.N,Earth*
X112000000Y-103950000D03*
G04 #@! TO.P,C35,2*
G04 #@! TO.N,Net-(U8-FILTER)*
X112000000Y-102050000D03*
G04 #@! TD*
D19*
G04 #@! TO.P,D1,1,K*
G04 #@! TO.N,Net-(D1-K)*
X106000000Y-120875000D03*
G04 #@! TO.P,D1,2,A*
G04 #@! TO.N,/USB to UART/USB_3V3*
X106000000Y-119000000D03*
G04 #@! TD*
D20*
G04 #@! TO.P,U3,1,OUT*
G04 #@! TO.N,/Micrcontroller STM32C0/3.3V_Ref*
X141000000Y-85450000D03*
G04 #@! TO.P,U3,2,GND*
G04 #@! TO.N,Earth*
X141000000Y-84500000D03*
G04 #@! TO.P,U3,3,GND*
X141000000Y-83550000D03*
G04 #@! TO.P,U3,4,~{SHDN}*
G04 #@! TO.N,+3.3V*
X138725000Y-83550000D03*
G04 #@! TO.P,U3,5,GND*
G04 #@! TO.N,Earth*
X138725000Y-84500000D03*
G04 #@! TO.P,U3,6,VDD*
G04 #@! TO.N,+3.3V*
X138725000Y-85450000D03*
G04 #@! TD*
D18*
G04 #@! TO.P,C9,1*
G04 #@! TO.N,/Micrcontroller STM32C0/OSC_IN*
X152900000Y-94600000D03*
G04 #@! TO.P,C9,2*
G04 #@! TO.N,Earth*
X152900000Y-92700000D03*
G04 #@! TD*
D21*
G04 #@! TO.P,U1,1,TXD*
G04 #@! TO.N,/Micrcontroller STM32C0/UART1_Tx*
X154200000Y-107842500D03*
G04 #@! TO.P,U1,2,~{RTS}*
G04 #@! TO.N,Net-(U1-~{RTS})*
X154200000Y-108477500D03*
G04 #@! TO.P,U1,3,VCCIO*
G04 #@! TO.N,/USB to UART/USB_3V3*
X154200000Y-109112500D03*
G04 #@! TO.P,U1,4,RXD*
G04 #@! TO.N,/Micrcontroller STM32C0/UART1_Rx*
X154200000Y-109747500D03*
G04 #@! TO.P,U1,5,GND*
G04 #@! TO.N,Earth*
X154200000Y-110382500D03*
G04 #@! TO.P,U1,6,~{CTS}*
G04 #@! TO.N,Net-(U1-~{CTS})*
X154200000Y-111017500D03*
G04 #@! TO.P,U1,7,CBUS2*
G04 #@! TO.N,Net-(U1-CBUS2)*
X154200000Y-111652500D03*
G04 #@! TO.P,U1,8,USBDP*
G04 #@! TO.N,/USB to UART/USBD+*
X154200000Y-112287500D03*
G04 #@! TO.P,U1,9,USBDM*
G04 #@! TO.N,/USB to UART/USBD-*
X159400000Y-112287500D03*
G04 #@! TO.P,U1,10,3V3OUT*
G04 #@! TO.N,/USB to UART/USB_3V3*
X159400000Y-111652500D03*
G04 #@! TO.P,U1,11,~{RESET}*
X159400000Y-111017500D03*
G04 #@! TO.P,U1,12,VCC*
G04 #@! TO.N,VBUS*
X159400000Y-110382500D03*
G04 #@! TO.P,U1,13,GND*
G04 #@! TO.N,Earth*
X159400000Y-109747500D03*
G04 #@! TO.P,U1,14,CBUS1*
G04 #@! TO.N,Net-(U1-CBUS1)*
X159400000Y-109112500D03*
G04 #@! TO.P,U1,15,CBUS0*
G04 #@! TO.N,unconnected-(U1-CBUS0-Pad15)*
X159400000Y-108477500D03*
G04 #@! TO.P,U1,16,CBUS3*
G04 #@! TO.N,unconnected-(U1-CBUS3-Pad16)*
X159400000Y-107842500D03*
G04 #@! TD*
D22*
G04 #@! TO.P,C18,1*
G04 #@! TO.N,Earth*
X120500000Y-120050000D03*
G04 #@! TO.P,C18,2*
G04 #@! TO.N,-3V3*
X120500000Y-121950000D03*
G04 #@! TD*
D23*
G04 #@! TO.P,C2,1*
G04 #@! TO.N,/USB to UART/USB_3V3*
X158450000Y-115000000D03*
G04 #@! TO.P,C2,2*
G04 #@! TO.N,Earth*
X156550000Y-115000000D03*
G04 #@! TD*
D24*
G04 #@! TO.P,J2,1,DAT2*
G04 #@! TO.N,unconnected-(J2-DAT2-Pad1)*
X179450000Y-67895000D03*
G04 #@! TO.P,J2,2,DAT3/CD*
G04 #@! TO.N,/SD_CARD/SPI_Cs_SD*
X179450000Y-68995000D03*
G04 #@! TO.P,J2,3,CMD*
G04 #@! TO.N,/SD_CARD/SPI_Mosi_SD*
X179450000Y-70095000D03*
G04 #@! TO.P,J2,4,VDD*
G04 #@! TO.N,+3.3V*
X179450000Y-71195000D03*
G04 #@! TO.P,J2,5,CLK*
G04 #@! TO.N,/SD_CARD/SPI_Clk_SD*
X179450000Y-72295000D03*
G04 #@! TO.P,J2,6,VSS*
G04 #@! TO.N,Earth*
X179450000Y-73395000D03*
G04 #@! TO.P,J2,7,DAT0*
G04 #@! TO.N,/SD_CARD/SPI_Miso_SD*
X179450000Y-74495000D03*
D25*
G04 #@! TO.P,J2,8,DAT1*
G04 #@! TO.N,unconnected-(J2-DAT1-Pad8)*
X179450000Y-75545000D03*
D26*
G04 #@! TO.P,J2,9,SHIELD*
G04 #@! TO.N,unconnected-(J2-SHIELD-Pad9)*
X173300000Y-65260000D03*
G04 #@! TO.P,J2,10*
G04 #@! TO.N,N/C*
X169600000Y-65260000D03*
D27*
G04 #@! TO.P,J2,11*
X179325000Y-65435000D03*
D28*
X168625000Y-68760000D03*
X168625000Y-74730000D03*
D29*
X179100000Y-76755000D03*
G04 #@! TD*
D16*
G04 #@! TO.P,C19,1*
G04 #@! TO.N,Net-(C19-Pad1)*
X126050000Y-80000000D03*
G04 #@! TO.P,C19,2*
G04 #@! TO.N,/Micrcontroller STM32C0/Volt_meas*
X127950000Y-80000000D03*
G04 #@! TD*
D18*
G04 #@! TO.P,C10,1*
G04 #@! TO.N,/Micrcontroller STM32C0/3.3V_Ref*
X143862500Y-85450000D03*
G04 #@! TO.P,C10,2*
G04 #@! TO.N,Earth*
X143862500Y-83550000D03*
G04 #@! TD*
D17*
G04 #@! TO.P,R21,1*
G04 #@! TO.N,Net-(U12C-+)*
X138500000Y-102412500D03*
G04 #@! TO.P,R21,2*
G04 #@! TO.N,+3.3V*
X138500000Y-100587500D03*
G04 #@! TD*
D16*
G04 #@! TO.P,C24,1*
G04 #@! TO.N,Net-(J7-Pin_1)*
X102050000Y-75000000D03*
G04 #@! TO.P,C24,2*
G04 #@! TO.N,Net-(C24-Pad2)*
X103950000Y-75000000D03*
G04 #@! TD*
D18*
G04 #@! TO.P,C8,1*
G04 #@! TO.N,+3.3V*
X135862500Y-85450000D03*
G04 #@! TO.P,C8,2*
G04 #@! TO.N,Earth*
X135862500Y-83550000D03*
G04 #@! TD*
D30*
G04 #@! TO.P,R11,1*
G04 #@! TO.N,Net-(J4-Pin_1)*
X101812500Y-65500000D03*
G04 #@! TO.P,R11,2*
G04 #@! TO.N,Net-(R11-Pad2)*
X103637500Y-65500000D03*
G04 #@! TD*
D16*
G04 #@! TO.P,C33,1*
G04 #@! TO.N,Earth*
X106000000Y-96000000D03*
G04 #@! TO.P,C33,2*
G04 #@! TO.N,+3.3V*
X107900000Y-96000000D03*
G04 #@! TD*
D14*
G04 #@! TO.P,U7,1,VO*
G04 #@! TO.N,-3V3*
X120525000Y-124095000D03*
G04 #@! TO.P,U7,2,VI*
G04 #@! TO.N,Net-(U2-VOUT)*
X120525000Y-125365000D03*
G04 #@! TO.P,U7,3,VI*
X120525000Y-126635000D03*
G04 #@! TO.P,U7,4,ADJ*
G04 #@! TO.N,Net-(U7-ADJ)*
X120525000Y-127905000D03*
G04 #@! TO.P,U7,5,NC*
G04 #@! TO.N,unconnected-(U7-NC-Pad5)*
X125475000Y-127905000D03*
G04 #@! TO.P,U7,6,VI*
G04 #@! TO.N,Net-(U2-VOUT)*
X125475000Y-126635000D03*
G04 #@! TO.P,U7,7,VI*
X125475000Y-125365000D03*
G04 #@! TO.P,U7,8,NC*
G04 #@! TO.N,unconnected-(U7-NC-Pad8)*
X125475000Y-124095000D03*
G04 #@! TD*
D17*
G04 #@! TO.P,R26,1*
G04 #@! TO.N,Earth*
X119000000Y-106800000D03*
G04 #@! TO.P,R26,2*
G04 #@! TO.N,Net-(U12B-+)*
X119000000Y-104975000D03*
G04 #@! TD*
D31*
G04 #@! TO.P,J1,1,VBUS*
G04 #@! TO.N,Net-(J1-VBUS)*
X173345000Y-111505000D03*
G04 #@! TO.P,J1,2,D-*
G04 #@! TO.N,Net-(J1-D-)*
X173345000Y-110855000D03*
G04 #@! TO.P,J1,3,D+*
G04 #@! TO.N,Net-(J1-D+)*
X173345000Y-110205000D03*
G04 #@! TO.P,J1,4,ID*
G04 #@! TO.N,unconnected-(J1-ID-Pad4)*
X173345000Y-109555000D03*
G04 #@! TO.P,J1,5,GND*
G04 #@! TO.N,Earth*
X173345000Y-108905000D03*
D32*
G04 #@! TO.P,J1,6,Shield*
G04 #@! TO.N,unconnected-(J1-Shield-Pad6)_2*
X177195000Y-114080000D03*
D33*
G04 #@! TO.N,unconnected-(J1-Shield-Pad6)_0*
X173395000Y-113930000D03*
G04 #@! TO.N,unconnected-(J1-Shield-Pad6)_1*
X173395000Y-106480000D03*
D32*
G04 #@! TO.N,unconnected-(J1-Shield-Pad6)*
X177195000Y-106330000D03*
G04 #@! TD*
D16*
G04 #@! TO.P,C31,1*
G04 #@! TO.N,Earth*
X118000000Y-94790000D03*
G04 #@! TO.P,C31,2*
G04 #@! TO.N,+3.3V*
X119900000Y-94790000D03*
G04 #@! TD*
D34*
G04 #@! TO.P,J5,1,Pin_1*
G04 #@! TO.N,Earth*
X168000000Y-125000000D03*
G04 #@! TD*
D30*
G04 #@! TO.P,R14,1*
G04 #@! TO.N,Net-(C19-Pad1)*
X126087500Y-84000000D03*
G04 #@! TO.P,R14,2*
G04 #@! TO.N,Net-(U12A-+)*
X127912500Y-84000000D03*
G04 #@! TD*
D23*
G04 #@! TO.P,C26,1*
G04 #@! TO.N,Earth*
X119900000Y-66000000D03*
G04 #@! TO.P,C26,2*
G04 #@! TO.N,+3.3V*
X118000000Y-66000000D03*
G04 #@! TD*
D18*
G04 #@! TO.P,C3,1*
G04 #@! TO.N,Net-(J1-D+)*
X166500000Y-106950000D03*
G04 #@! TO.P,C3,2*
G04 #@! TO.N,Earth*
X166500000Y-105050000D03*
G04 #@! TD*
D11*
G04 #@! TO.P,J13,1,Pin_1*
G04 #@! TO.N,/Micrcontroller STM32C0/SPI_Clk*
X150000000Y-67460000D03*
D12*
G04 #@! TO.P,J13,2,Pin_2*
G04 #@! TO.N,/SD_CARD/SPI_Clk_SD*
X150000000Y-70000000D03*
G04 #@! TO.P,J13,3,Pin_3*
G04 #@! TO.N,/SD_CARD/SPI_Clk_Break*
X150000000Y-72540000D03*
G04 #@! TD*
D13*
G04 #@! TO.P,R24,1*
G04 #@! TO.N,-3V3*
X137000000Y-90175000D03*
G04 #@! TO.P,R24,2*
G04 #@! TO.N,Net-(U12D--)*
X137000000Y-92000000D03*
G04 #@! TD*
G04 #@! TO.P,R10,1*
G04 #@! TO.N,Earth*
X114500000Y-125175000D03*
G04 #@! TO.P,R10,2*
G04 #@! TO.N,Net-(U7-ADJ)*
X114500000Y-127000000D03*
G04 #@! TD*
D35*
G04 #@! TO.P,U2,1,VOUT*
G04 #@! TO.N,Net-(U2-VOUT)*
X130050000Y-119137500D03*
G04 #@! TO.P,U2,2,GND*
G04 #@! TO.N,Earth*
X131000000Y-119137500D03*
G04 #@! TO.P,U2,3,VIN*
G04 #@! TO.N,+3.3V*
X131950000Y-119137500D03*
G04 #@! TO.P,U2,4,EN*
X131950000Y-116862500D03*
G04 #@! TO.P,U2,5,C1+*
G04 #@! TO.N,Net-(U2-C1+)*
X131000000Y-116862500D03*
G04 #@! TO.P,U2,6,C1-*
G04 #@! TO.N,Net-(U2-C1-)*
X130050000Y-116862500D03*
G04 #@! TD*
D36*
G04 #@! TO.P,J3,1,Pin_1*
G04 #@! TO.N,/Micrcontroller STM32C0/I2C1_SCL*
X174500000Y-96600000D03*
D37*
G04 #@! TO.P,J3,2,Pin_2*
G04 #@! TO.N,/Micrcontroller STM32C0/I2C1_SDA*
X174500000Y-94060000D03*
G04 #@! TD*
D38*
G04 #@! TO.P,R2,1*
G04 #@! TO.N,Net-(J1-D-)*
X166500000Y-112000000D03*
G04 #@! TO.P,R2,2*
G04 #@! TO.N,/USB to UART/USBD-*
X164675000Y-112000000D03*
G04 #@! TD*
D13*
G04 #@! TO.P,R17,1*
G04 #@! TO.N,Net-(U10-+)*
X108900000Y-80387500D03*
G04 #@! TO.P,R17,2*
G04 #@! TO.N,Earth*
X108900000Y-82212500D03*
G04 #@! TD*
D39*
G04 #@! TO.P,U10,1,-*
G04 #@! TO.N,Net-(U10--)*
X113887500Y-69025000D03*
G04 #@! TO.P,U10,2,Rg*
G04 #@! TO.N,Net-(R19-Pad1)*
X113887500Y-69675000D03*
G04 #@! TO.P,U10,3,Rg*
G04 #@! TO.N,Net-(R19-Pad2)*
X113887500Y-70325000D03*
G04 #@! TO.P,U10,4,+*
G04 #@! TO.N,Net-(U10-+)*
X113887500Y-70975000D03*
G04 #@! TO.P,U10,5,Vs-*
G04 #@! TO.N,-3V3*
X118112500Y-70975000D03*
G04 #@! TO.P,U10,6,Ref*
G04 #@! TO.N,/Voltage and Current Measurement/1.6 V Ref*
X118112500Y-70325000D03*
G04 #@! TO.P,U10,7*
G04 #@! TO.N,Net-(R13-Pad1)*
X118112500Y-69675000D03*
G04 #@! TO.P,U10,8,Vs+*
G04 #@! TO.N,+3.3V*
X118112500Y-69025000D03*
G04 #@! TD*
D40*
G04 #@! TO.P,U6,1,GND*
G04 #@! TO.N,Earth*
X136700000Y-124150000D03*
G04 #@! TO.P,U6,2,VO*
G04 #@! TO.N,+3.3V*
X139000000Y-124150000D03*
D41*
X139000000Y-117850000D03*
D40*
G04 #@! TO.P,U6,3,VI*
G04 #@! TO.N,/Power/Rsense-*
X141300000Y-124150000D03*
G04 #@! TD*
D18*
G04 #@! TO.P,C29,1*
G04 #@! TO.N,-3V3*
X132500000Y-98450000D03*
G04 #@! TO.P,C29,2*
G04 #@! TO.N,Earth*
X132500000Y-96550000D03*
G04 #@! TD*
D22*
G04 #@! TO.P,C4,1*
G04 #@! TO.N,Net-(J1-D-)*
X166500000Y-114150000D03*
G04 #@! TO.P,C4,2*
G04 #@! TO.N,Earth*
X166500000Y-116050000D03*
G04 #@! TD*
D16*
G04 #@! TO.P,C27,1*
G04 #@! TO.N,Earth*
X118050000Y-76000000D03*
G04 #@! TO.P,C27,2*
G04 #@! TO.N,-3V3*
X119950000Y-76000000D03*
G04 #@! TD*
G04 #@! TO.P,C34,1*
G04 #@! TO.N,Earth*
X106050000Y-93000000D03*
G04 #@! TO.P,C34,2*
G04 #@! TO.N,+3.3V*
X107950000Y-93000000D03*
G04 #@! TD*
D23*
G04 #@! TO.P,C6,1*
G04 #@! TO.N,+3.3V*
X138950000Y-127000000D03*
G04 #@! TO.P,C6,2*
G04 #@! TO.N,Earth*
X137050000Y-127000000D03*
G04 #@! TD*
D22*
G04 #@! TO.P,C37,1*
G04 #@! TO.N,+3.3V*
X147000000Y-127050000D03*
G04 #@! TO.P,C37,2*
G04 #@! TO.N,Earth*
X147000000Y-128950000D03*
G04 #@! TD*
D23*
G04 #@! TO.P,C15,1*
G04 #@! TO.N,Net-(U2-C1+)*
X130950000Y-114000000D03*
G04 #@! TO.P,C15,2*
G04 #@! TO.N,Net-(U2-C1-)*
X129050000Y-114000000D03*
G04 #@! TD*
D17*
G04 #@! TO.P,R3,1*
G04 #@! TO.N,Net-(D1-K)*
X106090000Y-124912500D03*
G04 #@! TO.P,R3,2*
G04 #@! TO.N,Net-(U1-CBUS1)*
X106090000Y-123087500D03*
G04 #@! TD*
D22*
G04 #@! TO.P,C1,1*
G04 #@! TO.N,Net-(J1-VBUS)*
X169000000Y-114150000D03*
G04 #@! TO.P,C1,2*
G04 #@! TO.N,Earth*
X169000000Y-116050000D03*
G04 #@! TD*
D38*
G04 #@! TO.P,R1,1*
G04 #@! TO.N,Net-(J1-D+)*
X166500000Y-109500000D03*
G04 #@! TO.P,R1,2*
G04 #@! TO.N,/USB to UART/USBD+*
X164675000Y-109500000D03*
G04 #@! TD*
D16*
G04 #@! TO.P,C5,1*
G04 #@! TO.N,+3.3V*
X175037500Y-62300000D03*
G04 #@! TO.P,C5,2*
G04 #@! TO.N,Earth*
X176937500Y-62300000D03*
G04 #@! TD*
D22*
G04 #@! TO.P,C13,1*
G04 #@! TO.N,+3.3V*
X150100000Y-89100000D03*
G04 #@! TO.P,C13,2*
G04 #@! TO.N,Earth*
X150100000Y-91000000D03*
G04 #@! TD*
D11*
G04 #@! TO.P,J14,1,Pin_1*
G04 #@! TO.N,/Micrcontroller STM32C0/SPI_Miso*
X140000000Y-67460000D03*
D12*
G04 #@! TO.P,J14,2,Pin_2*
G04 #@! TO.N,/SD_CARD/SPI_Miso_SD*
X140000000Y-70000000D03*
G04 #@! TO.P,J14,3,Pin_3*
G04 #@! TO.N,/SD_CARD/SPI_Miso_Break*
X140000000Y-72540000D03*
G04 #@! TD*
D18*
G04 #@! TO.P,C7,1*
G04 #@! TO.N,/Power/Rsense-*
X146000000Y-122950000D03*
G04 #@! TO.P,C7,2*
G04 #@! TO.N,Earth*
X146000000Y-121050000D03*
G04 #@! TD*
D17*
G04 #@! TO.P,R22,1*
G04 #@! TO.N,Earth*
X138500000Y-106412500D03*
G04 #@! TO.P,R22,2*
G04 #@! TO.N,Net-(U12C-+)*
X138500000Y-104587500D03*
G04 #@! TD*
G04 #@! TO.P,R25,1*
G04 #@! TO.N,Net-(U12B-+)*
X119000000Y-102300000D03*
G04 #@! TO.P,R25,2*
G04 #@! TO.N,+3.3V*
X119000000Y-100475000D03*
G04 #@! TD*
D13*
G04 #@! TO.P,R6,1*
G04 #@! TO.N,+3.3V*
X130000000Y-61087500D03*
G04 #@! TO.P,R6,2*
G04 #@! TO.N,/SD_CARD/SPI_Mosi_SD*
X130000000Y-62912500D03*
G04 #@! TD*
D11*
G04 #@! TO.P,J11,1,Pin_1*
G04 #@! TO.N,/Micrcontroller STM32C0/SPI_Cs*
X160000000Y-67460000D03*
D12*
G04 #@! TO.P,J11,2,Pin_2*
G04 #@! TO.N,/SD_CARD/SPI_Cs_SD*
X160000000Y-70000000D03*
G04 #@! TO.P,J11,3,Pin_3*
G04 #@! TO.N,/SD_CARD/SPI_Cs_Break*
X160000000Y-72540000D03*
G04 #@! TD*
D19*
G04 #@! TO.P,D2,1,K*
G04 #@! TO.N,Net-(D2-K)*
X111000000Y-120875000D03*
G04 #@! TO.P,D2,2,A*
G04 #@! TO.N,/USB to UART/USB_3V3*
X111000000Y-119000000D03*
G04 #@! TD*
D42*
G04 #@! TO.P,SW2,1,1*
G04 #@! TO.N,/Micrcontroller STM32C0/NRST*
X173250000Y-82200000D03*
X179750000Y-82200000D03*
G04 #@! TO.P,SW2,2,2*
G04 #@! TO.N,Earth*
X173250000Y-86700000D03*
X179750000Y-86700000D03*
G04 #@! TD*
D20*
G04 #@! TO.P,U11,1*
G04 #@! TO.N,/Micrcontroller STM32C0/i_Supply*
X152137500Y-125950000D03*
G04 #@! TO.P,U11,2,V-*
G04 #@! TO.N,Earth*
X152137500Y-125000000D03*
G04 #@! TO.P,U11,3,+*
G04 #@! TO.N,/Power/Rsense+*
X152137500Y-124050000D03*
G04 #@! TO.P,U11,4,-*
G04 #@! TO.N,/Power/Rsense-*
X149862500Y-124050000D03*
G04 #@! TO.P,U11,5*
G04 #@! TO.N,N/C*
X149862500Y-125000000D03*
G04 #@! TO.P,U11,6,V+*
G04 #@! TO.N,+3.3V*
X149862500Y-125950000D03*
G04 #@! TD*
D14*
G04 #@! TO.P,U12,1*
G04 #@! TO.N,/Micrcontroller STM32C0/Volt_meas*
X123300000Y-94190000D03*
G04 #@! TO.P,U12,2,-*
X123300000Y-95460000D03*
G04 #@! TO.P,U12,3,+*
G04 #@! TO.N,Net-(U12A-+)*
X123300000Y-96730000D03*
G04 #@! TO.P,U12,4,V+*
G04 #@! TO.N,+3.3V*
X123300000Y-98000000D03*
G04 #@! TO.P,U12,5,+*
G04 #@! TO.N,Net-(U12B-+)*
X123300000Y-99270000D03*
G04 #@! TO.P,U12,6,-*
G04 #@! TO.N,/Voltage and Current Measurement/1.6 V Ref*
X123300000Y-100540000D03*
G04 #@! TO.P,U12,7*
X123300000Y-101810000D03*
G04 #@! TO.P,U12,8*
G04 #@! TO.N,/Micrcontroller STM32C0/+3V3_Meas*
X128700000Y-101810000D03*
G04 #@! TO.P,U12,9,-*
X128700000Y-100540000D03*
G04 #@! TO.P,U12,10,+*
G04 #@! TO.N,Net-(U12C-+)*
X128700000Y-99270000D03*
G04 #@! TO.P,U12,11,V-*
G04 #@! TO.N,-3V3*
X128700000Y-98000000D03*
G04 #@! TO.P,U12,12,+*
G04 #@! TO.N,Earth*
X128700000Y-96730000D03*
G04 #@! TO.P,U12,13,-*
G04 #@! TO.N,Net-(U12D--)*
X128700000Y-95460000D03*
G04 #@! TO.P,U12,14*
G04 #@! TO.N,/Micrcontroller STM32C0/-3V3_Supply*
X128700000Y-94190000D03*
G04 #@! TD*
D11*
G04 #@! TO.P,J10,1,Pin_1*
G04 #@! TO.N,/Connectors/DEBUG_SWCLK*
X171000000Y-50000000D03*
D12*
G04 #@! TO.P,J10,2,Pin_2*
G04 #@! TO.N,/Connectors/DEBUG_SWDIO*
X168460000Y-50000000D03*
G04 #@! TO.P,J10,3,Pin_3*
G04 #@! TO.N,/Connectors/PA12{slash}PA10*
X165920000Y-50000000D03*
G04 #@! TO.P,J10,4,Pin_4*
G04 #@! TO.N,/Connectors/PA11{slash}PA9*
X163380000Y-50000000D03*
G04 #@! TO.P,J10,5,Pin_5*
G04 #@! TO.N,/Connectors/PC7*
X160840000Y-50000000D03*
G04 #@! TO.P,J10,6,Pin_6*
G04 #@! TO.N,/Connectors/PC6*
X158300000Y-50000000D03*
G04 #@! TO.P,J10,7,Pin_7*
G04 #@! TO.N,/Micrcontroller STM32C0/UART2_Tx*
X155760000Y-50000000D03*
G04 #@! TO.P,J10,8,Pin_8*
G04 #@! TO.N,/Connectors/PB15*
X153220000Y-50000000D03*
G04 #@! TO.P,J10,9,Pin_9*
G04 #@! TO.N,/Connectors/PB13*
X150680000Y-50000000D03*
G04 #@! TO.P,J10,10,Pin_10*
G04 #@! TO.N,/Connectors/PB14*
X148140000Y-50000000D03*
G04 #@! TO.P,J10,11,Pin_11*
G04 #@! TO.N,/Connectors/PB12*
X145600000Y-50000000D03*
G04 #@! TO.P,J10,12,Pin_12*
G04 #@! TO.N,/Connectors/PB11*
X143060000Y-50000000D03*
G04 #@! TO.P,J10,13,Pin_13*
G04 #@! TO.N,/Connectors/PB10*
X140520000Y-50000000D03*
G04 #@! TO.P,J10,14,Pin_14*
G04 #@! TO.N,/Connectors/PB1*
X137980000Y-50000000D03*
G04 #@! TO.P,J10,15,Pin_15*
G04 #@! TO.N,/Connectors/PA7*
X135440000Y-50000000D03*
G04 #@! TO.P,J10,16,Pin_16*
G04 #@! TO.N,/Connectors/PB2*
X132900000Y-50000000D03*
G04 #@! TO.P,J10,17,Pin_17*
G04 #@! TO.N,unconnected-(J10-Pin_17-Pad17)*
X130360000Y-50000000D03*
G04 #@! TO.P,J10,18,Pin_18*
G04 #@! TO.N,/Micrcontroller STM32C0/UART2_Rx*
X127820000Y-50000000D03*
G04 #@! TO.P,J10,19,Pin_19*
G04 #@! TO.N,/Connectors/PD0*
X125280000Y-50000000D03*
G04 #@! TO.P,J10,20,Pin_20*
G04 #@! TO.N,/Connectors/PD1*
X122740000Y-50000000D03*
G04 #@! TO.P,J10,21,Pin_21*
G04 #@! TO.N,/Connectors/PD2*
X120200000Y-50000000D03*
G04 #@! TO.P,J10,22,Pin_22*
G04 #@! TO.N,/Connectors/PD3*
X117660000Y-50000000D03*
G04 #@! TO.P,J10,23,Pin_23*
G04 #@! TO.N,/Connectors/PB6*
X115120000Y-50000000D03*
G04 #@! TO.P,J10,24,Pin_24*
G04 #@! TO.N,/Connectors/PB7*
X112580000Y-50000000D03*
G04 #@! TO.P,J10,25,Pin_25*
G04 #@! TO.N,/Connectors/PB8*
X110040000Y-50000000D03*
G04 #@! TO.P,J10,26,Pin_26*
G04 #@! TO.N,/Connectors/PB9*
X107500000Y-50000000D03*
G04 #@! TO.P,J10,27,Pin_27*
G04 #@! TO.N,/Connectors/PC13*
X104960000Y-50000000D03*
G04 #@! TO.P,J10,28,Pin_28*
G04 #@! TO.N,/Connectors/PC14*
X102420000Y-50000000D03*
G04 #@! TO.P,J10,29,Pin_29*
G04 #@! TO.N,/Connectors/PC15*
X99880000Y-50000000D03*
G04 #@! TO.P,J10,30,Pin_30*
G04 #@! TO.N,/Connectors/PF3*
X97340000Y-50000000D03*
G04 #@! TD*
D43*
G04 #@! TO.P,FB1,1*
G04 #@! TO.N,VBUS*
X162500000Y-112937500D03*
G04 #@! TO.P,FB1,2*
G04 #@! TO.N,Net-(J1-VBUS)*
X162500000Y-115062500D03*
G04 #@! TD*
D44*
G04 #@! TO.P,U4,1,PC13*
G04 #@! TO.N,/Connectors/PC13*
X157337500Y-92250000D03*
G04 #@! TO.P,U4,2,PC14*
G04 #@! TO.N,/Connectors/PC14*
X157337500Y-92750000D03*
G04 #@! TO.P,U4,3,PC15*
G04 #@! TO.N,/Connectors/PC15*
X157337500Y-93250000D03*
G04 #@! TO.P,U4,4,PF3*
G04 #@! TO.N,/Connectors/PF3*
X157337500Y-93750000D03*
G04 #@! TO.P,U4,5,VREF+*
G04 #@! TO.N,/Micrcontroller STM32C0/3.3V_Ref*
X157337500Y-94250000D03*
G04 #@! TO.P,U4,6,VDD*
G04 #@! TO.N,+3.3V*
X157337500Y-94750000D03*
G04 #@! TO.P,U4,7,VSS*
G04 #@! TO.N,Earth*
X157337500Y-95250000D03*
G04 #@! TO.P,U4,8,PF0*
G04 #@! TO.N,/Micrcontroller STM32C0/OSC_IN*
X157337500Y-95750000D03*
G04 #@! TO.P,U4,9,PF1*
G04 #@! TO.N,/Micrcontroller STM32C0/OSC_OUT*
X157337500Y-96250000D03*
G04 #@! TO.P,U4,10,PF2*
G04 #@! TO.N,/Micrcontroller STM32C0/NRST*
X157337500Y-96750000D03*
G04 #@! TO.P,U4,11,PA0*
G04 #@! TO.N,/Micrcontroller STM32C0/UART1_Tx*
X157337500Y-97250000D03*
G04 #@! TO.P,U4,12,PA1*
G04 #@! TO.N,/Micrcontroller STM32C0/UART1_Rx*
X157337500Y-97750000D03*
D45*
G04 #@! TO.P,U4,13,PA2*
G04 #@! TO.N,/Micrcontroller STM32C0/+3V3_Meas*
X158750000Y-99162500D03*
G04 #@! TO.P,U4,14,PA3*
G04 #@! TO.N,/Micrcontroller STM32C0/-3V3_Supply*
X159250000Y-99162500D03*
G04 #@! TO.P,U4,15,PA4*
G04 #@! TO.N,/Micrcontroller STM32C0/Volt_meas*
X159750000Y-99162500D03*
G04 #@! TO.P,U4,16,PA5*
G04 #@! TO.N,/Micrcontroller STM32C0/Curr_meas*
X160250000Y-99162500D03*
G04 #@! TO.P,U4,17,PA6*
G04 #@! TO.N,/Micrcontroller STM32C0/i_Supply*
X160750000Y-99162500D03*
G04 #@! TO.P,U4,18,PA7*
G04 #@! TO.N,/Connectors/PA7*
X161250000Y-99162500D03*
G04 #@! TO.P,U4,19,PB0*
G04 #@! TO.N,/Micrcontroller STM32C0/SPI_Cs*
X161750000Y-99162500D03*
G04 #@! TO.P,U4,20,PB1*
G04 #@! TO.N,/Connectors/PB1*
X162250000Y-99162500D03*
G04 #@! TO.P,U4,21,PB2*
G04 #@! TO.N,/Connectors/PB2*
X162750000Y-99162500D03*
G04 #@! TO.P,U4,22,PB10*
G04 #@! TO.N,/Connectors/PB10*
X163250000Y-99162500D03*
G04 #@! TO.P,U4,23,PB11*
G04 #@! TO.N,/Connectors/PB11*
X163750000Y-99162500D03*
G04 #@! TO.P,U4,24,PB12*
G04 #@! TO.N,/Connectors/PB12*
X164250000Y-99162500D03*
D44*
G04 #@! TO.P,U4,25,PB13*
G04 #@! TO.N,/Connectors/PB14*
X165662500Y-97750000D03*
G04 #@! TO.P,U4,26,PB14*
G04 #@! TO.N,/Connectors/PB13*
X165662500Y-97250000D03*
G04 #@! TO.P,U4,27,PB15*
G04 #@! TO.N,/Connectors/PB15*
X165662500Y-96750000D03*
G04 #@! TO.P,U4,28,PA8*
G04 #@! TO.N,/Micrcontroller STM32C0/UART2_Tx*
X165662500Y-96250000D03*
G04 #@! TO.P,U4,29,PA9/NC*
G04 #@! TO.N,/Micrcontroller STM32C0/I2C1_SCL*
X165662500Y-95750000D03*
G04 #@! TO.P,U4,30,PC6*
G04 #@! TO.N,/Connectors/PC6*
X165662500Y-95250000D03*
G04 #@! TO.P,U4,31,PC7*
G04 #@! TO.N,/Connectors/PC7*
X165662500Y-94750000D03*
G04 #@! TO.P,U4,32,PA10/NC*
G04 #@! TO.N,/Micrcontroller STM32C0/I2C1_SDA*
X165662500Y-94250000D03*
G04 #@! TO.P,U4,33,PA11/PA9*
G04 #@! TO.N,/Connectors/PA11{slash}PA9*
X165662500Y-93750000D03*
G04 #@! TO.P,U4,34,PA12/PA10*
G04 #@! TO.N,/Connectors/PA12{slash}PA10*
X165662500Y-93250000D03*
G04 #@! TO.P,U4,35,PA13*
G04 #@! TO.N,/Connectors/DEBUG_SWDIO*
X165662500Y-92750000D03*
G04 #@! TO.P,U4,36,PA14*
G04 #@! TO.N,/Connectors/DEBUG_SWCLK*
X165662500Y-92250000D03*
D45*
G04 #@! TO.P,U4,37,PA15*
G04 #@! TO.N,/Micrcontroller STM32C0/UART2_Rx*
X164250000Y-90837500D03*
G04 #@! TO.P,U4,38,PD0*
G04 #@! TO.N,/Connectors/PD0*
X163750000Y-90837500D03*
G04 #@! TO.P,U4,39,PD1*
G04 #@! TO.N,/Connectors/PD1*
X163250000Y-90837500D03*
G04 #@! TO.P,U4,40,PD2*
G04 #@! TO.N,/Connectors/PD2*
X162750000Y-90837500D03*
G04 #@! TO.P,U4,41,PD3*
G04 #@! TO.N,/Connectors/PD3*
X162250000Y-90837500D03*
G04 #@! TO.P,U4,42,PB3*
G04 #@! TO.N,/Micrcontroller STM32C0/SPI_Clk*
X161750000Y-90837500D03*
G04 #@! TO.P,U4,43,PB4*
G04 #@! TO.N,/Micrcontroller STM32C0/SPI_Miso*
X161250000Y-90837500D03*
G04 #@! TO.P,U4,44,PB5*
G04 #@! TO.N,/Micrcontroller STM32C0/SPI_Mosi*
X160750000Y-90837500D03*
G04 #@! TO.P,U4,45,PB6*
G04 #@! TO.N,/Connectors/PB6*
X160250000Y-90837500D03*
G04 #@! TO.P,U4,46,PB7*
G04 #@! TO.N,/Connectors/PB7*
X159750000Y-90837500D03*
G04 #@! TO.P,U4,47,PB8*
G04 #@! TO.N,/Connectors/PB8*
X159250000Y-90837500D03*
G04 #@! TO.P,U4,48,PB9*
G04 #@! TO.N,/Connectors/PB9*
X158750000Y-90837500D03*
G04 #@! TD*
D30*
G04 #@! TO.P,R12,1*
G04 #@! TO.N,Net-(R11-Pad2)*
X106900000Y-65500000D03*
G04 #@! TO.P,R12,2*
G04 #@! TO.N,Net-(U10--)*
X108725000Y-65500000D03*
G04 #@! TD*
D11*
G04 #@! TO.P,JP1,1,A*
G04 #@! TO.N,VBUS*
X157000000Y-122460000D03*
D12*
G04 #@! TO.P,JP1,2,B*
G04 #@! TO.N,/Power/Rsense+*
X157000000Y-125000000D03*
G04 #@! TD*
D13*
G04 #@! TO.P,R18,1*
G04 #@! TO.N,Earth*
X112000000Y-63000000D03*
G04 #@! TO.P,R18,2*
G04 #@! TO.N,Net-(U10--)*
X112000000Y-64825000D03*
G04 #@! TD*
D18*
G04 #@! TO.P,C20,1*
G04 #@! TO.N,Earth*
X128000000Y-88950000D03*
G04 #@! TO.P,C20,2*
G04 #@! TO.N,Net-(U12A-+)*
X128000000Y-87050000D03*
G04 #@! TD*
D22*
G04 #@! TO.P,C38,1*
G04 #@! TO.N,+3.3V*
X144000000Y-127050000D03*
G04 #@! TO.P,C38,2*
G04 #@! TO.N,Earth*
X144000000Y-128950000D03*
G04 #@! TD*
D46*
G04 #@! TO.P,Y2,1,1*
G04 #@! TO.N,/Micrcontroller STM32C0/OSC_IN*
X147800000Y-94375000D03*
G04 #@! TO.P,Y2,2,2*
G04 #@! TO.N,Earth*
X147800000Y-97125000D03*
G04 #@! TO.P,Y2,3,3*
G04 #@! TO.N,/Micrcontroller STM32C0/OSC_OUT*
X150000000Y-97125000D03*
G04 #@! TO.P,Y2,4,4*
G04 #@! TO.N,Earth*
X150000000Y-94375000D03*
G04 #@! TD*
D30*
G04 #@! TO.P,R15,1*
G04 #@! TO.N,Net-(J7-Pin_1)*
X102087500Y-78000000D03*
G04 #@! TO.P,R15,2*
G04 #@! TO.N,Net-(R15-Pad2)*
X103912500Y-78000000D03*
G04 #@! TD*
D18*
G04 #@! TO.P,C30,1*
G04 #@! TO.N,-3V3*
X135500000Y-98450000D03*
G04 #@! TO.P,C30,2*
G04 #@! TO.N,Earth*
X135500000Y-96550000D03*
G04 #@! TD*
D47*
G04 #@! TO.P,J4,1,Pin_1*
G04 #@! TO.N,Net-(J4-Pin_1)*
X93000000Y-62500000D03*
G04 #@! TD*
G04 #@! TO.P,J8,1,Pin_1*
G04 #@! TO.N,Net-(J8-Pin_1)*
X93000000Y-110000000D03*
G04 #@! TD*
D22*
G04 #@! TO.P,C12,1*
G04 #@! TO.N,/Micrcontroller STM32C0/NRST*
X168900000Y-82900000D03*
G04 #@! TO.P,C12,2*
G04 #@! TO.N,Earth*
X168900000Y-84800000D03*
G04 #@! TD*
D47*
G04 #@! TO.P,J7,1,Pin_1*
G04 #@! TO.N,Net-(J7-Pin_1)*
X93000000Y-78000000D03*
G04 #@! TD*
D16*
G04 #@! TO.P,C28,1*
G04 #@! TO.N,Earth*
X118050000Y-73500000D03*
G04 #@! TO.P,C28,2*
G04 #@! TO.N,-3V3*
X119950000Y-73500000D03*
G04 #@! TD*
G04 #@! TO.P,C21,1*
G04 #@! TO.N,Net-(J4-Pin_1)*
X101775000Y-62500000D03*
G04 #@! TO.P,C21,2*
G04 #@! TO.N,Net-(C21-Pad2)*
X103675000Y-62500000D03*
G04 #@! TD*
D15*
G04 #@! TO.P,TP1,1,1*
G04 #@! TO.N,Net-(U1-~{RTS})*
X147000000Y-110000000D03*
G04 #@! TD*
D17*
G04 #@! TO.P,R23,1*
G04 #@! TO.N,Net-(U12D--)*
X133000000Y-92000000D03*
G04 #@! TO.P,R23,2*
G04 #@! TO.N,/Micrcontroller STM32C0/-3V3_Supply*
X133000000Y-90175000D03*
G04 #@! TD*
D16*
G04 #@! TO.P,C16,1*
G04 #@! TO.N,Net-(U2-VOUT)*
X128550000Y-126500000D03*
G04 #@! TO.P,C16,2*
G04 #@! TO.N,Earth*
X130450000Y-126500000D03*
G04 #@! TD*
D23*
G04 #@! TO.P,C17,1*
G04 #@! TO.N,+3.3V*
X131950000Y-122000000D03*
G04 #@! TO.P,C17,2*
G04 #@! TO.N,Earth*
X130050000Y-122000000D03*
G04 #@! TD*
D30*
G04 #@! TO.P,R13,1*
G04 #@! TO.N,Net-(R13-Pad1)*
X120087500Y-84000000D03*
G04 #@! TO.P,R13,2*
G04 #@! TO.N,Net-(C19-Pad1)*
X121912500Y-84000000D03*
G04 #@! TD*
D38*
G04 #@! TO.P,R20,1*
G04 #@! TO.N,/Power/Rsense+*
X151912500Y-120000000D03*
G04 #@! TO.P,R20,2*
G04 #@! TO.N,/Power/Rsense-*
X150087500Y-120000000D03*
G04 #@! TD*
D11*
G04 #@! TO.P,JP2,1,A*
G04 #@! TO.N,Net-(J6-Pin_1)*
X163000000Y-122460000D03*
D12*
G04 #@! TO.P,JP2,2,B*
G04 #@! TO.N,/Power/Rsense+*
X163000000Y-125000000D03*
G04 #@! TD*
D13*
G04 #@! TO.P,R7,1*
G04 #@! TO.N,+3.3V*
X160000000Y-61087500D03*
G04 #@! TO.P,R7,2*
G04 #@! TO.N,/SD_CARD/SPI_Cs_SD*
X160000000Y-62912500D03*
G04 #@! TD*
D30*
G04 #@! TO.P,R16,1*
G04 #@! TO.N,Net-(R15-Pad2)*
X107087500Y-78000000D03*
G04 #@! TO.P,R16,2*
G04 #@! TO.N,Net-(U10-+)*
X108912500Y-78000000D03*
G04 #@! TD*
D22*
G04 #@! TO.P,C11,1*
G04 #@! TO.N,/Micrcontroller STM32C0/OSC_OUT*
X152900000Y-96700000D03*
G04 #@! TO.P,C11,2*
G04 #@! TO.N,Earth*
X152900000Y-98600000D03*
G04 #@! TD*
D23*
G04 #@! TO.P,C22,1*
G04 #@! TO.N,Earth*
X120000000Y-63000000D03*
G04 #@! TO.P,C22,2*
G04 #@! TO.N,+3.3V*
X118100000Y-63000000D03*
G04 #@! TD*
D17*
G04 #@! TO.P,R9,1*
G04 #@! TO.N,Net-(U7-ADJ)*
X117500000Y-126912500D03*
G04 #@! TO.P,R9,2*
G04 #@! TO.N,-3V3*
X117500000Y-125087500D03*
G04 #@! TD*
D22*
G04 #@! TO.P,C14,1*
G04 #@! TO.N,+3.3V*
X153100000Y-89100000D03*
G04 #@! TO.P,C14,2*
G04 #@! TO.N,Earth*
X153100000Y-91000000D03*
G04 #@! TD*
D48*
G04 #@! TO.P,J6,1,Pin_1*
G04 #@! TO.N,Net-(J6-Pin_1)*
X168000000Y-122460000D03*
G04 #@! TD*
D16*
G04 #@! TO.P,C25,1*
G04 #@! TO.N,Net-(C24-Pad2)*
X107050000Y-75000000D03*
G04 #@! TO.P,C25,2*
G04 #@! TO.N,Net-(U10-+)*
X108950000Y-75000000D03*
G04 #@! TD*
D47*
G04 #@! TO.P,J9,1,Pin_1*
G04 #@! TO.N,Net-(J9-Pin_1)*
X93000000Y-95000000D03*
G04 #@! TD*
D22*
G04 #@! TO.P,C36,1*
G04 #@! TO.N,Earth*
X112000000Y-98050000D03*
G04 #@! TO.P,C36,2*
G04 #@! TO.N,/Micrcontroller STM32C0/Curr_meas*
X112000000Y-99950000D03*
G04 #@! TD*
D49*
G04 #@! TO.N,Earth*
X112000000Y-105600000D03*
X146000000Y-119500000D03*
X112000000Y-96500000D03*
X149000000Y-129000000D03*
X148000000Y-91000000D03*
X122000000Y-63000000D03*
X134500000Y-127000000D03*
D50*
X140200000Y-106400000D03*
D51*
X118000000Y-78300000D03*
D49*
X154500000Y-115000000D03*
X108900000Y-83700000D03*
X116600000Y-94800000D03*
D50*
X152000000Y-110500000D03*
D49*
X120500000Y-118500000D03*
D50*
X166500000Y-104000000D03*
D51*
X165500000Y-120800000D03*
D49*
X114500000Y-123000000D03*
X104300000Y-96000000D03*
X112000000Y-61500000D03*
X154000000Y-125500000D03*
D50*
X161558688Y-109808951D03*
D51*
X178900000Y-62300000D03*
D50*
X128000000Y-90300000D03*
D49*
X130500000Y-129000000D03*
D51*
X122500000Y-66800000D03*
X181400000Y-73300000D03*
D49*
X166500000Y-118000000D03*
D50*
X135500000Y-95300000D03*
D49*
X143900000Y-82000000D03*
D50*
G04 #@! TO.N,/USB to UART/USB_3V3*
X152500000Y-109000000D03*
X149500000Y-111000000D03*
X152500000Y-113500000D03*
D51*
G04 #@! TO.N,+3.3V*
X141500000Y-95300000D03*
D49*
X141500000Y-105000000D03*
X140000000Y-114000000D03*
X136750000Y-57750000D03*
X142600000Y-61100000D03*
X151900000Y-61300000D03*
D51*
X139000000Y-98800000D03*
D49*
X154800000Y-61300000D03*
G04 #@! TO.N,-3V3*
X133900000Y-100700000D03*
X135600000Y-88200000D03*
D51*
X118500000Y-81800000D03*
D49*
X124200000Y-121200000D03*
D50*
G04 #@! TO.N,/Micrcontroller STM32C0/Volt_meas*
X158500000Y-102000000D03*
X151000000Y-102000000D03*
D51*
G04 #@! TO.N,VBUS*
X162500000Y-111500000D03*
G04 #@! TO.N,/SD_CARD/SPI_Clk_SD*
X160400000Y-75400000D03*
X165400000Y-72300000D03*
G04 #@! TO.N,/SD_CARD/SPI_Mosi_SD*
X164800000Y-69000000D03*
X155700000Y-65100000D03*
G04 #@! TO.N,/SD_CARD/SPI_Miso_SD*
X165700000Y-77500000D03*
X156000000Y-77500000D03*
D50*
G04 #@! TO.N,/Connectors/PF3*
X158937261Y-94300003D03*
G04 #@! TO.N,/Connectors/PB1*
X182500000Y-100500000D03*
G04 #@! TO.N,/Connectors/PD2*
X165000000Y-85750000D03*
G04 #@! TO.N,/Connectors/PB12*
X180000000Y-56500000D03*
X183500000Y-95000000D03*
X183450000Y-55500000D03*
G04 #@! TO.N,/Connectors/PD1*
X166000000Y-86500000D03*
G04 #@! TO.N,/Connectors/PC6*
X168000000Y-95000000D03*
X170500000Y-93500000D03*
G04 #@! TO.N,/Connectors/PC14*
X160600000Y-93100000D03*
G04 #@! TO.N,/Connectors/PD3*
X163500000Y-86250000D03*
G04 #@! TO.N,/Micrcontroller STM32C0/UART2_Rx*
X166250000Y-88750000D03*
X162150000Y-78250000D03*
X161000000Y-76500000D03*
G04 #@! TO.N,/Micrcontroller STM32C0/UART2_Tx*
X168000000Y-96500000D03*
X179000000Y-93500000D03*
G04 #@! TO.N,/Connectors/PB11*
X181000000Y-99000000D03*
G04 #@! TO.N,/Connectors/PC15*
X159900000Y-94200000D03*
G04 #@! TO.N,/Connectors/PB14*
X182000000Y-55500000D03*
X182500000Y-95000000D03*
X176500000Y-53500000D03*
G04 #@! TO.N,/Connectors/PC13*
X159900000Y-92200000D03*
G04 #@! TO.N,/Connectors/PA7*
X183000000Y-101500000D03*
G04 #@! TO.N,/Connectors/PD0*
X166250000Y-87500000D03*
X161000000Y-78500000D03*
X159250000Y-76500000D03*
G04 #@! TO.N,/Connectors/PC7*
X169000000Y-93500000D03*
X164000000Y-94500000D03*
G04 #@! TO.N,/Connectors/PB7*
X158000000Y-83500000D03*
G04 #@! TO.N,/Connectors/PB2*
X163500000Y-97500000D03*
G04 #@! TO.N,/Connectors/PB8*
X157800000Y-84500000D03*
G04 #@! TO.N,/Connectors/PB10*
X181500000Y-100000000D03*
G04 #@! TO.N,/Connectors/PB9*
X158000000Y-85700000D03*
G04 #@! TO.N,/Connectors/PB13*
X181500000Y-94500000D03*
G04 #@! TO.N,/Connectors/PB6*
X159400000Y-84100000D03*
D51*
G04 #@! TO.N,/Micrcontroller STM32C0/SPI_Cs*
X162700000Y-86750000D03*
D50*
X162500000Y-101500000D03*
G04 #@! TO.N,Net-(U1-CBUS1)*
X122500000Y-113500000D03*
X111500000Y-116500000D03*
X161000000Y-109000000D03*
X156000000Y-117500000D03*
G04 #@! TO.N,Net-(U12D--)*
X131400000Y-91900000D03*
X126800000Y-95500000D03*
G04 #@! TO.N,/Micrcontroller STM32C0/-3V3_Supply*
X133000000Y-94190000D03*
X133000000Y-88500000D03*
X157000000Y-103000000D03*
X150000000Y-103500000D03*
G04 #@! TO.N,Net-(U1-~{RTS})*
X152500000Y-107500000D03*
X150500000Y-108500000D03*
G04 #@! TO.N,/Micrcontroller STM32C0/+3V3_Meas*
X150000000Y-104500000D03*
X156000000Y-104000000D03*
D51*
G04 #@! TO.N,/Micrcontroller STM32C0/Curr_meas*
X123000000Y-103800000D03*
D50*
X150000000Y-106500000D03*
D51*
X117500000Y-103800000D03*
D50*
X157000000Y-105000000D03*
D51*
G04 #@! TO.N,/Voltage and Current Measurement/1.6 V Ref*
X124000000Y-71300000D03*
X125500000Y-100300000D03*
X123500000Y-81300000D03*
X121000000Y-70800000D03*
G04 #@! TD*
D52*
G04 #@! TO.N,+3.3V*
X141500000Y-103700000D02*
X140925000Y-103125000D01*
D10*
G04 #@! TO.N,/Connectors/PB12*
X180300000Y-56800000D02*
X180000000Y-56500000D01*
X182150000Y-56800000D02*
X180300000Y-56800000D01*
X183450000Y-55500000D02*
X182150000Y-56800000D01*
G04 #@! TO.N,Net-(D2-K)*
X109500000Y-123800000D02*
X109500000Y-122375000D01*
X109500000Y-122375000D02*
X111000000Y-120875000D01*
X110612500Y-124912500D02*
X109500000Y-123800000D01*
X111000000Y-124912500D02*
X110612500Y-124912500D01*
G04 #@! TO.N,Net-(D1-K)*
X108600000Y-123270000D02*
X108600000Y-122360000D01*
X106957500Y-124912500D02*
X108600000Y-123270000D01*
X107115000Y-120875000D02*
X106000000Y-120875000D01*
X108600000Y-122360000D02*
X107115000Y-120875000D01*
X106090000Y-124912500D02*
X106957500Y-124912500D01*
D52*
G04 #@! TO.N,+3.3V*
X141500000Y-103700000D02*
X141500000Y-105000000D01*
X140087500Y-100587500D02*
X138500000Y-100587500D01*
X140925000Y-103125000D02*
X140925000Y-101425000D01*
X140925000Y-101425000D02*
X140087500Y-100587500D01*
D53*
G04 #@! TO.N,/Micrcontroller STM32C0/SPI_Mosi*
X139500000Y-76960000D02*
X130424264Y-67884264D01*
X160750000Y-84250000D02*
X156000000Y-79500000D01*
X156000000Y-79500000D02*
X139500000Y-79500000D01*
X139500000Y-79500000D02*
X139500000Y-76960000D01*
X160750000Y-90837500D02*
X160750000Y-84250000D01*
G04 #@! TO.N,Earth*
X138725000Y-84500000D02*
X136812500Y-84500000D01*
D52*
X169000000Y-116050000D02*
X166500000Y-116050000D01*
D54*
X106000000Y-96000000D02*
X106000000Y-93050000D01*
D53*
X135500000Y-96550000D02*
X135500000Y-95300000D01*
D54*
X147800000Y-97125000D02*
X145125000Y-97125000D01*
D10*
X119000000Y-106800000D02*
X113200000Y-106800000D01*
D54*
X120000000Y-63000000D02*
X122000000Y-63000000D01*
D52*
X144000000Y-128950000D02*
X147000000Y-128950000D01*
X153500000Y-125000000D02*
X154000000Y-125500000D01*
X120500000Y-120050000D02*
X117450000Y-120050000D01*
D54*
X144500000Y-92000000D02*
X145500000Y-91000000D01*
D53*
X140187500Y-106412500D02*
X140200000Y-106400000D01*
X156550000Y-115000000D02*
X154500000Y-115000000D01*
D52*
X130450000Y-128950000D02*
X130500000Y-129000000D01*
D54*
X144500000Y-96500000D02*
X144500000Y-92000000D01*
D53*
X132500000Y-96550000D02*
X135500000Y-96550000D01*
D52*
X111955000Y-103905000D02*
X112000000Y-103950000D01*
D54*
X145500000Y-91000000D02*
X148000000Y-91000000D01*
D52*
X171350000Y-84800000D02*
X173250000Y-86700000D01*
D54*
X152900000Y-91200000D02*
X153100000Y-91000000D01*
D52*
X118050000Y-76000000D02*
X118050000Y-78250000D01*
X168900000Y-84800000D02*
X171350000Y-84800000D01*
D10*
X113200000Y-106800000D02*
X112000000Y-105600000D01*
D54*
X152900000Y-92700000D02*
X152900000Y-91200000D01*
X150100000Y-91000000D02*
X150100000Y-94275000D01*
X106000000Y-96000000D02*
X104300000Y-96000000D01*
X148000000Y-91000000D02*
X150100000Y-91000000D01*
D52*
X152137500Y-125000000D02*
X153500000Y-125000000D01*
D54*
X151500000Y-100000000D02*
X149000000Y-100000000D01*
X116610000Y-94790000D02*
X116600000Y-94800000D01*
D52*
X132800000Y-124150000D02*
X136700000Y-124150000D01*
X117450000Y-120050000D02*
X114500000Y-123000000D01*
D53*
X132320000Y-96730000D02*
X132500000Y-96550000D01*
X155550000Y-95250000D02*
X154300000Y-94000000D01*
X154100000Y-91000000D02*
X153100000Y-91000000D01*
D52*
X118050000Y-78250000D02*
X118000000Y-78300000D01*
D53*
X154300000Y-91200000D02*
X154100000Y-91000000D01*
D54*
X120000000Y-65900000D02*
X119900000Y-66000000D01*
D52*
X108900000Y-82212500D02*
X108900000Y-83700000D01*
D53*
X166500000Y-105050000D02*
X167550000Y-105050000D01*
D52*
X131000000Y-121050000D02*
X130050000Y-122000000D01*
D53*
X138500000Y-106412500D02*
X140187500Y-106412500D01*
X138725000Y-84500000D02*
X141000000Y-84500000D01*
X161558688Y-109808951D02*
X161497237Y-109747500D01*
D52*
X120500000Y-120050000D02*
X120500000Y-118500000D01*
X147000000Y-128950000D02*
X148950000Y-128950000D01*
D53*
X152117500Y-110382500D02*
X152000000Y-110500000D01*
X154200000Y-110382500D02*
X152117500Y-110382500D01*
D54*
X149000000Y-100000000D02*
X147800000Y-98800000D01*
D52*
X130450000Y-126500000D02*
X130450000Y-128950000D01*
X143862500Y-83550000D02*
X143862500Y-82037500D01*
X137050000Y-124500000D02*
X136700000Y-124150000D01*
X137050000Y-127000000D02*
X137050000Y-124500000D01*
X131000000Y-119137500D02*
X131000000Y-121050000D01*
D54*
X153100000Y-91000000D02*
X150100000Y-91000000D01*
D52*
X143862500Y-82037500D02*
X143900000Y-82000000D01*
D54*
X112000000Y-98050000D02*
X112000000Y-96500000D01*
D53*
X161497237Y-109747500D02*
X159400000Y-109747500D01*
D54*
X145125000Y-97125000D02*
X144500000Y-96500000D01*
D53*
X167550000Y-105050000D02*
X171405000Y-108905000D01*
D52*
X141000000Y-83550000D02*
X143862500Y-83550000D01*
X130050000Y-122000000D02*
X130050000Y-126100000D01*
D54*
X112000000Y-63000000D02*
X112000000Y-61500000D01*
D52*
X130450000Y-126500000D02*
X132800000Y-124150000D01*
D53*
X136812500Y-84500000D02*
X135862500Y-83550000D01*
X154300000Y-94000000D02*
X154300000Y-91200000D01*
D52*
X112000000Y-103950000D02*
X112000000Y-105600000D01*
D54*
X152900000Y-98600000D02*
X151500000Y-100000000D01*
D52*
X176937500Y-62300000D02*
X178900000Y-62300000D01*
D53*
X118112500Y-73437500D02*
X118050000Y-73500000D01*
D52*
X118050000Y-76000000D02*
X118050000Y-73500000D01*
D54*
X147800000Y-98800000D02*
X147800000Y-97125000D01*
X146000000Y-121050000D02*
X146000000Y-119500000D01*
X150100000Y-94275000D02*
X150000000Y-94375000D01*
D52*
X107475000Y-103905000D02*
X111955000Y-103905000D01*
X179450000Y-73395000D02*
X181305000Y-73395000D01*
D54*
X106000000Y-93050000D02*
X106050000Y-93000000D01*
X118000000Y-94790000D02*
X116610000Y-94790000D01*
D53*
X128000000Y-88950000D02*
X128000000Y-90300000D01*
D54*
X119900000Y-66000000D02*
X121700000Y-66000000D01*
D52*
X166500000Y-116050000D02*
X166500000Y-118000000D01*
D53*
X141000000Y-84500000D02*
X141000000Y-83550000D01*
D52*
X148950000Y-128950000D02*
X149000000Y-129000000D01*
D54*
X118000000Y-97800000D02*
X118000000Y-94790000D01*
D53*
X157337500Y-95250000D02*
X155550000Y-95250000D01*
D52*
X137050000Y-127000000D02*
X134500000Y-127000000D01*
D54*
X121700000Y-66000000D02*
X122500000Y-66800000D01*
D53*
X171405000Y-108905000D02*
X173345000Y-108905000D01*
X128700000Y-96730000D02*
X132320000Y-96730000D01*
D52*
X181305000Y-73395000D02*
X181400000Y-73300000D01*
X114500000Y-125175000D02*
X114500000Y-123000000D01*
D54*
X120000000Y-63000000D02*
X120000000Y-65900000D01*
D52*
X130050000Y-126100000D02*
X130450000Y-126500000D01*
D53*
X166500000Y-105050000D02*
X166500000Y-104000000D01*
G04 #@! TO.N,Net-(J1-VBUS)*
X162500000Y-115062500D02*
X162500000Y-116000000D01*
D10*
X169500000Y-113650000D02*
X169500000Y-112000000D01*
X169995000Y-111505000D02*
X173345000Y-111505000D01*
D53*
X170500000Y-119000000D02*
X171000000Y-118500000D01*
X171000000Y-118500000D02*
X171000000Y-116150000D01*
X162500000Y-116000000D02*
X165500000Y-119000000D01*
D10*
X169000000Y-114150000D02*
X169500000Y-113650000D01*
D53*
X171000000Y-116150000D02*
X169000000Y-114150000D01*
D10*
X169500000Y-112000000D02*
X169995000Y-111505000D01*
D53*
X165500000Y-119000000D02*
X170500000Y-119000000D01*
G04 #@! TO.N,/USB to UART/USB_3V3*
X148000000Y-112500000D02*
X144500000Y-112500000D01*
X144500000Y-112500000D02*
X142000000Y-110000000D01*
X160450000Y-113000000D02*
X158450000Y-115000000D01*
X149500000Y-111000000D02*
X148000000Y-112500000D01*
X159400000Y-111017500D02*
X159400000Y-111652500D01*
X111000000Y-119000000D02*
X106000000Y-119000000D01*
X152612500Y-109112500D02*
X152500000Y-109000000D01*
X160652500Y-111652500D02*
X161000000Y-112000000D01*
X142000000Y-110000000D02*
X120000000Y-110000000D01*
X161000000Y-113000000D02*
X160450000Y-113000000D01*
X154200000Y-109112500D02*
X152612500Y-109112500D01*
X156950000Y-113500000D02*
X158450000Y-115000000D01*
X161000000Y-112000000D02*
X161000000Y-113000000D01*
X120000000Y-110000000D02*
X111000000Y-119000000D01*
X152500000Y-113500000D02*
X156950000Y-113500000D01*
X159400000Y-111652500D02*
X160652500Y-111652500D01*
G04 #@! TO.N,Net-(J1-D+)*
X166500000Y-109500000D02*
X167205000Y-110205000D01*
X166500000Y-109500000D02*
X166500000Y-106950000D01*
X167205000Y-110205000D02*
X173345000Y-110205000D01*
G04 #@! TO.N,Net-(J1-D-)*
X167645000Y-110855000D02*
X173345000Y-110855000D01*
X166500000Y-112000000D02*
X167645000Y-110855000D01*
D10*
X166500000Y-114150000D02*
X166500000Y-112000000D01*
D54*
G04 #@! TO.N,+3.3V*
X115900000Y-91200000D02*
X115900000Y-68100000D01*
D52*
X132937500Y-117850000D02*
X139000000Y-117850000D01*
X139250000Y-126700000D02*
X139250000Y-122500000D01*
X144000000Y-127050000D02*
X143650000Y-126700000D01*
D53*
X138725000Y-85450000D02*
X135862500Y-85450000D01*
D52*
X181000000Y-63800000D02*
X176100000Y-63800000D01*
X148100000Y-125950000D02*
X147000000Y-127050000D01*
D54*
X119900000Y-97800000D02*
X119900000Y-94790000D01*
D55*
X134950000Y-85450000D02*
X133900000Y-84400000D01*
D54*
X115900000Y-68100000D02*
X118000000Y-66000000D01*
D55*
X134200000Y-82000000D02*
X134200000Y-78400000D01*
D54*
X150100000Y-89100000D02*
X149600062Y-88600062D01*
X136750000Y-57750000D02*
X133412500Y-61087500D01*
D52*
X139000000Y-117850000D02*
X139000000Y-115000000D01*
D54*
X119900000Y-93800000D02*
X119100000Y-93000000D01*
X114100000Y-93000000D02*
X115900000Y-91200000D01*
D52*
X139000000Y-115000000D02*
X140000000Y-114000000D01*
D54*
X118100000Y-63000000D02*
X118100000Y-62600000D01*
D52*
X180605000Y-71195000D02*
X182000000Y-69800000D01*
D54*
X118100000Y-62600000D02*
X119612500Y-61087500D01*
X114100000Y-93000000D02*
X107950000Y-93000000D01*
D53*
X118112500Y-66112500D02*
X118000000Y-66000000D01*
X123300000Y-98000000D02*
X120100000Y-98000000D01*
X154900000Y-93600000D02*
X154900000Y-89800000D01*
X156050000Y-94750000D02*
X154900000Y-93600000D01*
D52*
X138500000Y-99300000D02*
X139000000Y-98800000D01*
D54*
X142600000Y-61100000D02*
X149812500Y-61100000D01*
D52*
X179450000Y-71195000D02*
X180605000Y-71195000D01*
D55*
X133900000Y-84400000D02*
X133900000Y-82000000D01*
D54*
X139012562Y-88600062D02*
X135862500Y-85450000D01*
D53*
X119900000Y-99575000D02*
X119000000Y-100475000D01*
D52*
X107475000Y-100095000D02*
X107900000Y-99670000D01*
D54*
X107900000Y-96000000D02*
X107900000Y-93050000D01*
X149812500Y-61100000D02*
X150000000Y-61287500D01*
X159787500Y-61300000D02*
X160000000Y-61087500D01*
X140012500Y-61100000D02*
X140000000Y-61087500D01*
D53*
X119900000Y-97800000D02*
X119900000Y-99575000D01*
D52*
X176100000Y-63800000D02*
X176100000Y-63362500D01*
D54*
X125300000Y-61087500D02*
X130000000Y-61087500D01*
D52*
X182000000Y-69800000D02*
X182000000Y-64800000D01*
X138500000Y-100587500D02*
X138500000Y-99300000D01*
D54*
X107900000Y-93050000D02*
X107950000Y-93000000D01*
D52*
X147000000Y-127050000D02*
X144000000Y-127050000D01*
D54*
X118000000Y-66000000D02*
X118000000Y-63100000D01*
D53*
X120100000Y-98000000D02*
X119900000Y-97800000D01*
X154900000Y-89800000D02*
X154200000Y-89100000D01*
D54*
X133412500Y-61087500D02*
X130000000Y-61087500D01*
X151887500Y-61287500D02*
X151900000Y-61300000D01*
X119612500Y-61087500D02*
X125300000Y-61087500D01*
X119900000Y-94790000D02*
X119900000Y-93800000D01*
D55*
X130400000Y-74600000D02*
X125200000Y-74600000D01*
X125200000Y-74600000D02*
X125200000Y-61187500D01*
D54*
X173825000Y-61087500D02*
X175037500Y-62300000D01*
X141500000Y-88600062D02*
X139012562Y-88600062D01*
X149600062Y-88600062D02*
X141500000Y-88600062D01*
D53*
X154200000Y-89100000D02*
X153100000Y-89100000D01*
D54*
X153100000Y-89100000D02*
X150100000Y-89100000D01*
D52*
X131950000Y-116862500D02*
X131950000Y-119137500D01*
D55*
X133900000Y-82000000D02*
X134200000Y-82000000D01*
D54*
X118000000Y-63100000D02*
X118100000Y-63000000D01*
D52*
X176100000Y-63362500D02*
X175037500Y-62300000D01*
X149862500Y-125950000D02*
X148100000Y-125950000D01*
D55*
X135862500Y-85450000D02*
X134950000Y-85450000D01*
D53*
X157337500Y-94750000D02*
X156050000Y-94750000D01*
D52*
X131950000Y-116862500D02*
X132937500Y-117850000D01*
D54*
X160000000Y-61087500D02*
X173825000Y-61087500D01*
D52*
X141500000Y-95300000D02*
X141500000Y-88600062D01*
D54*
X150000000Y-61287500D02*
X151887500Y-61287500D01*
X142600000Y-61100000D02*
X140012500Y-61100000D01*
D55*
X134200000Y-82000000D02*
X137175000Y-82000000D01*
D52*
X107900000Y-99670000D02*
X107900000Y-96000000D01*
X182000000Y-64800000D02*
X181000000Y-63800000D01*
D54*
X139250000Y-127050000D02*
X139200000Y-127100000D01*
D52*
X131950000Y-119137500D02*
X131950000Y-122000000D01*
D54*
X119100000Y-93000000D02*
X114100000Y-93000000D01*
D55*
X134200000Y-78400000D02*
X130400000Y-74600000D01*
D54*
X154800000Y-61300000D02*
X159787500Y-61300000D01*
X139250000Y-122500000D02*
X139250000Y-127050000D01*
D55*
X137175000Y-82000000D02*
X138725000Y-83550000D01*
X125200000Y-61187500D02*
X125300000Y-61087500D01*
D52*
X143650000Y-126700000D02*
X139250000Y-126700000D01*
D53*
X118112500Y-69025000D02*
X118112500Y-66112500D01*
D54*
G04 #@! TO.N,/Power/Rsense-*
X143150000Y-124150000D02*
X141300000Y-124150000D01*
X144500000Y-124450000D02*
X144500000Y-124500000D01*
D52*
X150087500Y-123825000D02*
X149862500Y-124050000D01*
X147450000Y-122950000D02*
X148550000Y-124050000D01*
X146000000Y-122950000D02*
X147450000Y-122950000D01*
D54*
X143500000Y-124500000D02*
X143150000Y-124150000D01*
D52*
X150087500Y-120000000D02*
X150087500Y-123825000D01*
D54*
X146000000Y-122950000D02*
X144500000Y-124450000D01*
X144500000Y-124500000D02*
X143500000Y-124500000D01*
D52*
X148550000Y-124050000D02*
X149862500Y-124050000D01*
D53*
G04 #@! TO.N,/Micrcontroller STM32C0/OSC_IN*
X147800000Y-95100000D02*
X147800000Y-94375000D01*
X152900000Y-94600000D02*
X151800000Y-95700000D01*
X154400000Y-95750000D02*
X153250000Y-94600000D01*
X157337500Y-95750000D02*
X154400000Y-95750000D01*
X151800000Y-95700000D02*
X148400000Y-95700000D01*
X148400000Y-95700000D02*
X147800000Y-95100000D01*
X153250000Y-94600000D02*
X152900000Y-94600000D01*
G04 #@! TO.N,/Micrcontroller STM32C0/3.3V_Ref*
X157337500Y-94250000D02*
X156350000Y-94250000D01*
X141000000Y-85450000D02*
X143862500Y-85450000D01*
X152150000Y-85450000D02*
X143862500Y-85450000D01*
X155500000Y-88800000D02*
X152150000Y-85450000D01*
X156350000Y-94250000D02*
X155500000Y-93400000D01*
X155500000Y-93400000D02*
X155500000Y-88800000D01*
G04 #@! TO.N,/Micrcontroller STM32C0/OSC_OUT*
X155350000Y-96250000D02*
X154900000Y-96700000D01*
X154900000Y-96700000D02*
X152900000Y-96700000D01*
X152900000Y-96700000D02*
X152800000Y-96700000D01*
X152800000Y-96700000D02*
X152375000Y-97125000D01*
X157337500Y-96250000D02*
X155350000Y-96250000D01*
X152375000Y-97125000D02*
X150000000Y-97125000D01*
G04 #@! TO.N,/Micrcontroller STM32C0/NRST*
X167600000Y-88828120D02*
X159678120Y-96750000D01*
X167600000Y-83050000D02*
X167600000Y-88828120D01*
D52*
X173250000Y-82200000D02*
X179750000Y-82200000D01*
X172550000Y-82900000D02*
X173250000Y-82200000D01*
X168900000Y-82900000D02*
X172550000Y-82900000D01*
D53*
X159678120Y-96750000D02*
X157337500Y-96750000D01*
X167750000Y-82900000D02*
X167600000Y-83050000D01*
X168900000Y-82900000D02*
X167750000Y-82900000D01*
D52*
G04 #@! TO.N,Net-(U2-C1+)*
X131000000Y-114050000D02*
X130950000Y-114000000D01*
X131000000Y-116862500D02*
X131000000Y-114050000D01*
G04 #@! TO.N,Net-(U2-C1-)*
X129000000Y-115812500D02*
X129000000Y-114050000D01*
X130050000Y-116862500D02*
X129000000Y-115812500D01*
X129000000Y-114050000D02*
X129050000Y-114000000D01*
D54*
G04 #@! TO.N,Net-(U2-VOUT)*
X128550000Y-126500000D02*
X128050000Y-126000000D01*
D52*
X130050000Y-119137500D02*
X127500000Y-121687500D01*
D54*
X128050000Y-126000000D02*
X127500000Y-126000000D01*
X127500000Y-126000000D02*
X123000000Y-126000000D01*
D52*
X127500000Y-121687500D02*
X127500000Y-126000000D01*
G04 #@! TO.N,-3V3*
X118112500Y-70975000D02*
X119175000Y-70975000D01*
X119175000Y-70975000D02*
X119950000Y-71750000D01*
X118492500Y-124095000D02*
X120525000Y-124095000D01*
D54*
X120500000Y-121950000D02*
X123450000Y-121950000D01*
D53*
X128700000Y-98000000D02*
X132050000Y-98000000D01*
D52*
X133900000Y-99850000D02*
X132500000Y-98450000D01*
D54*
X119950000Y-73500000D02*
X119950000Y-76000000D01*
D53*
X132050000Y-98000000D02*
X132500000Y-98450000D01*
D52*
X133900000Y-100700000D02*
X133900000Y-99850000D01*
D54*
X137000000Y-90175000D02*
X137000000Y-89700000D01*
D52*
X119950000Y-78350000D02*
X118500000Y-79800000D01*
X120500000Y-121950000D02*
X120500000Y-124070000D01*
D54*
X123450000Y-121950000D02*
X124200000Y-121200000D01*
X135600000Y-88775000D02*
X137000000Y-90175000D01*
X135600000Y-88200000D02*
X135600000Y-88775000D01*
D52*
X120500000Y-124070000D02*
X120525000Y-124095000D01*
X119950000Y-76000000D02*
X119950000Y-78350000D01*
X117500000Y-125087500D02*
X118492500Y-124095000D01*
D54*
X135500000Y-98450000D02*
X132500000Y-98450000D01*
D52*
X118500000Y-79800000D02*
X118500000Y-81800000D01*
X119950000Y-71750000D02*
X119950000Y-73500000D01*
D53*
G04 #@! TO.N,Net-(C19-Pad1)*
X126087500Y-84000000D02*
X126087500Y-80037500D01*
X126087500Y-80037500D02*
X126050000Y-80000000D01*
X121912500Y-84000000D02*
X126087500Y-84000000D01*
G04 #@! TO.N,/Micrcontroller STM32C0/Volt_meas*
X136500000Y-93000000D02*
X130500000Y-93000000D01*
X130500000Y-82000000D02*
X130500000Y-93000000D01*
X146000000Y-102000000D02*
X144500000Y-100500000D01*
X159750000Y-99162500D02*
X159750000Y-100750000D01*
X130500000Y-93000000D02*
X123500000Y-93000000D01*
X151000000Y-102000000D02*
X146000000Y-102000000D01*
X123500000Y-93000000D02*
X123300000Y-93200000D01*
D52*
X123300000Y-95460000D02*
X123300000Y-94190000D01*
D53*
X129950000Y-82000000D02*
X130500000Y-82000000D01*
X127950000Y-80000000D02*
X129950000Y-82000000D01*
X137000000Y-93500000D02*
X136500000Y-93000000D01*
X144500000Y-100500000D02*
X137500000Y-93500000D01*
X137500000Y-93500000D02*
X137000000Y-93500000D01*
X123300000Y-93200000D02*
X123300000Y-94190000D01*
X159750000Y-100750000D02*
X158500000Y-102000000D01*
G04 #@! TO.N,Net-(U12A-+)*
X127912500Y-86962500D02*
X128000000Y-87050000D01*
X121200000Y-96300000D02*
X121200000Y-91500000D01*
X127912500Y-84000000D02*
X127912500Y-86962500D01*
X125650000Y-87050000D02*
X128000000Y-87050000D01*
X121630000Y-96730000D02*
X121200000Y-96300000D01*
X123300000Y-96730000D02*
X121630000Y-96730000D01*
X121200000Y-91500000D02*
X125650000Y-87050000D01*
D54*
G04 #@! TO.N,Net-(J4-Pin_1)*
X101775000Y-62500000D02*
X101775000Y-65462500D01*
X101775000Y-65462500D02*
X101812500Y-65500000D01*
X101775000Y-62500000D02*
X93000000Y-62500000D01*
G04 #@! TO.N,Net-(C21-Pad2)*
X103675000Y-62500000D02*
X106775000Y-62500000D01*
G04 #@! TO.N,Net-(U10--)*
X108675000Y-65450000D02*
X108725000Y-65500000D01*
D53*
X113887500Y-69025000D02*
X112000000Y-67137500D01*
X112000000Y-67137500D02*
X112000000Y-64825000D01*
D54*
X109400000Y-64825000D02*
X108725000Y-65500000D01*
X112000000Y-64825000D02*
X109400000Y-64825000D01*
X108675000Y-62500000D02*
X108675000Y-65450000D01*
G04 #@! TO.N,Net-(C24-Pad2)*
X103950000Y-75000000D02*
X107050000Y-75000000D01*
G04 #@! TO.N,Net-(J7-Pin_1)*
X102050000Y-75000000D02*
X102050000Y-77962500D01*
X102087500Y-78000000D02*
X93000000Y-78000000D01*
X102050000Y-77962500D02*
X102087500Y-78000000D01*
G04 #@! TO.N,Net-(U10-+)*
X108912500Y-78000000D02*
X108912500Y-80375000D01*
X108950000Y-75000000D02*
X108950000Y-77962500D01*
X108950000Y-77962500D02*
X108912500Y-78000000D01*
D53*
X110000000Y-74862500D02*
X110000000Y-75000000D01*
X113887500Y-70975000D02*
X110000000Y-74862500D01*
X110000000Y-75000000D02*
X108950000Y-75000000D01*
D54*
X108912500Y-80375000D02*
X108900000Y-80387500D01*
D52*
G04 #@! TO.N,Net-(U8-FILTER)*
X110365000Y-102635000D02*
X107475000Y-102635000D01*
X112000000Y-102050000D02*
X110950000Y-102050000D01*
X110950000Y-102050000D02*
X110365000Y-102635000D01*
D10*
G04 #@! TO.N,Net-(U12B-+)*
X119000000Y-102300000D02*
X119500000Y-102300000D01*
X119500000Y-102300000D02*
X121000000Y-100800000D01*
X121530000Y-99270000D02*
X123300000Y-99270000D01*
X119000000Y-104975000D02*
X119000000Y-102300000D01*
X121000000Y-99800000D02*
X121530000Y-99270000D01*
X121000000Y-100800000D02*
X121000000Y-99800000D01*
D53*
G04 #@! TO.N,VBUS*
X162500000Y-112937500D02*
X162500000Y-113000000D01*
X157000000Y-120500000D02*
X157000000Y-122460000D01*
X160000000Y-115500000D02*
X160000000Y-117500000D01*
X162500000Y-113000000D02*
X160000000Y-115500000D01*
X162500000Y-112937500D02*
X162500000Y-111500000D01*
X160000000Y-117500000D02*
X157000000Y-120500000D01*
X161382500Y-110382500D02*
X159400000Y-110382500D01*
X162500000Y-111500000D02*
X161382500Y-110382500D01*
D52*
G04 #@! TO.N,/SD_CARD/SPI_Clk_SD*
X158700000Y-75400000D02*
X157100000Y-73800000D01*
X160400000Y-75400000D02*
X158700000Y-75400000D01*
X157100000Y-73800000D02*
X157100000Y-69900000D01*
X150312500Y-63112500D02*
X150000000Y-63112500D01*
X168535000Y-72295000D02*
X168530000Y-72300000D01*
X179450000Y-72295000D02*
X168535000Y-72295000D01*
X148700000Y-70000000D02*
X150000000Y-70000000D01*
X150000000Y-63112500D02*
X150000000Y-63800000D01*
X150000000Y-63800000D02*
X148000000Y-65800000D01*
X157100000Y-69900000D02*
X150312500Y-63112500D01*
X148000000Y-69300000D02*
X148700000Y-70000000D01*
X148000000Y-65800000D02*
X148000000Y-69300000D01*
X168530000Y-72300000D02*
X165400000Y-72300000D01*
G04 #@! TO.N,/SD_CARD/SPI_Mosi_SD*
X153400000Y-59100000D02*
X138500000Y-59100000D01*
X127000000Y-65912500D02*
X127000000Y-67000000D01*
X172305000Y-70095000D02*
X171700000Y-70700000D01*
X138500000Y-59100000D02*
X134687500Y-62912500D01*
X127000000Y-67000000D02*
X130000000Y-70000000D01*
X134687500Y-62912500D02*
X130000000Y-62912500D01*
X155700000Y-65100000D02*
X153400000Y-62800000D01*
X171700000Y-70700000D02*
X166500000Y-70700000D01*
X153400000Y-62800000D02*
X153400000Y-59100000D01*
X166500000Y-70700000D02*
X164800000Y-69000000D01*
X130000000Y-62912500D02*
X127000000Y-65912500D01*
X179450000Y-70095000D02*
X172305000Y-70095000D01*
G04 #@! TO.N,/SD_CARD/SPI_Cs_SD*
X161612500Y-62912500D02*
X160000000Y-62912500D01*
X176205000Y-66800000D02*
X165500000Y-66800000D01*
X157000000Y-67800000D02*
X159200000Y-70000000D01*
X160000000Y-63300000D02*
X157000000Y-66300000D01*
X159200000Y-70000000D02*
X160000000Y-70000000D01*
X179450000Y-68995000D02*
X178400000Y-68995000D01*
X165500000Y-66800000D02*
X161612500Y-62912500D01*
X178400000Y-68995000D02*
X176205000Y-66800000D01*
X160000000Y-62912500D02*
X160000000Y-63300000D01*
X157000000Y-66300000D02*
X157000000Y-67800000D01*
G04 #@! TO.N,/SD_CARD/SPI_Miso_SD*
X146000000Y-65800000D02*
X143112500Y-62912500D01*
X140000000Y-62912500D02*
X139387500Y-62912500D01*
X169200000Y-77500000D02*
X165700000Y-77500000D01*
X136000000Y-68300000D02*
X137700000Y-70000000D01*
X169600000Y-77500000D02*
X169200000Y-77500000D01*
X136000000Y-66300000D02*
X136000000Y-68300000D01*
X156000000Y-77500000D02*
X150700000Y-77500000D01*
X143112500Y-62912500D02*
X140000000Y-62912500D01*
X146500000Y-65800000D02*
X146000000Y-65800000D01*
X137700000Y-70000000D02*
X140000000Y-70000000D01*
X172605000Y-74495000D02*
X169600000Y-77500000D01*
X139387500Y-62912500D02*
X136000000Y-66300000D01*
X179450000Y-74495000D02*
X172605000Y-74495000D01*
X146500000Y-73300000D02*
X146500000Y-65800000D01*
X150700000Y-77500000D02*
X146500000Y-73300000D01*
D53*
G04 #@! TO.N,/Micrcontroller STM32C0/I2C1_SCL*
X173650000Y-95750000D02*
X174500000Y-96600000D01*
X165662500Y-95750000D02*
X173650000Y-95750000D01*
G04 #@! TO.N,/Micrcontroller STM32C0/I2C1_SDA*
X174310000Y-94250000D02*
X174500000Y-94060000D01*
X165662500Y-94250000D02*
X174310000Y-94250000D01*
D52*
G04 #@! TO.N,Net-(J6-Pin_1)*
X168000000Y-122460000D02*
X163000000Y-122460000D01*
G04 #@! TO.N,Net-(J8-Pin_1)*
X102525000Y-103905000D02*
X99095000Y-103905000D01*
X102525000Y-102635000D02*
X102525000Y-103905000D01*
X99095000Y-103905000D02*
X93000000Y-110000000D01*
G04 #@! TO.N,Net-(J9-Pin_1)*
X98095000Y-100095000D02*
X93000000Y-95000000D01*
X102525000Y-101365000D02*
X102525000Y-100095000D01*
X102525000Y-100095000D02*
X98095000Y-100095000D01*
D53*
G04 #@! TO.N,/Connectors/PF3*
X158387258Y-93750000D02*
X157337500Y-93750000D01*
X158937261Y-94300003D02*
X158387258Y-93750000D01*
D10*
G04 #@! TO.N,/Connectors/PB1*
X162800000Y-101000000D02*
X163300000Y-101500000D01*
X163300000Y-101500000D02*
X166400000Y-101500000D01*
X166400000Y-101500000D02*
X181500000Y-101500000D01*
X162250000Y-100450000D02*
X162800000Y-101000000D01*
X181500000Y-101500000D02*
X182500000Y-100500000D01*
X162250000Y-99162500D02*
X162250000Y-100450000D01*
D53*
G04 #@! TO.N,/Connectors/PD2*
X162750000Y-88776345D02*
X165000000Y-86526345D01*
X165000000Y-86526345D02*
X165000000Y-85750000D01*
X162750000Y-90837500D02*
X162750000Y-88776345D01*
D10*
G04 #@! TO.N,/Connectors/PB12*
X164250000Y-99162500D02*
X164587500Y-99500000D01*
X164587500Y-99500000D02*
X179000000Y-99500000D01*
X179000000Y-99500000D02*
X183500000Y-95000000D01*
D53*
G04 #@! TO.N,/Connectors/PD1*
X163250000Y-90837500D02*
X163250000Y-89250000D01*
X163250000Y-89250000D02*
X166000000Y-86500000D01*
D10*
G04 #@! TO.N,/Connectors/PA12{slash}PA10*
X169000000Y-91000000D02*
X181565686Y-91000000D01*
X181565686Y-91000000D02*
X185000000Y-87565686D01*
X181631372Y-45000000D02*
X170920000Y-45000000D01*
X165662500Y-93250000D02*
X166750000Y-93250000D01*
X185000000Y-87565686D02*
X185000000Y-48368628D01*
X185000000Y-48368628D02*
X181631372Y-45000000D01*
X170920000Y-45000000D02*
X165920000Y-50000000D01*
X166750000Y-93250000D02*
X169000000Y-91000000D01*
G04 #@! TO.N,/Connectors/PC6*
X186200000Y-47871571D02*
X181828430Y-43500000D01*
X170500000Y-93000000D02*
X171000000Y-92500000D01*
X182565686Y-92500000D02*
X186200000Y-88865686D01*
X167750000Y-95250000D02*
X168000000Y-95000000D01*
X165662500Y-95250000D02*
X167750000Y-95250000D01*
X170500000Y-93500000D02*
X170500000Y-93000000D01*
X171000000Y-92500000D02*
X182565686Y-92500000D01*
X164800000Y-43500000D02*
X158300000Y-50000000D01*
X186200000Y-88865686D02*
X186200000Y-47871571D01*
X181828430Y-43500000D02*
X164800000Y-43500000D01*
D53*
G04 #@! TO.N,/Connectors/PC14*
X159151471Y-93100000D02*
X158801471Y-92750000D01*
X158801471Y-92750000D02*
X157337500Y-92750000D01*
X160600000Y-93100000D02*
X159151471Y-93100000D01*
G04 #@! TO.N,/Connectors/PD3*
X163500000Y-87000000D02*
X163500000Y-86250000D01*
X162250000Y-88250000D02*
X163500000Y-87000000D01*
X162250000Y-90837500D02*
X162250000Y-88250000D01*
D10*
G04 #@! TO.N,/Connectors/PB15*
X168722182Y-98000000D02*
X176000000Y-98000000D01*
X167250000Y-96750000D02*
X167500000Y-97000000D01*
X176500000Y-97500000D02*
X176500000Y-97000000D01*
X167500000Y-97000000D02*
X167722182Y-97000000D01*
X179000000Y-94500000D02*
X180000000Y-94500000D01*
X160720000Y-42500000D02*
X153220000Y-50000000D01*
X187000000Y-89197057D02*
X187000000Y-47434314D01*
X176000000Y-98000000D02*
X176500000Y-97500000D01*
X180000000Y-94500000D02*
X181000000Y-93500000D01*
X187000000Y-47434314D02*
X182065686Y-42500000D01*
X176500000Y-97000000D02*
X179000000Y-94500000D01*
X181000000Y-93500000D02*
X182697057Y-93500000D01*
X182065686Y-42500000D02*
X160720000Y-42500000D01*
X167722182Y-97000000D02*
X168722182Y-98000000D01*
X182697057Y-93500000D02*
X187000000Y-89197057D01*
X165662500Y-96750000D02*
X167250000Y-96750000D01*
D53*
G04 #@! TO.N,/Micrcontroller STM32C0/UART2_Rx*
X162150000Y-78250000D02*
X162150000Y-77650000D01*
X162150000Y-77650000D02*
X161000000Y-76500000D01*
X164250000Y-90750000D02*
X166250000Y-88750000D01*
X164250000Y-90837500D02*
X164250000Y-90750000D01*
D10*
G04 #@! TO.N,/Micrcontroller STM32C0/UART2_Tx*
X165662500Y-96250000D02*
X167750000Y-96250000D01*
X162760000Y-43000000D02*
X155760000Y-50000000D01*
X186600000Y-89031371D02*
X186600000Y-47600000D01*
X167750000Y-96250000D02*
X168000000Y-96500000D01*
X179500000Y-93500000D02*
X180100000Y-92900000D01*
X186600000Y-47600000D02*
X182000000Y-43000000D01*
X179000000Y-93500000D02*
X179500000Y-93500000D01*
X182731372Y-92900000D02*
X186600000Y-89031371D01*
X182000000Y-43000000D02*
X162760000Y-43000000D01*
X180100000Y-92900000D02*
X182731372Y-92900000D01*
G04 #@! TO.N,/Connectors/PB11*
X164065686Y-100500000D02*
X164500000Y-100500000D01*
X163750000Y-99162500D02*
X163750000Y-100184314D01*
X164500000Y-100500000D02*
X179500000Y-100500000D01*
X163750000Y-100184314D02*
X164065686Y-100500000D01*
X179500000Y-100500000D02*
X181000000Y-99000000D01*
D53*
G04 #@! TO.N,/Connectors/PC15*
X159400003Y-93700003D02*
X159044367Y-93700003D01*
X159900000Y-94200000D02*
X159400003Y-93700003D01*
X159044367Y-93700003D02*
X158594364Y-93250000D01*
X158594364Y-93250000D02*
X157337500Y-93250000D01*
D10*
G04 #@! TO.N,/Connectors/PB14*
X165662500Y-97750000D02*
X166912500Y-99000000D01*
X178500000Y-99000000D02*
X182500000Y-95000000D01*
X166912500Y-99000000D02*
X178500000Y-99000000D01*
X182000000Y-55500000D02*
X178500000Y-55500000D01*
X178500000Y-55500000D02*
X176500000Y-53500000D01*
D53*
G04 #@! TO.N,/Connectors/PC13*
X159850000Y-92250000D02*
X157337500Y-92250000D01*
X159900000Y-92200000D02*
X159850000Y-92250000D01*
D10*
G04 #@! TO.N,/Connectors/PA7*
X161250000Y-99162500D02*
X161250000Y-101050000D01*
X182450000Y-102050000D02*
X183000000Y-101500000D01*
X161250000Y-101050000D02*
X162250000Y-102050000D01*
X166950000Y-102050000D02*
X182450000Y-102050000D01*
X162250000Y-102050000D02*
X166950000Y-102050000D01*
D53*
G04 #@! TO.N,/Connectors/PD0*
X161000000Y-78250000D02*
X159250000Y-76500000D01*
X163750000Y-89996880D02*
X166246880Y-87500000D01*
X163750000Y-90837500D02*
X163750000Y-89996880D01*
X166246880Y-87500000D02*
X166250000Y-87500000D01*
X161000000Y-78500000D02*
X161000000Y-78250000D01*
D10*
G04 #@! TO.N,/Connectors/PC7*
X181762744Y-44000000D02*
X166840000Y-44000000D01*
X185800000Y-87897056D02*
X185800000Y-48037256D01*
X164250000Y-94750000D02*
X164000000Y-94500000D01*
X185800000Y-48037256D02*
X181762744Y-44000000D01*
X170000000Y-92500000D02*
X170000000Y-92000000D01*
X166840000Y-44000000D02*
X160840000Y-50000000D01*
X185500000Y-88197057D02*
X185800000Y-87897056D01*
X169000000Y-93500000D02*
X170000000Y-92500000D01*
X170000000Y-92000000D02*
X182500000Y-92000000D01*
X182500000Y-92000000D02*
X185500000Y-89000000D01*
X185500000Y-89000000D02*
X185500000Y-88197057D01*
X165662500Y-94750000D02*
X164250000Y-94750000D01*
D53*
G04 #@! TO.N,/Connectors/PB7*
X159750000Y-85298529D02*
X159750000Y-90837500D01*
X158000000Y-83500000D02*
X158000000Y-83548529D01*
X158000000Y-83548529D02*
X159750000Y-85298529D01*
D10*
G04 #@! TO.N,/Connectors/PA11{slash}PA9*
X165662500Y-93750000D02*
X167250000Y-93750000D01*
X167250000Y-93750000D02*
X169500000Y-91500000D01*
X181631372Y-91500000D02*
X185400000Y-87731371D01*
X185400000Y-87731371D02*
X185400000Y-48202942D01*
X181697058Y-44500000D02*
X168880000Y-44500000D01*
X168880000Y-44500000D02*
X163380000Y-50000000D01*
X169500000Y-91500000D02*
X181631372Y-91500000D01*
X185400000Y-48202942D02*
X181697058Y-44500000D01*
G04 #@! TO.N,/Connectors/PB2*
X162750000Y-99162500D02*
X162750000Y-98250000D01*
X162750000Y-98250000D02*
X163500000Y-97500000D01*
D53*
G04 #@! TO.N,/Connectors/PB8*
X159250000Y-85950000D02*
X159250000Y-90837500D01*
X157800000Y-84500000D02*
X159250000Y-85950000D01*
D10*
G04 #@! TO.N,/Connectors/PB10*
X164000001Y-101000000D02*
X180500000Y-101000000D01*
X180500000Y-101000000D02*
X181500000Y-100000000D01*
X163250000Y-100250000D02*
X163800000Y-100800000D01*
X163800000Y-100800000D02*
X164000001Y-101000000D01*
X163250000Y-99162500D02*
X163250000Y-100250000D01*
D53*
G04 #@! TO.N,/Connectors/PB9*
X158750000Y-86450000D02*
X158000000Y-85700000D01*
X158750000Y-90837500D02*
X158750000Y-86450000D01*
D10*
G04 #@! TO.N,/Connectors/PB13*
X178500000Y-97500000D02*
X181500000Y-94500000D01*
X165662500Y-97250000D02*
X167184314Y-97250000D01*
X168434314Y-98500000D02*
X169500000Y-98500000D01*
X177000000Y-97565686D02*
X177000000Y-97500000D01*
X167184314Y-97250000D02*
X168434314Y-98500000D01*
X169500000Y-98500000D02*
X176065686Y-98500000D01*
X176065686Y-98500000D02*
X177000000Y-97565686D01*
X177000000Y-97500000D02*
X178500000Y-97500000D01*
D53*
G04 #@! TO.N,/Connectors/PB6*
X160250000Y-90837500D02*
X160250000Y-84950000D01*
X160250000Y-84950000D02*
X159400000Y-84100000D01*
G04 #@! TO.N,/Micrcontroller STM32C0/SPI_Cs*
X162500000Y-101500000D02*
X161750000Y-100750000D01*
X161750000Y-100750000D02*
X161750000Y-99162500D01*
D10*
X162700000Y-86750000D02*
X162700000Y-70160000D01*
X162700000Y-70160000D02*
X160000000Y-67460000D01*
G04 #@! TO.N,/Micrcontroller STM32C0/SPI_Clk*
X153500000Y-70300000D02*
X153000000Y-69800000D01*
X153000000Y-69800000D02*
X152340000Y-69800000D01*
X159800000Y-79600000D02*
X153500000Y-73300000D01*
X160900000Y-79600000D02*
X159800000Y-79600000D01*
D53*
X161750000Y-80450000D02*
X160900000Y-79600000D01*
D10*
X161650000Y-80350000D02*
X160900000Y-79600000D01*
D53*
X161750000Y-90837500D02*
X161750000Y-80450000D01*
D10*
X152340000Y-69800000D02*
X150000000Y-67460000D01*
X153500000Y-73300000D02*
X153500000Y-70300000D01*
D53*
G04 #@! TO.N,/Micrcontroller STM32C0/SPI_Miso*
X150000000Y-78500000D02*
X144500000Y-73000000D01*
X144500000Y-73000000D02*
X144500000Y-67800000D01*
X144160000Y-67460000D02*
X140000000Y-67460000D01*
X156500000Y-78500000D02*
X150000000Y-78500000D01*
X144500000Y-67800000D02*
X144160000Y-67460000D01*
D52*
X140760000Y-67460000D02*
X140000000Y-67460000D01*
D53*
X161250000Y-83250000D02*
X156500000Y-78500000D01*
X161250000Y-90837500D02*
X161250000Y-83250000D01*
D54*
G04 #@! TO.N,/Power/Rsense+*
X163000000Y-125000000D02*
X157000000Y-125000000D01*
D52*
X154050000Y-124050000D02*
X155000000Y-125000000D01*
X152137500Y-120225000D02*
X151912500Y-120000000D01*
X152137500Y-124050000D02*
X152137500Y-120225000D01*
X152137500Y-124050000D02*
X154050000Y-124050000D01*
X155000000Y-125000000D02*
X157000000Y-125000000D01*
D53*
G04 #@! TO.N,/USB to UART/USBD+*
X162598050Y-107040944D02*
X162682904Y-107125797D01*
X162682904Y-107125797D02*
X163028554Y-107471447D01*
X155150000Y-112202500D02*
X155150000Y-110437499D01*
X162797584Y-106502000D02*
X162598049Y-106701532D01*
X158196446Y-105550000D02*
X161107107Y-105550000D01*
X155150000Y-110437499D02*
X156550000Y-109037499D01*
X154200000Y-112202500D02*
X155150000Y-112202500D01*
X162712732Y-106077736D02*
X162797584Y-106162588D01*
X162173788Y-106277270D02*
X162373320Y-106077735D01*
X161107107Y-105550000D02*
X161834376Y-106277269D01*
X164675000Y-109117893D02*
X164675000Y-109500000D01*
X154200000Y-112287500D02*
X154200000Y-112202500D01*
X156550000Y-109037499D02*
X156550000Y-107196446D01*
X156550000Y-107196446D02*
X158196446Y-105550000D01*
X163028554Y-107471447D02*
X164675000Y-109117893D01*
X162598049Y-106701532D02*
G75*
G03*
X162598088Y-107040906I169751J-169668D01*
G01*
X161834376Y-106277269D02*
G75*
G03*
X162173805Y-106277287I169724J169669D01*
G01*
X162797584Y-106162588D02*
G75*
G02*
X162797590Y-106502006I-169684J-169712D01*
G01*
X162373320Y-106077735D02*
G75*
G02*
X162712706Y-106077762I169680J-169665D01*
G01*
G04 #@! TO.N,/USB to UART/USBD-*
X158450000Y-112202500D02*
X158450000Y-110437499D01*
X159400000Y-112202500D02*
X158450000Y-112202500D01*
X164675000Y-111675000D02*
X164675000Y-112000000D01*
X160900000Y-106050000D02*
X160900000Y-107900000D01*
X158450000Y-110437499D02*
X157050000Y-109037499D01*
X158403554Y-106050000D02*
X160900000Y-106050000D01*
X160900000Y-107900000D02*
X164675000Y-111675000D01*
X157050000Y-107403554D02*
X158403554Y-106050000D01*
X157050000Y-109037499D02*
X157050000Y-107403554D01*
X159400000Y-112287500D02*
X159400000Y-112202500D01*
G04 #@! TO.N,Net-(U1-CBUS1)*
X159400000Y-109112500D02*
X160887500Y-109112500D01*
X160887500Y-109112500D02*
X161000000Y-109000000D01*
X145000000Y-118500000D02*
X143500000Y-117000000D01*
X111500000Y-116500000D02*
X105500000Y-116500000D01*
X143500000Y-117000000D02*
X143500000Y-115000000D01*
X140500000Y-112000000D02*
X124000000Y-112000000D01*
X104587500Y-123087500D02*
X106090000Y-123087500D01*
X124000000Y-112000000D02*
X122500000Y-113500000D01*
X150000000Y-118500000D02*
X145000000Y-118500000D01*
X156000000Y-117500000D02*
X151000000Y-117500000D01*
X103000000Y-121500000D02*
X104587500Y-123087500D01*
X105500000Y-116500000D02*
X103000000Y-119000000D01*
X143500000Y-115000000D02*
X140500000Y-112000000D01*
X151000000Y-117500000D02*
X150000000Y-118500000D01*
X103000000Y-119000000D02*
X103000000Y-121500000D01*
G04 #@! TO.N,Net-(U1-CBUS2)*
X145000000Y-117500000D02*
X145000000Y-115000000D01*
X141000000Y-111000000D02*
X123087500Y-111000000D01*
X152847500Y-111652500D02*
X149500000Y-115000000D01*
X145000000Y-115000000D02*
X141000000Y-111000000D01*
X149500000Y-115000000D02*
X149500000Y-117500000D01*
X154200000Y-111652500D02*
X152847500Y-111652500D01*
X149500000Y-117500000D02*
X145000000Y-117500000D01*
X123087500Y-111000000D02*
X111000000Y-123087500D01*
D52*
G04 #@! TO.N,Net-(U7-ADJ)*
X120525000Y-127905000D02*
X118492500Y-127905000D01*
X114587500Y-126912500D02*
X114500000Y-127000000D01*
X118492500Y-127905000D02*
X117500000Y-126912500D01*
X117500000Y-126912500D02*
X114587500Y-126912500D01*
D54*
G04 #@! TO.N,Net-(R11-Pad2)*
X103637500Y-65500000D02*
X106900000Y-65500000D01*
D53*
G04 #@! TO.N,Net-(R13-Pad1)*
X122700000Y-70000000D02*
X122375000Y-69675000D01*
X122375000Y-69675000D02*
X118112500Y-69675000D01*
X120087500Y-79412500D02*
X122700000Y-76800000D01*
X122700000Y-76800000D02*
X122700000Y-70000000D01*
X120087500Y-84000000D02*
X120087500Y-79412500D01*
D54*
G04 #@! TO.N,Net-(R15-Pad2)*
X103912500Y-78000000D02*
X107087500Y-78000000D01*
D53*
G04 #@! TO.N,Net-(R19-Pad1)*
X106987500Y-69675000D02*
X113887500Y-69675000D01*
X106400000Y-69087500D02*
X106987500Y-69675000D01*
G04 #@! TO.N,Net-(R19-Pad2)*
X106987500Y-70325000D02*
X113887500Y-70325000D01*
X106400000Y-70912500D02*
X106987500Y-70325000D01*
D52*
G04 #@! TO.N,Net-(U12C-+)*
X128700000Y-99270000D02*
X129674999Y-99270000D01*
X132817499Y-102412500D02*
X138500000Y-102412500D01*
X138500000Y-102412500D02*
X138500000Y-104587500D01*
X129674999Y-99270000D02*
X132817499Y-102412500D01*
D53*
G04 #@! TO.N,Net-(U12D--)*
X128700000Y-95460000D02*
X126840000Y-95460000D01*
X132900000Y-91900000D02*
X133000000Y-92000000D01*
X133000000Y-92000000D02*
X137000000Y-92000000D01*
X131400000Y-91900000D02*
X132900000Y-91900000D01*
X126840000Y-95460000D02*
X126800000Y-95500000D01*
G04 #@! TO.N,/Micrcontroller STM32C0/-3V3_Supply*
X159250000Y-99162500D02*
X159250000Y-100003120D01*
X149500000Y-104000000D02*
X145500000Y-104000000D01*
X145500000Y-104000000D02*
X141000000Y-99500000D01*
X133000000Y-90175000D02*
X133000000Y-88500000D01*
X133000000Y-94190000D02*
X128700000Y-94190000D01*
X157000000Y-102253120D02*
X157000000Y-103000000D01*
X150000000Y-103500000D02*
X149500000Y-104000000D01*
X141000000Y-99500000D02*
X141000000Y-98000000D01*
X137190000Y-94190000D02*
X133000000Y-94190000D01*
X159250000Y-100003120D02*
X157000000Y-102253120D01*
X141000000Y-98000000D02*
X137190000Y-94190000D01*
G04 #@! TO.N,Net-(U1-~{RTS})*
X154200000Y-108477500D02*
X153477500Y-108477500D01*
X153477500Y-108477500D02*
X153000000Y-108000000D01*
X147000000Y-110000000D02*
X149000000Y-110000000D01*
X149000000Y-110000000D02*
X150500000Y-108500000D01*
X153000000Y-108000000D02*
X152500000Y-107500000D01*
G04 #@! TO.N,Net-(U1-~{CTS})*
X147000000Y-115650000D02*
X147000000Y-115000000D01*
X147000000Y-115000000D02*
X150900000Y-111100000D01*
X154117500Y-111100000D02*
X154200000Y-111017500D01*
X150900000Y-111100000D02*
X154117500Y-111100000D01*
G04 #@! TO.N,/Micrcontroller STM32C0/UART1_Rx*
X154200000Y-109747500D02*
X152247500Y-109747500D01*
X152247500Y-109747500D02*
X151500000Y-109000000D01*
X151500000Y-109000000D02*
X151500000Y-103587500D01*
X151500000Y-103587500D02*
X157337500Y-97750000D01*
D10*
G04 #@! TO.N,/Micrcontroller STM32C0/UART1_Tx*
X154200000Y-107577500D02*
X154200000Y-107712500D01*
D53*
X159000000Y-97500000D02*
X158750000Y-97250000D01*
X154200000Y-102300000D02*
X159000000Y-97500000D01*
X158750000Y-97250000D02*
X157337500Y-97250000D01*
X154200000Y-107842500D02*
X154200000Y-102300000D01*
G04 #@! TO.N,/Micrcontroller STM32C0/+3V3_Meas*
X156000000Y-101912500D02*
X158750000Y-99162500D01*
X156000000Y-104000000D02*
X156000000Y-101912500D01*
X135390000Y-108500000D02*
X128700000Y-101810000D01*
X141000000Y-108500000D02*
X135390000Y-108500000D01*
D52*
X128700000Y-100540000D02*
X128700000Y-101810000D01*
X128700000Y-101810000D02*
X128700000Y-102200000D01*
D53*
X150000000Y-104500000D02*
X145000000Y-104500000D01*
X145000000Y-104500000D02*
X141000000Y-108500000D01*
G04 #@! TO.N,/Micrcontroller STM32C0/Curr_meas*
X117500000Y-103800000D02*
X115000000Y-101300000D01*
X144500000Y-106500000D02*
X142000000Y-109000000D01*
X142000000Y-109000000D02*
X132500000Y-109000000D01*
D52*
X110950000Y-99950000D02*
X112000000Y-99950000D01*
D53*
X114650000Y-99950000D02*
X112000000Y-99950000D01*
X150000000Y-106500000D02*
X144500000Y-106500000D01*
X115000000Y-101300000D02*
X115000000Y-100300000D01*
X123200000Y-104000000D02*
X123000000Y-103800000D01*
D52*
X107475000Y-101365000D02*
X109535000Y-101365000D01*
D53*
X115000000Y-100300000D02*
X114650000Y-99950000D01*
X124500000Y-104000000D02*
X123200000Y-104000000D01*
X132500000Y-109000000D02*
X127500000Y-104000000D01*
X160250000Y-101750000D02*
X157000000Y-105000000D01*
X160250000Y-99162500D02*
X160250000Y-101750000D01*
D52*
X109535000Y-101365000D02*
X110950000Y-99950000D01*
D53*
X127500000Y-104000000D02*
X124500000Y-104000000D01*
G04 #@! TO.N,/Micrcontroller STM32C0/i_Supply*
X154187500Y-128000000D02*
X152137500Y-125950000D01*
X160750000Y-99162500D02*
X160750000Y-101957107D01*
X160750000Y-101957107D02*
X161542893Y-102750000D01*
X180000000Y-128000000D02*
X154187500Y-128000000D01*
X179250000Y-102750000D02*
X182350000Y-105850000D01*
X182350000Y-125650000D02*
X180000000Y-128000000D01*
X161542893Y-102750000D02*
X179250000Y-102750000D01*
X182350000Y-105850000D02*
X182350000Y-125650000D01*
D10*
G04 #@! TO.N,/Connectors/DEBUG_SWCLK*
X172000000Y-46000000D02*
X171000000Y-47000000D01*
X181500000Y-46000000D02*
X172000000Y-46000000D01*
X165662500Y-92250000D02*
X167912500Y-90000000D01*
X184000000Y-87434314D02*
X184000000Y-48500000D01*
X167912500Y-90000000D02*
X181434314Y-90000000D01*
X181434314Y-90000000D02*
X184000000Y-87434314D01*
X184000000Y-48500000D02*
X181500000Y-46000000D01*
X171000000Y-47000000D02*
X171000000Y-50000000D01*
G04 #@! TO.N,/Connectors/DEBUG_SWDIO*
X168500000Y-90500000D02*
X181500000Y-90500000D01*
X165662500Y-92750000D02*
X166432410Y-92750000D01*
X181565686Y-45500000D02*
X171757919Y-45500000D01*
X168000000Y-91000000D02*
X168500000Y-90500000D01*
X168000000Y-91182410D02*
X168000000Y-91000000D01*
X184500000Y-48434314D02*
X181565686Y-45500000D01*
X168460000Y-48797919D02*
X168460000Y-50000000D01*
X166432410Y-92750000D02*
X168000000Y-91182410D01*
X171757919Y-45500000D02*
X168460000Y-48797919D01*
X181500000Y-90500000D02*
X184500000Y-87500000D01*
X184500000Y-87500000D02*
X184500000Y-48434314D01*
D52*
G04 #@! TO.N,/Voltage and Current Measurement/1.6 V Ref*
X123500000Y-71800000D02*
X124000000Y-71300000D01*
X123300000Y-101810000D02*
X123300000Y-100540000D01*
D53*
X120525000Y-70325000D02*
X121000000Y-70800000D01*
D52*
X125260000Y-100540000D02*
X125500000Y-100300000D01*
X123300000Y-100540000D02*
X125260000Y-100540000D01*
D53*
X118112500Y-70325000D02*
X120525000Y-70325000D01*
D52*
X123500000Y-81300000D02*
X123500000Y-71800000D01*
G04 #@! TD*
M02*
